<?xml version="1.0" encoding="utf-8" standalone="no"?>
<!DOCTYPE svg PUBLIC "-//W3C//DTD SVG 1.1//EN"
  "http://www.w3.org/Graphics/SVG/1.1/DTD/svg11.dtd">
<svg xmlns:xlink="http://www.w3.org/1999/xlink" width="460.8pt" height="345.6pt" viewBox="0 0 460.8 345.6" xmlns="http://www.w3.org/2000/svg" version="1.1">
 <metadata>
  <rdf:RDF xmlns:dc="http://purl.org/dc/elements/1.1/" xmlns:cc="http://creativecommons.org/ns#" xmlns:rdf="http://www.w3.org/1999/02/22-rdf-syntax-ns#">
   <cc:Work>
    <dc:type rdf:resource="http://purl.org/dc/dcmitype/StillImage"/>
    <dc:date>2023-05-22T22:12:18.024445</dc:date>
    <dc:format>image/svg+xml</dc:format>
    <dc:creator>
     <cc:Agent>
      <dc:title>Matplotlib v3.6.3, https://matplotlib.org/</dc:title>
     </cc:Agent>
    </dc:creator>
   </cc:Work>
  </rdf:RDF>
 </metadata>
 <defs>
  <style type="text/css">*{stroke-linejoin: round; stroke-linecap: butt}</style>
 </defs>
 <g id="figure_1">
  <g id="patch_1">
   <path d="M 0 345.6 
L 460.8 345.6 
L 460.8 0 
L 0 0 
z
" style="fill: #ffffff"/>
  </g>
  <g id="axes_1">
   <g id="patch_2">
    <path d="M 57.6 276.48 
L 414.72 276.48 
L 414.72 41.472 
L 57.6 41.472 
z
" style="fill: #ffffff"/>
   </g>
   <g id="matplotlib.axis_1">
    <g id="xtick_1">
     <g id="line2d_1">
      <defs>
       <path id="m91e3a25667" d="M 0 0 
L 0 3.5 
" style="stroke: #000000; stroke-width: 0.8"/>
      </defs>
      <g>
       <use xlink:href="#m91e3a25667" x="71.144305" y="276.48" style="stroke: #000000; stroke-width: 0.8"/>
      </g>
     </g>
     <g id="text_1">
      <!-- 2004 -->
      <g transform="translate(48.064115 302.78544) rotate(-30) scale(0.1 -0.1)">
       <defs>
        <path id="DejaVuSans-32" d="M 1228 531 
L 3431 531 
L 3431 0 
L 469 0 
L 469 531 
Q 828 903 1448 1529 
Q 2069 2156 2228 2338 
Q 2531 2678 2651 2914 
Q 2772 3150 2772 3378 
Q 2772 3750 2511 3984 
Q 2250 4219 1831 4219 
Q 1534 4219 1204 4116 
Q 875 4013 500 3803 
L 500 4441 
Q 881 4594 1212 4672 
Q 1544 4750 1819 4750 
Q 2544 4750 2975 4387 
Q 3406 4025 3406 3419 
Q 3406 3131 3298 2873 
Q 3191 2616 2906 2266 
Q 2828 2175 2409 1742 
Q 1991 1309 1228 531 
z
" transform="scale(0.015625)"/>
        <path id="DejaVuSans-30" d="M 2034 4250 
Q 1547 4250 1301 3770 
Q 1056 3291 1056 2328 
Q 1056 1369 1301 889 
Q 1547 409 2034 409 
Q 2525 409 2770 889 
Q 3016 1369 3016 2328 
Q 3016 3291 2770 3770 
Q 2525 4250 2034 4250 
z
M 2034 4750 
Q 2819 4750 3233 4129 
Q 3647 3509 3647 2328 
Q 3647 1150 3233 529 
Q 2819 -91 2034 -91 
Q 1250 -91 836 529 
Q 422 1150 422 2328 
Q 422 3509 836 4129 
Q 1250 4750 2034 4750 
z
" transform="scale(0.015625)"/>
        <path id="DejaVuSans-34" d="M 2419 4116 
L 825 1625 
L 2419 1625 
L 2419 4116 
z
M 2253 4666 
L 3047 4666 
L 3047 1625 
L 3713 1625 
L 3713 1100 
L 3047 1100 
L 3047 0 
L 2419 0 
L 2419 1100 
L 313 1100 
L 313 1709 
L 2253 4666 
z
" transform="scale(0.015625)"/>
       </defs>
       <use xlink:href="#DejaVuSans-32"/>
       <use xlink:href="#DejaVuSans-30" x="63.623047"/>
       <use xlink:href="#DejaVuSans-30" x="127.246094"/>
       <use xlink:href="#DejaVuSans-34" x="190.869141"/>
      </g>
     </g>
    </g>
    <g id="xtick_2">
     <g id="line2d_2">
      <g>
       <use xlink:href="#m91e3a25667" x="138.675414" y="276.48" style="stroke: #000000; stroke-width: 0.8"/>
      </g>
     </g>
     <g id="text_2">
      <!-- 2008 -->
      <g transform="translate(115.595224 302.78544) rotate(-30) scale(0.1 -0.1)">
       <defs>
        <path id="DejaVuSans-38" d="M 2034 2216 
Q 1584 2216 1326 1975 
Q 1069 1734 1069 1313 
Q 1069 891 1326 650 
Q 1584 409 2034 409 
Q 2484 409 2743 651 
Q 3003 894 3003 1313 
Q 3003 1734 2745 1975 
Q 2488 2216 2034 2216 
z
M 1403 2484 
Q 997 2584 770 2862 
Q 544 3141 544 3541 
Q 544 4100 942 4425 
Q 1341 4750 2034 4750 
Q 2731 4750 3128 4425 
Q 3525 4100 3525 3541 
Q 3525 3141 3298 2862 
Q 3072 2584 2669 2484 
Q 3125 2378 3379 2068 
Q 3634 1759 3634 1313 
Q 3634 634 3220 271 
Q 2806 -91 2034 -91 
Q 1263 -91 848 271 
Q 434 634 434 1313 
Q 434 1759 690 2068 
Q 947 2378 1403 2484 
z
M 1172 3481 
Q 1172 3119 1398 2916 
Q 1625 2713 2034 2713 
Q 2441 2713 2670 2916 
Q 2900 3119 2900 3481 
Q 2900 3844 2670 4047 
Q 2441 4250 2034 4250 
Q 1625 4250 1398 4047 
Q 1172 3844 1172 3481 
z
" transform="scale(0.015625)"/>
       </defs>
       <use xlink:href="#DejaVuSans-32"/>
       <use xlink:href="#DejaVuSans-30" x="63.623047"/>
       <use xlink:href="#DejaVuSans-30" x="127.246094"/>
       <use xlink:href="#DejaVuSans-38" x="190.869141"/>
      </g>
     </g>
    </g>
    <g id="xtick_3">
     <g id="line2d_3">
      <g>
       <use xlink:href="#m91e3a25667" x="206.206523" y="276.48" style="stroke: #000000; stroke-width: 0.8"/>
      </g>
     </g>
     <g id="text_3">
      <!-- 2012 -->
      <g transform="translate(183.126333 302.78544) rotate(-30) scale(0.1 -0.1)">
       <defs>
        <path id="DejaVuSans-31" d="M 794 531 
L 1825 531 
L 1825 4091 
L 703 3866 
L 703 4441 
L 1819 4666 
L 2450 4666 
L 2450 531 
L 3481 531 
L 3481 0 
L 794 0 
L 794 531 
z
" transform="scale(0.015625)"/>
       </defs>
       <use xlink:href="#DejaVuSans-32"/>
       <use xlink:href="#DejaVuSans-30" x="63.623047"/>
       <use xlink:href="#DejaVuSans-31" x="127.246094"/>
       <use xlink:href="#DejaVuSans-32" x="190.869141"/>
      </g>
     </g>
    </g>
    <g id="xtick_4">
     <g id="line2d_4">
      <g>
       <use xlink:href="#m91e3a25667" x="273.737632" y="276.48" style="stroke: #000000; stroke-width: 0.8"/>
      </g>
     </g>
     <g id="text_4">
      <!-- 2016 -->
      <g transform="translate(250.657442 302.78544) rotate(-30) scale(0.1 -0.1)">
       <defs>
        <path id="DejaVuSans-36" d="M 2113 2584 
Q 1688 2584 1439 2293 
Q 1191 2003 1191 1497 
Q 1191 994 1439 701 
Q 1688 409 2113 409 
Q 2538 409 2786 701 
Q 3034 994 3034 1497 
Q 3034 2003 2786 2293 
Q 2538 2584 2113 2584 
z
M 3366 4563 
L 3366 3988 
Q 3128 4100 2886 4159 
Q 2644 4219 2406 4219 
Q 1781 4219 1451 3797 
Q 1122 3375 1075 2522 
Q 1259 2794 1537 2939 
Q 1816 3084 2150 3084 
Q 2853 3084 3261 2657 
Q 3669 2231 3669 1497 
Q 3669 778 3244 343 
Q 2819 -91 2113 -91 
Q 1303 -91 875 529 
Q 447 1150 447 2328 
Q 447 3434 972 4092 
Q 1497 4750 2381 4750 
Q 2619 4750 2861 4703 
Q 3103 4656 3366 4563 
z
" transform="scale(0.015625)"/>
       </defs>
       <use xlink:href="#DejaVuSans-32"/>
       <use xlink:href="#DejaVuSans-30" x="63.623047"/>
       <use xlink:href="#DejaVuSans-31" x="127.246094"/>
       <use xlink:href="#DejaVuSans-36" x="190.869141"/>
      </g>
     </g>
    </g>
    <g id="xtick_5">
     <g id="line2d_5">
      <g>
       <use xlink:href="#m91e3a25667" x="341.268742" y="276.48" style="stroke: #000000; stroke-width: 0.8"/>
      </g>
     </g>
     <g id="text_5">
      <!-- 2020 -->
      <g transform="translate(318.188551 302.78544) rotate(-30) scale(0.1 -0.1)">
       <use xlink:href="#DejaVuSans-32"/>
       <use xlink:href="#DejaVuSans-30" x="63.623047"/>
       <use xlink:href="#DejaVuSans-32" x="127.246094"/>
       <use xlink:href="#DejaVuSans-30" x="190.869141"/>
      </g>
     </g>
    </g>
    <g id="xtick_6">
     <g id="line2d_6">
      <g>
       <use xlink:href="#m91e3a25667" x="408.799851" y="276.48" style="stroke: #000000; stroke-width: 0.8"/>
      </g>
     </g>
     <g id="text_6">
      <!-- 2024 -->
      <g transform="translate(385.719661 302.78544) rotate(-30) scale(0.1 -0.1)">
       <use xlink:href="#DejaVuSans-32"/>
       <use xlink:href="#DejaVuSans-30" x="63.623047"/>
       <use xlink:href="#DejaVuSans-32" x="127.246094"/>
       <use xlink:href="#DejaVuSans-34" x="190.869141"/>
      </g>
     </g>
    </g>
   </g>
   <g id="matplotlib.axis_2">
    <g id="ytick_1">
     <g id="line2d_7">
      <defs>
       <path id="m1cf25c06cb" d="M 0 0 
L -3.5 0 
" style="stroke: #000000; stroke-width: 0.8"/>
      </defs>
      <g>
       <use xlink:href="#m1cf25c06cb" x="57.6" y="265.798365" style="stroke: #000000; stroke-width: 0.8"/>
      </g>
     </g>
     <g id="text_7">
      <!-- 0 -->
      <g transform="translate(44.2375 269.597584) scale(0.1 -0.1)">
       <use xlink:href="#DejaVuSans-30"/>
      </g>
     </g>
    </g>
    <g id="ytick_2">
     <g id="line2d_8">
      <g>
       <use xlink:href="#m1cf25c06cb" x="57.6" y="238.466463" style="stroke: #000000; stroke-width: 0.8"/>
      </g>
     </g>
     <g id="text_8">
      <!-- 50000 -->
      <g transform="translate(18.7875 242.265682) scale(0.1 -0.1)">
       <defs>
        <path id="DejaVuSans-35" d="M 691 4666 
L 3169 4666 
L 3169 4134 
L 1269 4134 
L 1269 2991 
Q 1406 3038 1543 3061 
Q 1681 3084 1819 3084 
Q 2600 3084 3056 2656 
Q 3513 2228 3513 1497 
Q 3513 744 3044 326 
Q 2575 -91 1722 -91 
Q 1428 -91 1123 -41 
Q 819 9 494 109 
L 494 744 
Q 775 591 1075 516 
Q 1375 441 1709 441 
Q 2250 441 2565 725 
Q 2881 1009 2881 1497 
Q 2881 1984 2565 2268 
Q 2250 2553 1709 2553 
Q 1456 2553 1204 2497 
Q 953 2441 691 2322 
L 691 4666 
z
" transform="scale(0.015625)"/>
       </defs>
       <use xlink:href="#DejaVuSans-35"/>
       <use xlink:href="#DejaVuSans-30" x="63.623047"/>
       <use xlink:href="#DejaVuSans-30" x="127.246094"/>
       <use xlink:href="#DejaVuSans-30" x="190.869141"/>
       <use xlink:href="#DejaVuSans-30" x="254.492188"/>
      </g>
     </g>
    </g>
    <g id="ytick_3">
     <g id="line2d_9">
      <g>
       <use xlink:href="#m1cf25c06cb" x="57.6" y="211.134561" style="stroke: #000000; stroke-width: 0.8"/>
      </g>
     </g>
     <g id="text_9">
      <!-- 100000 -->
      <g transform="translate(12.425 214.93378) scale(0.1 -0.1)">
       <use xlink:href="#DejaVuSans-31"/>
       <use xlink:href="#DejaVuSans-30" x="63.623047"/>
       <use xlink:href="#DejaVuSans-30" x="127.246094"/>
       <use xlink:href="#DejaVuSans-30" x="190.869141"/>
       <use xlink:href="#DejaVuSans-30" x="254.492188"/>
       <use xlink:href="#DejaVuSans-30" x="318.115234"/>
      </g>
     </g>
    </g>
    <g id="ytick_4">
     <g id="line2d_10">
      <g>
       <use xlink:href="#m1cf25c06cb" x="57.6" y="183.80266" style="stroke: #000000; stroke-width: 0.8"/>
      </g>
     </g>
     <g id="text_10">
      <!-- 150000 -->
      <g transform="translate(12.425 187.601878) scale(0.1 -0.1)">
       <use xlink:href="#DejaVuSans-31"/>
       <use xlink:href="#DejaVuSans-35" x="63.623047"/>
       <use xlink:href="#DejaVuSans-30" x="127.246094"/>
       <use xlink:href="#DejaVuSans-30" x="190.869141"/>
       <use xlink:href="#DejaVuSans-30" x="254.492188"/>
       <use xlink:href="#DejaVuSans-30" x="318.115234"/>
      </g>
     </g>
    </g>
    <g id="ytick_5">
     <g id="line2d_11">
      <g>
       <use xlink:href="#m1cf25c06cb" x="57.6" y="156.470758" style="stroke: #000000; stroke-width: 0.8"/>
      </g>
     </g>
     <g id="text_11">
      <!-- 200000 -->
      <g transform="translate(12.425 160.269977) scale(0.1 -0.1)">
       <use xlink:href="#DejaVuSans-32"/>
       <use xlink:href="#DejaVuSans-30" x="63.623047"/>
       <use xlink:href="#DejaVuSans-30" x="127.246094"/>
       <use xlink:href="#DejaVuSans-30" x="190.869141"/>
       <use xlink:href="#DejaVuSans-30" x="254.492188"/>
       <use xlink:href="#DejaVuSans-30" x="318.115234"/>
      </g>
     </g>
    </g>
    <g id="ytick_6">
     <g id="line2d_12">
      <g>
       <use xlink:href="#m1cf25c06cb" x="57.6" y="129.138856" style="stroke: #000000; stroke-width: 0.8"/>
      </g>
     </g>
     <g id="text_12">
      <!-- 250000 -->
      <g transform="translate(12.425 132.938075) scale(0.1 -0.1)">
       <use xlink:href="#DejaVuSans-32"/>
       <use xlink:href="#DejaVuSans-35" x="63.623047"/>
       <use xlink:href="#DejaVuSans-30" x="127.246094"/>
       <use xlink:href="#DejaVuSans-30" x="190.869141"/>
       <use xlink:href="#DejaVuSans-30" x="254.492188"/>
       <use xlink:href="#DejaVuSans-30" x="318.115234"/>
      </g>
     </g>
    </g>
    <g id="ytick_7">
     <g id="line2d_13">
      <g>
       <use xlink:href="#m1cf25c06cb" x="57.6" y="101.806954" style="stroke: #000000; stroke-width: 0.8"/>
      </g>
     </g>
     <g id="text_13">
      <!-- 300000 -->
      <g transform="translate(12.425 105.606173) scale(0.1 -0.1)">
       <defs>
        <path id="DejaVuSans-33" d="M 2597 2516 
Q 3050 2419 3304 2112 
Q 3559 1806 3559 1356 
Q 3559 666 3084 287 
Q 2609 -91 1734 -91 
Q 1441 -91 1130 -33 
Q 819 25 488 141 
L 488 750 
Q 750 597 1062 519 
Q 1375 441 1716 441 
Q 2309 441 2620 675 
Q 2931 909 2931 1356 
Q 2931 1769 2642 2001 
Q 2353 2234 1838 2234 
L 1294 2234 
L 1294 2753 
L 1863 2753 
Q 2328 2753 2575 2939 
Q 2822 3125 2822 3475 
Q 2822 3834 2567 4026 
Q 2313 4219 1838 4219 
Q 1578 4219 1281 4162 
Q 984 4106 628 3988 
L 628 4550 
Q 988 4650 1302 4700 
Q 1616 4750 1894 4750 
Q 2613 4750 3031 4423 
Q 3450 4097 3450 3541 
Q 3450 3153 3228 2886 
Q 3006 2619 2597 2516 
z
" transform="scale(0.015625)"/>
       </defs>
       <use xlink:href="#DejaVuSans-33"/>
       <use xlink:href="#DejaVuSans-30" x="63.623047"/>
       <use xlink:href="#DejaVuSans-30" x="127.246094"/>
       <use xlink:href="#DejaVuSans-30" x="190.869141"/>
       <use xlink:href="#DejaVuSans-30" x="254.492188"/>
       <use xlink:href="#DejaVuSans-30" x="318.115234"/>
      </g>
     </g>
    </g>
    <g id="ytick_8">
     <g id="line2d_14">
      <g>
       <use xlink:href="#m1cf25c06cb" x="57.6" y="74.475053" style="stroke: #000000; stroke-width: 0.8"/>
      </g>
     </g>
     <g id="text_14">
      <!-- 350000 -->
      <g transform="translate(12.425 78.274271) scale(0.1 -0.1)">
       <use xlink:href="#DejaVuSans-33"/>
       <use xlink:href="#DejaVuSans-35" x="63.623047"/>
       <use xlink:href="#DejaVuSans-30" x="127.246094"/>
       <use xlink:href="#DejaVuSans-30" x="190.869141"/>
       <use xlink:href="#DejaVuSans-30" x="254.492188"/>
       <use xlink:href="#DejaVuSans-30" x="318.115234"/>
      </g>
     </g>
    </g>
    <g id="ytick_9">
     <g id="line2d_15">
      <g>
       <use xlink:href="#m1cf25c06cb" x="57.6" y="47.143151" style="stroke: #000000; stroke-width: 0.8"/>
      </g>
     </g>
     <g id="text_15">
      <!-- 400000 -->
      <g transform="translate(12.425 50.94237) scale(0.1 -0.1)">
       <use xlink:href="#DejaVuSans-34"/>
       <use xlink:href="#DejaVuSans-30" x="63.623047"/>
       <use xlink:href="#DejaVuSans-30" x="127.246094"/>
       <use xlink:href="#DejaVuSans-30" x="190.869141"/>
       <use xlink:href="#DejaVuSans-30" x="254.492188"/>
       <use xlink:href="#DejaVuSans-30" x="318.115234"/>
      </g>
     </g>
    </g>
   </g>
   <g id="line2d_16">
    <path d="M 73.832727 265.797272 
L 136.35596 265.69341 
L 136.456215 265.681384 
L 139.594849 265.570417 
L 139.83115 265.559484 
L 143.17894 265.463822 
L 143.287961 265.302017 
L 143.584541 265.292178 
L 145.190303 265.210182 
L 145.285846 265.169184 
L 149.057485 265.058217 
L 157.011531 264.54875 
L 161.076825 264.443249 
L 161.179455 264.434503 
L 163.428919 264.323535 
L 163.623645 264.317522 
L 167.143838 264.206555 
L 167.25582 264.17321 
L 168.162714 264.146425 
L 168.274989 264.017965 
L 169.57747 263.906997 
L 169.829214 263.899891 
L 171.252165 263.788923 
L 171.357544 263.787283 
L 173.872724 263.676863 
L 173.983004 263.670303 
L 176.200042 263.562069 
L 176.300359 263.548949 
L 178.47518 263.454381 
L 178.612808 263.416663 
L 182.111741 263.305695 
L 182.16458 263.294763 
L 182.212106 263.294763 
L 182.39642 263.291483 
L 182.509778 262.939995 
L 182.509778 262.939995 
L 184.047295 262.829027 
L 184.316921 262.791856 
L 185.344443 262.686354 
L 185.457412 262.663942 
L 187.239386 262.556801 
L 187.339169 262.422875 
L 189.042228 262.231005 
L 190.784962 262.120037 
L 192.334202 261.979552 
L 193.158127 261.869131 
L 193.265464 261.855465 
L 193.265464 261.855465 
L 194.047579 261.744497 
L 194.165689 261.728098 
L 195.021829 261.653209 
L 195.135851 261.50343 
L 196.396469 261.397382 
L 196.502039 261.378796 
L 197.583921 261.267829 
L 197.934902 261.221365 
L 198.852954 261.110944 
L 198.972667 261.084158 
L 199.534018 260.973191 
L 199.858755 260.947499 
L 200.886942 260.836531 
L 201.022445 260.823959 
L 202.175949 260.712991 
L 206.102523 260.317772 
L 207.443676 260.216097 
L 207.549161 260.114423 
L 209.24047 260.010561 
L 209.348552 259.764574 
L 210.2535 259.653607 
L 210.364397 259.64814 
L 210.66239 259.633928 
L 212.762533 259.52296 
L 213.057149 259.513667 
L 214.810185 259.4027 
L 215.476685 259.381381 
L 217.644691 259.27424 
L 217.753999 259.257841 
L 218.431045 259.146873 
L 218.546301 259.128288 
L 218.867914 259.022786 
L 218.979427 258.974682 
L 219.868969 258.863715 
L 220.564792 258.525892 
L 220.609968 258.523159 
L 220.720125 258.084756 
L 221.158825 257.99128 
L 221.273322 257.955202 
L 221.445601 257.919124 
L 222.216958 257.808157 
L 222.405578 257.779185 
L 223.934398 257.669311 
L 224.048395 257.651818 
L 225.457857 257.542491 
L 225.572401 257.521172 
L 226.102205 257.410204 
L 226.294985 257.397632 
L 227.683772 257.288304 
L 227.839718 257.274638 
L 230.287773 257.164217 
L 230.3994 257.159297 
L 232.447578 257.082221 
L 232.553286 256.929709 
L 237.434343 256.655297 
L 237.545403 256.635618 
L 239.616017 256.524651 
L 239.974583 256.516451 
L 242.529232 256.405483 
L 242.742377 256.389084 
L 243.635393 256.322394 
L 243.725607 256.139817 
L 245.7778 256.047436 
L 245.903981 256.021197 
L 250.058526 255.910229 
L 250.203915 255.903123 
L 250.602028 255.891644 
L 250.713946 255.721093 
L 252.823882 255.64839 
L 252.935513 255.517743 
L 254.355228 255.406776 
L 254.514381 255.402403 
L 255.453446 255.298541 
L 255.563782 255.270116 
L 256.583423 255.248251 
L 260.732396 255.137283 
L 260.843098 255.135097 
L 264.566642 255.024129 
L 264.716224 255.020303 
L 267.791895 254.909882 
L 267.906417 254.894576 
L 270.162165 254.783608 
L 270.284236 254.782515 
L 282.373108 254.671548 
L 284.067126 254.658975 
L 287.994034 254.548007 
L 288.238025 254.543088 
L 292.109231 254.43212 
L 292.221011 254.4272 
L 295.30699 254.316233 
L 295.614452 254.30858 
L 299.282768 254.237517 
L 299.387452 254.156068 
L 301.871847 254.04838 
L 301.980813 253.99481 
L 304.958059 253.883842 
L 305.105578 253.87127 
L 308.335547 253.760302 
L 308.586627 253.74281 
L 311.726713 253.631842 
L 311.83791 253.618723 
L 314.180949 253.507755 
L 314.319609 253.502836 
L 317.400058 253.394601 
L 317.51324 253.385855 
L 319.70297 253.274887 
L 319.812862 253.272154 
L 321.432797 253.166653 
L 321.561727 253.149707 
L 324.754437 253.039286 
L 324.863125 253.023981 
L 327.112668 252.913013 
L 327.237383 252.909187 
L 330.287869 252.817898 
L 330.401205 252.790566 
L 335.747462 252.679599 
L 335.87547 252.671399 
L 339.275604 252.560978 
L 339.390364 252.552232 
L 341.578991 252.501395 
L 341.685574 252.383321 
L 345.358987 252.272353 
L 345.900876 252.258687 
L 349.983528 252.14772 
L 350.113924 252.1428 
L 352.714022 252.061351 
L 352.818766 252.006141 
L 355.894416 251.895173 
L 356.004558 251.891347 
L 358.965882 251.780379 
L 359.503528 251.747034 
L 361.302174 251.641533 
L 361.413248 251.625134 
L 361.442311 251.625134 
L 361.554814 251.410305 
L 365.714285 251.300978 
L 365.820295 251.292231 
L 366.967086 251.244127 
L 367.077742 251.128787 
L 369.019262 251.017819 
L 371.449767 250.909585 
L 372.764872 250.798617 
L 372.880266 250.795884 
L 376.975797 250.688743 
L 377.08522 250.42417 
L 380.503252 250.313203 
L 380.836742 250.30227 
L 384.5339 250.221367 
L 386.683997 250.1104 
L 386.683997 250.1104 
L 386.791938 250.097281 
L 386.791938 250.097281 
L 387.892697 250.031684 
L 387.892697 250.031684 
L 388.001498 249.792257 
L 388.001498 249.792257 
L 391.713379 249.624439 
L 391.713379 249.624439 
L 394.28753 249.513471 
L 394.603479 249.494339 
L 397.647538 249.383371 
L 397.80003 249.378998 
L 397.80003 249.378998 
L 398.487273 249.345107 
L 398.487273 249.345107 
" clip-path="url(#p060f1a217e)" style="fill: none; stroke: #1f77b4; stroke-width: 1.5; stroke-linecap: square"/>
   </g>
   <g id="line2d_17">
    <path d="M 73.832727 265.797818 
L 136.321911 265.686304 
L 137.841705 265.532699 
L 139.359062 265.230955 
L 139.470737 265.193783 
L 140.315162 265.013939 
L 140.52661 264.964195 
L 141.401935 264.787084 
L 141.725044 264.700169 
L 142.395526 264.554763 
L 142.507051 264.537818 
L 143.14887 264.402251 
L 143.283082 264.310963 
L 143.975874 264.121826 
L 144.277879 264.075362 
L 144.942869 263.920117 
L 145.888458 263.34232 
L 146.012325 263.08212 
L 146.157478 263.049869 
L 146.508971 262.843786 
L 146.626991 262.790216 
L 151.139544 261.771829 
L 151.266539 261.734111 
L 151.692103 261.485391 
L 151.799006 261.453686 
L 152.28269 261.331785 
L 152.44951 261.283681 
L 152.841244 261.162874 
L 152.962639 261.085798 
L 153.362308 260.956245 
L 154.05109 260.726657 
L 154.560576 260.460444 
L 154.886272 260.213911 
L 155.125781 260.010561 
L 155.681513 259.877182 
L 155.900355 259.736149 
L 156.008889 259.638847 
L 156.136712 259.521867 
L 156.287769 259.39614 
L 156.401857 259.280253 
L 156.749683 258.889407 
L 156.877523 258.774066 
L 157.024994 258.688244 
L 157.471059 258.563064 
L 158.15458 258.485441 
L 159.685791 258.317077 
L 159.797356 258.299038 
L 160.999723 258.154179 
L 161.476715 258.081476 
L 162.044141 257.941536 
L 162.160764 257.900538 
L 162.553508 257.769345 
L 162.680394 257.728348 
L 163.069314 257.591141 
L 163.264474 257.535931 
L 163.84589 257.410751 
L 165.10327 257.16531 
L 166.781824 256.954308 
L 166.897196 256.882152 
L 167.225945 256.693015 
L 167.37583 256.635618 
L 167.916594 256.514811 
L 168.025446 256.483106 
L 168.426245 256.361206 
L 168.630949 256.286863 
L 169.01865 256.146377 
L 170.793429 255.654403 
L 171.258041 255.505717 
L 173.336502 254.604311 
L 173.451483 254.527235 
L 173.927187 254.264849 
L 174.104981 254.205812 
L 181.355084 251.832856 
L 182.377689 251.654106 
L 183.193856 251.24686 
L 183.681126 251.106921 
L 183.807269 250.923251 
L 183.949606 250.772925 
L 184.392172 250.43401 
L 184.60113 250.314842 
L 184.712899 250.195675 
L 185.246088 249.964448 
L 185.35748 249.881359 
L 185.623818 249.761098 
L 186.10066 249.436395 
L 186.358078 249.317775 
L 186.472283 249.251632 
L 186.649501 249.131371 
L 187.247705 248.711006 
L 187.478575 248.610972 
L 187.751671 248.450807 
L 187.866751 248.403249 
L 188.069177 248.277523 
L 188.3002 248.110251 
L 189.454452 247.784455 
L 189.637396 247.692073 
L 189.832516 247.541201 
L 190.082749 247.414381 
L 190.254276 247.295214 
L 190.405608 247.228524 
L 190.656734 247.099518 
L 191.001811 246.907101 
L 191.139901 246.787387 
L 192.06631 245.706684 
L 192.236458 245.579317 
L 192.354331 245.492948 
L 192.478995 245.345356 
L 192.896352 244.615048 
L 193.071514 244.487681 
L 193.200387 244.363594 
L 193.293922 244.206709 
L 193.42268 244.048184 
L 193.849822 243.6229 
L 193.973736 243.531064 
L 194.049504 243.405884 
L 194.169317 243.273051 
L 195.526818 241.913016 
L 195.636075 241.728799 
L 195.759001 241.58722 
L 195.870012 241.377857 
L 196.023498 241.178881 
L 196.313974 240.883696 
L 196.461725 240.734464 
L 196.660237 240.615297 
L 196.804201 240.473171 
L 197.125938 240.24577 
L 197.314753 239.981744 
L 197.403878 239.845631 
L 197.514131 239.54334 
L 197.734474 239.315392 
L 197.843716 239.184199 
L 197.927861 239.053006 
L 198.038708 238.940398 
L 198.236082 238.766021 
L 198.379409 238.269673 
L 198.596093 238.093109 
L 198.662654 237.966836 
L 198.779759 237.865161 
L 198.894527 237.388493 
L 198.995395 237.202636 
L 199.036279 237.090029 
L 199.144129 236.951182 
L 199.179 236.835842 
L 199.734926 235.587867 
L 199.947762 235.469793 
L 200.061136 235.392171 
L 200.46707 235.264804 
L 200.577026 235.15985 
L 200.728323 235.034123 
L 201.583667 234.122331 
L 201.756337 234.006443 
L 201.94924 233.809654 
L 202.364182 233.425914 
L 202.509875 233.272855 
L 202.635202 233.145488 
L 203.411936 232.627276 
L 203.739029 232.469844 
L 203.848688 232.414087 
L 204.101737 232.273601 
L 204.297178 232.15498 
L 204.571868 231.975683 
L 204.687582 231.862529 
L 204.909558 231.732429 
L 205.544175 231.297852 
L 205.831855 231.143153 
L 205.954905 231.113088 
L 206.342721 230.978069 
L 206.448415 230.913565 
L 206.621151 230.791665 
L 206.738982 230.658832 
L 206.860947 230.57301 
L 207.036008 230.44619 
L 207.201407 230.358728 
L 207.436966 230.181617 
L 207.638831 230.05917 
L 208.03072 229.824116 
L 208.150162 229.746493 
L 208.32279 229.604914 
L 208.465671 229.513625 
L 209.286551 228.857113 
L 209.474043 228.714441 
L 209.586426 228.612219 
L 209.810618 228.484853 
L 209.933238 228.401217 
L 210.385815 228.127351 
L 210.532007 228.006544 
L 210.74435 227.821234 
L 210.86803 227.702614 
L 211.245251 227.405242 
L 211.40199 227.284435 
L 211.683894 227.058127 
L 211.745889 226.917095 
L 212.01005 226.249103 
L 212.1117 226.121736 
L 212.220832 225.35207 
L 212.255983 225.238916 
L 212.371334 223.427904 
L 212.398879 223.314203 
L 212.529569 221.767764 
L 212.6543 220.794749 
L 212.794294 217.487589 
L 212.803647 217.294079 
L 212.963893 208.919584 
L 212.987326 208.806977 
L 213.131085 206.379904 
L 213.189358 206.247071 
L 213.324702 193.763498 
L 215.758546 192.470699 
L 215.871752 192.393076 
L 216.072492 192.276096 
L 216.184746 192.203393 
L 217.196046 191.921328 
L 217.307966 191.836052 
L 217.415487 191.715245 
L 217.529619 191.633796 
L 217.937441 191.271922 
L 218.108393 191.095904 
L 218.580675 190.318038 
L 218.714621 190.085171 
L 219.606632 188.724042 
L 219.722016 188.533812 
L 220.208266 188.038558 
L 220.352443 187.834115 
L 220.486387 187.716588 
L 220.938349 187.147538 
L 221.069024 186.960041 
L 221.304492 186.728266 
L 221.463263 186.545689 
L 221.602197 186.342887 
L 221.736166 186.196934 
L 221.801482 186.081047 
L 221.953166 185.862392 
L 222.098263 185.657402 
L 222.250806 185.383537 
L 222.409145 185.19604 
L 222.757539 184.868604 
L 223.007951 184.741237 
L 223.344603 184.476664 
L 223.520858 184.317593 
L 223.638794 184.087458 
L 223.7544 183.965558 
L 223.928163 183.769315 
L 224.076103 183.593844 
L 224.220609 183.395414 
L 224.405489 183.265861 
L 224.589666 183.029167 
L 224.760274 182.872828 
L 224.988633 182.596229 
L 225.061785 182.465583 
L 225.254986 182.152906 
L 225.371699 182.027179 
L 225.522285 181.841869 
L 225.687316 181.675144 
L 225.903197 181.375587 
L 226.065788 181.255326 
L 226.182405 181.168411 
L 226.376977 181.043777 
L 226.497078 180.93445 
L 226.681395 180.814189 
L 226.984637 180.594988 
L 227.096322 180.535951 
L 227.448384 180.35392 
L 227.582981 180.30035 
L 227.811702 180.163144 
L 227.932796 180.11012 
L 228.278911 179.952141 
L 228.415346 179.846094 
L 228.71047 179.638918 
L 228.831211 179.513191 
L 229.101701 179.301642 
L 229.21394 179.22074 
L 230.672203 178.088652 
L 230.889899 177.924661 
L 231.736566 177.359984 
L 231.931809 177.222231 
L 232.090372 177.162101 
L 232.856864 176.737363 
L 232.979927 176.66138 
L 233.223687 176.522534 
L 233.372026 176.430152 
L 233.569103 176.307159 
L 233.682073 176.253588 
L 233.863334 176.198378 
L 234.243405 176.028373 
L 234.354683 175.96715 
L 234.480349 175.838143 
L 235.348823 175.184364 
L 235.717352 174.909952 
L 235.835055 174.802264 
L 236.137515 174.646473 
L 236.251713 174.57213 
L 236.696738 174.317943 
L 236.810378 174.254533 
L 237.033527 174.129353 
L 237.204648 173.982854 
L 237.679245 173.571782 
L 237.795987 173.476667 
L 238.038408 173.300103 
L 238.184963 173.147044 
L 238.39274 173.020771 
L 239.022004 172.58674 
L 239.562308 172.380658 
L 240.021638 172.254931 
L 240.386278 172.111712 
L 240.5013 172.063608 
L 241.273966 171.693534 
L 241.520022 171.525716 
L 241.640282 171.408189 
L 241.843815 171.26169 
L 241.979636 171.143069 
L 242.092662 171.093325 
L 242.328857 170.957212 
L 242.450177 170.902002 
L 242.655998 170.782835 
L 242.808429 170.725985 
L 243.231784 170.446653 
L 243.385908 170.363017 
L 243.591789 170.246036 
L 243.8277 170.109923 
L 243.967834 169.966704 
L 244.509157 169.545246 
L 244.659298 169.422253 
L 244.832839 169.298166 
L 244.976029 169.191572 
L 245.866733 168.717636 
L 246.131684 168.586443 
L 246.511134 168.40332 
L 246.648712 168.33499 
L 246.90539 168.218556 
L 247.475257 168.016846 
L 247.792765 167.897679 
L 247.905262 167.826616 
L 248.153788 167.704169 
L 248.447459 167.57243 
L 249.536774 167.267952 
L 249.953502 167.126373 
L 250.840146 166.854147 
L 250.98986 166.807683 
L 251.295789 166.685783 
L 251.464723 166.564976 
L 251.752273 166.439796 
L 251.867317 166.391145 
L 252.195337 166.213488 
L 252.661902 165.97078 
L 252.913344 165.851067 
L 253.172593 165.701288 
L 253.310052 165.582667 
L 253.863218 165.267257 
L 254.032875 165.14481 
L 256.002407 163.893556 
L 256.248043 163.765642 
L 256.362783 163.708245 
L 256.823986 163.578692 
L 257.002021 163.512002 
L 257.209449 163.396662 
L 258.231817 162.771308 
L 258.396075 162.694779 
L 258.552995 162.557572 
L 258.698016 162.446605 
L 259.07452 162.245442 
L 261.231034 161.147793 
L 261.614305 161.0084 
L 261.792068 160.911645 
L 266.175014 158.764451 
L 268.552828 157.750984 
L 268.66673 157.671722 
L 268.878586 157.539435 
L 269.004077 157.483132 
L 269.414313 157.197786 
L 269.535235 157.100485 
L 269.781652 156.974758 
L 270.159434 156.680667 
L 270.464231 156.441239 
L 270.770014 156.31114 
L 270.877097 156.228597 
L 271.053908 156.105604 
L 271.171043 156.030714 
L 274.419045 155.971131 
L 280.183507 155.858523 
L 280.287138 155.823538 
L 280.665424 155.702731 
L 280.77953 155.654081 
L 281.210719 155.496649 
L 285.412663 154.478262 
L 285.528306 154.412119 
L 285.662699 154.292952 
L 285.776826 154.189637 
L 285.9675 154.07375 
L 286.103162 153.937091 
L 286.524264 153.6266 
L 286.635374 153.545698 
L 286.845541 153.424344 
L 286.959061 153.293698 
L 287.135912 153.166878 
L 287.258492 153.030765 
L 287.50815 152.818123 
L 287.632853 152.685836 
L 288.299078 152.307016 
L 288.577184 152.099294 
L 288.742483 151.980126 
L 290.517264 150.600412 
L 290.786782 150.476872 
L 290.95071 150.338572 
L 291.156525 150.217219 
L 291.459496 149.937887 
L 291.576422 149.821999 
L 292.068825 149.55032 
L 292.411813 149.262789 
L 292.525602 149.145808 
L 292.938408 148.892168 
L 293.128686 148.739656 
L 293.236992 148.682806 
L 293.423907 148.566919 
L 295.994267 146.830796 
L 296.109295 146.716549 
L 296.323882 146.584262 
L 296.432632 146.512106 
L 296.637709 146.38146 
L 296.74899 146.274865 
L 296.959784 146.135473 
L 297.07046 146.009199 
L 297.246674 145.893859 
L 298.744108 145.016505 
L 298.917337 144.897884 
L 299.025211 144.807689 
L 299.238326 144.683602 
L 299.343701 144.619645 
L 299.555319 144.500478 
L 299.707243 144.351793 
L 299.874692 144.236452 
L 300.019392 144.112365 
L 300.575124 143.758144 
L 300.698635 143.711133 
L 300.853871 143.583766 
L 300.980417 143.524183 
L 301.21942 143.384243 
L 301.391729 143.300061 
L 301.731966 143.112564 
L 301.850195 143.037675 
L 302.067288 142.887349 
L 302.200709 142.707505 
L 302.392796 142.562646 
L 302.533025 142.36367 
L 302.674107 142.243956 
L 302.761917 142.129162 
L 302.880677 141.995783 
L 304.177284 140.952251 
L 304.29203 140.837457 
L 304.411259 140.720476 
L 304.674994 140.530246 
L 305.394152 139.787912 
L 305.508012 139.663278 
L 305.699686 139.526072 
L 305.882584 139.338029 
L 306.022188 139.218315 
L 306.535808 138.795217 
L 306.636406 138.673863 
L 306.783919 138.500579 
L 306.994713 138.355173 
L 307.109296 138.263338 
L 307.301106 138.200475 
L 307.830874 137.950115 
L 310.652115 135.572239 
L 310.80131 135.476578 
L 311.108672 135.23715 
L 311.243398 135.062226 
L 312.008279 134.336837 
L 312.140006 134.22095 
L 312.595366 133.863449 
L 312.751341 133.743735 
L 312.86839 133.627301 
L 313.000912 133.539292 
L 313.203508 133.393887 
L 313.933263 132.786572 
L 314.130342 132.667951 
L 314.248824 132.543864 
L 314.80639 132.116394 
L 314.961686 132.016905 
L 315.08344 131.885166 
L 315.19434 131.768732 
L 315.472122 131.605834 
L 315.650133 131.47956 
L 315.779734 131.333061 
L 315.896433 131.247786 
L 316.054654 131.126979 
L 316.236065 131.041157 
L 316.426782 130.894658 
L 316.542396 130.805556 
L 316.716167 130.684749 
L 316.907088 130.577061 
L 317.021299 130.449148 
L 317.135456 130.343646 
L 317.342369 130.225026 
L 317.742089 129.989972 
L 317.963757 129.869165 
L 318.084971 129.803021 
L 318.221504 129.780063 
L 318.418114 129.601312 
L 318.537974 129.555941 
L 318.649127 129.407255 
L 318.783988 129.319793 
L 318.965384 129.203359 
L 319.102147 129.091299 
L 319.306871 128.951359 
L 323.448647 125.5059 
L 323.595321 125.279592 
L 323.823791 125.094828 
L 324.000886 125.016659 
L 324.758826 124.695782 
L 324.975319 124.518671 
L 325.107698 124.400598 
L 325.211462 124.245352 
L 325.32125 124.205995 
L 325.445827 124.090107 
L 325.581569 123.929396 
L 325.722418 123.755018 
L 325.850034 123.557682 
L 326.191218 123.240085 
L 326.318418 123.168476 
L 327.812042 121.567919 
L 327.995543 121.417594 
L 328.304487 121.150835 
L 328.439421 121.020735 
L 335.108722 116.600073 
L 335.434354 116.396177 
L 335.620702 116.264984 
L 335.783162 116.14527 
L 335.896195 116.000411 
L 336.046612 115.917869 
L 336.159481 115.801981 
L 336.278103 115.676801 
L 336.3942 115.560367 
L 336.50736 115.415508 
L 336.712913 115.297434 
L 336.949854 115.091899 
L 337.083123 114.949773 
L 337.236138 114.796714 
L 337.654807 114.417347 
L 337.861802 114.248983 
L 338.072384 114.123256 
L 338.217664 114.018848 
L 338.393274 113.900228 
L 341.090167 111.805511 
L 341.531589 111.656279 
L 341.678855 111.472062 
L 342.035941 111.183983 
L 342.149528 111.140252 
L 342.261686 111.022178 
L 342.474272 110.905745 
L 342.636905 110.783298 
L 342.746987 110.719341 
L 342.957505 110.565189 
L 343.185645 110.390265 
L 343.333826 110.202768 
L 343.549857 110.048069 
L 343.776333 109.888451 
L 343.902454 109.765458 
L 344.329263 109.413423 
L 344.525627 109.281683 
L 344.641047 109.146117 
L 344.75624 109.024763 
L 344.874132 108.814307 
L 345.002317 108.699513 
L 345.128341 108.584719 
L 345.273836 108.406515 
L 345.460154 108.260563 
L 345.836011 107.916728 
L 345.970386 107.863157 
L 346.231959 107.727044 
L 346.342584 107.667461 
L 346.760554 107.364623 
L 346.941141 107.261309 
L 347.128635 107.123009 
L 348.471733 106.211764 
L 348.634466 106.114462 
L 348.786794 105.950471 
L 348.9418 105.835677 
L 349.078908 105.71815 
L 349.202489 105.634514 
L 349.658733 105.348076 
L 349.776868 105.217976 
L 349.977437 105.096622 
L 350.299251 104.887806 
L 350.420793 104.800344 
L 350.602238 104.680631 
L 350.740837 104.551624 
L 351.156534 104.275025 
L 351.410179 104.155858 
L 352.359808 103.649671 
L 352.48252 103.54909 
L 352.624011 103.382912 
L 352.739346 103.253905 
L 352.906683 103.129272 
L 353.041475 103.003545 
L 353.238333 102.866339 
L 353.562438 102.567328 
L 353.712094 102.461827 
L 353.911046 102.34266 
L 354.07126 102.170469 
L 354.197797 102.02069 
L 354.30643 101.885124 
L 354.47754 101.766503 
L 354.622876 101.586659 
L 354.904215 101.393696 
L 355.026536 101.324273 
L 355.213468 101.175587 
L 355.343177 101.047674 
L 355.553465 100.908828 
L 355.71595 100.791301 
L 355.8346 100.706025 
L 355.99082 100.583578 
L 356.224394 100.329938 
L 356.568127 100.044047 
L 356.737702 99.92324 
L 356.847837 99.815005 
L 357.052864 99.692012 
L 357.165546 99.561365 
L 357.95742 99.089617 
L 358.353075 98.95897 
L 358.461829 98.89556 
L 358.597833 98.779126 
L 358.724595 98.682371 
L 361.598035 96.28591 
L 361.821866 96.090214 
L 362.009491 95.939342 
L 362.281246 95.734352 
L 363.952339 94.666768 
L 364.053806 94.58204 
L 364.224414 94.466152 
L 364.337714 94.391809 
L 364.513276 94.272096 
L 365.135509 93.868677 
L 365.508058 93.642369 
L 365.624492 93.539601 
L 365.750618 93.480564 
L 365.878536 93.36741 
L 366.049512 93.23239 
L 366.210044 93.109943 
L 368.950293 91.541639 
L 369.212097 91.423018 
L 369.449568 91.26504 
L 369.59256 91.171565 
L 369.815186 91.042558 
L 370.091167 90.791105 
L 370.203847 90.693803 
L 370.375294 90.556597 
L 370.521669 90.381673 
L 370.974688 89.997933 
L 371.084065 89.906098 
L 371.300101 89.753586 
L 372.204729 89.044596 
L 372.406707 88.898644 
L 372.517826 88.811182 
L 372.66904 88.692561 
L 372.78014 88.501238 
L 372.882989 88.461333 
L 372.967625 88.347086 
L 373.114284 88.137724 
L 373.281429 88.01801 
L 373.499292 87.792795 
L 373.649668 87.656682 
L 373.783472 87.550634 
L 374.013821 87.387736 
L 374.294736 87.124803 
L 374.694429 86.861324 
L 375.075478 86.720291 
L 375.342801 86.458998 
L 375.456208 86.334911 
L 375.652434 86.111337 
L 376.003272 85.85879 
L 376.351813 85.577271 
L 376.532834 85.460291 
L 376.642739 85.360803 
L 376.88344 85.142694 
L 377.022331 85.023527 
L 377.157004 84.90436 
L 378.080407 84.092056 
L 378.422873 83.871214 
L 378.624476 83.69957 
L 378.817555 83.567283 
L 381.695543 81.088826 
L 381.806608 80.886024 
L 382.007805 80.585919 
L 382.118491 80.354145 
L 382.392869 79.974778 
L 382.502883 79.727698 
L 382.631525 79.609624 
L 382.731357 79.412834 
L 382.793118 79.299133 
L 382.987003 79.081025 
L 383.097545 78.898448 
L 383.209986 78.749215 
L 383.321091 78.590144 
L 383.50801 78.397727 
L 383.629299 78.265987 
L 383.775428 78.077397 
L 383.881752 77.980642 
L 383.966389 77.862569 
L 384.076135 77.717163 
L 384.275906 77.575037 
L 384.386415 77.357475 
L 384.701066 76.957883 
L 384.956145 76.55993 
L 385.035792 76.43967 
L 385.133075 76.318863 
L 385.223495 76.204615 
L 385.334084 75.991973 
L 385.433059 75.813769 
L 385.54287 75.525691 
L 385.584275 75.391765 
L 385.688687 75.157257 
L 385.766118 75.040276 
L 385.876625 74.778983 
L 385.938714 74.648884 
L 386.037523 74.496372 
L 386.151996 74.346593 
L 386.223089 74.231799 
L 386.33404 73.94536 
L 386.458851 73.827833 
L 386.582761 73.534835 
L 386.715615 72.99421 
L 386.77872 72.869577 
L 386.910656 72.573846 
L 386.936106 72.451399 
L 387.042869 72.203225 
L 387.10434 72.086791 
L 387.388355 71.301819 
L 387.473354 71.154227 
L 387.582517 70.778686 
L 387.617798 70.654053 
L 387.727965 70.420638 
L 387.805313 70.290539 
L 387.916307 69.953263 
L 387.951582 69.82207 
L 388.069057 69.637306 
L 388.12381 69.521965 
L 389.033597 66.518189 
L 389.139293 66.393009 
L 389.24836 66.156862 
L 389.286273 66.043161 
L 389.411785 65.87589 
L 389.522433 65.506362 
L 389.601494 65.296453 
L 389.710573 65.052653 
L 389.745747 64.939499 
L 389.856249 64.617529 
L 389.970893 64.408167 
L 390.079846 64.154527 
L 390.119444 64.039186 
L 390.22753 63.655993 
L 390.260564 63.539559 
L 390.371585 63.439524 
L 390.401359 63.317077 
L 390.512257 62.956843 
L 390.679565 62.543038 
L 390.790439 62.116113 
L 390.861233 61.832955 
L 390.971512 61.66787 
L 391.045308 61.533944 
L 391.113316 61.34426 
L 391.452415 60.630351 
L 391.559132 60.459253 
L 391.691053 60.33954 
L 391.799411 60.187028 
L 391.895459 60.060208 
L 392.006204 59.918082 
L 395.189967 55.526392 
L 395.256372 55.408318 
L 395.365471 55.267285 
L 395.510798 55.121333 
L 395.647301 54.977567 
L 395.84118 54.831615 
L 395.945674 54.714088 
L 396.058246 54.625532 
L 398.370118 52.207206 
L 398.487273 52.154182 
L 398.487273 52.154182 
" clip-path="url(#p060f1a217e)" style="fill: none; stroke: #ff7f0e; stroke-width: 1.5; stroke-linecap: square"/>
   </g>
   <g id="patch_3">
    <path d="M 57.6 276.48 
L 57.6 41.472 
" style="fill: none; stroke: #000000; stroke-width: 0.8; stroke-linejoin: miter; stroke-linecap: square"/>
   </g>
   <g id="patch_4">
    <path d="M 414.72 276.48 
L 414.72 41.472 
" style="fill: none; stroke: #000000; stroke-width: 0.8; stroke-linejoin: miter; stroke-linecap: square"/>
   </g>
   <g id="patch_5">
    <path d="M 57.6 276.48 
L 414.72 276.48 
" style="fill: none; stroke: #000000; stroke-width: 0.8; stroke-linejoin: miter; stroke-linecap: square"/>
   </g>
   <g id="patch_6">
    <path d="M 57.6 41.472 
L 414.72 41.472 
" style="fill: none; stroke: #000000; stroke-width: 0.8; stroke-linejoin: miter; stroke-linecap: square"/>
   </g>
   <g id="legend_1">
    <g id="patch_7">
     <path d="M 64.6 78.82825 
L 158.803125 78.82825 
Q 160.803125 78.82825 160.803125 76.82825 
L 160.803125 48.472 
Q 160.803125 46.472 158.803125 46.472 
L 64.6 46.472 
Q 62.6 46.472 62.6 48.472 
L 62.6 76.82825 
Q 62.6 78.82825 64.6 78.82825 
z
" style="fill: #ffffff; opacity: 0.8; stroke: #cccccc; stroke-linejoin: miter"/>
    </g>
    <g id="line2d_18">
     <path d="M 66.6 54.570437 
L 76.6 54.570437 
L 86.6 54.570437 
" style="fill: none; stroke: #1f77b4; stroke-width: 1.5; stroke-linecap: square"/>
    </g>
    <g id="text_16">
     <!-- # addresses -->
     <g transform="translate(94.6 58.070437) scale(0.1 -0.1)">
      <defs>
       <path id="DejaVuSans-23" d="M 3272 2816 
L 2363 2816 
L 2100 1772 
L 3016 1772 
L 3272 2816 
z
M 2803 4594 
L 2478 3297 
L 3391 3297 
L 3719 4594 
L 4219 4594 
L 3897 3297 
L 4872 3297 
L 4872 2816 
L 3775 2816 
L 3519 1772 
L 4513 1772 
L 4513 1294 
L 3397 1294 
L 3072 0 
L 2572 0 
L 2894 1294 
L 1978 1294 
L 1656 0 
L 1153 0 
L 1478 1294 
L 494 1294 
L 494 1772 
L 1594 1772 
L 1856 2816 
L 850 2816 
L 850 3297 
L 1978 3297 
L 2297 4594 
L 2803 4594 
z
" transform="scale(0.015625)"/>
       <path id="DejaVuSans-20" transform="scale(0.015625)"/>
       <path id="DejaVuSans-61" d="M 2194 1759 
Q 1497 1759 1228 1600 
Q 959 1441 959 1056 
Q 959 750 1161 570 
Q 1363 391 1709 391 
Q 2188 391 2477 730 
Q 2766 1069 2766 1631 
L 2766 1759 
L 2194 1759 
z
M 3341 1997 
L 3341 0 
L 2766 0 
L 2766 531 
Q 2569 213 2275 61 
Q 1981 -91 1556 -91 
Q 1019 -91 701 211 
Q 384 513 384 1019 
Q 384 1609 779 1909 
Q 1175 2209 1959 2209 
L 2766 2209 
L 2766 2266 
Q 2766 2663 2505 2880 
Q 2244 3097 1772 3097 
Q 1472 3097 1187 3025 
Q 903 2953 641 2809 
L 641 3341 
Q 956 3463 1253 3523 
Q 1550 3584 1831 3584 
Q 2591 3584 2966 3190 
Q 3341 2797 3341 1997 
z
" transform="scale(0.015625)"/>
       <path id="DejaVuSans-64" d="M 2906 2969 
L 2906 4863 
L 3481 4863 
L 3481 0 
L 2906 0 
L 2906 525 
Q 2725 213 2448 61 
Q 2172 -91 1784 -91 
Q 1150 -91 751 415 
Q 353 922 353 1747 
Q 353 2572 751 3078 
Q 1150 3584 1784 3584 
Q 2172 3584 2448 3432 
Q 2725 3281 2906 2969 
z
M 947 1747 
Q 947 1113 1208 752 
Q 1469 391 1925 391 
Q 2381 391 2643 752 
Q 2906 1113 2906 1747 
Q 2906 2381 2643 2742 
Q 2381 3103 1925 3103 
Q 1469 3103 1208 2742 
Q 947 2381 947 1747 
z
" transform="scale(0.015625)"/>
       <path id="DejaVuSans-72" d="M 2631 2963 
Q 2534 3019 2420 3045 
Q 2306 3072 2169 3072 
Q 1681 3072 1420 2755 
Q 1159 2438 1159 1844 
L 1159 0 
L 581 0 
L 581 3500 
L 1159 3500 
L 1159 2956 
Q 1341 3275 1631 3429 
Q 1922 3584 2338 3584 
Q 2397 3584 2469 3576 
Q 2541 3569 2628 3553 
L 2631 2963 
z
" transform="scale(0.015625)"/>
       <path id="DejaVuSans-65" d="M 3597 1894 
L 3597 1613 
L 953 1613 
Q 991 1019 1311 708 
Q 1631 397 2203 397 
Q 2534 397 2845 478 
Q 3156 559 3463 722 
L 3463 178 
Q 3153 47 2828 -22 
Q 2503 -91 2169 -91 
Q 1331 -91 842 396 
Q 353 884 353 1716 
Q 353 2575 817 3079 
Q 1281 3584 2069 3584 
Q 2775 3584 3186 3129 
Q 3597 2675 3597 1894 
z
M 3022 2063 
Q 3016 2534 2758 2815 
Q 2500 3097 2075 3097 
Q 1594 3097 1305 2825 
Q 1016 2553 972 2059 
L 3022 2063 
z
" transform="scale(0.015625)"/>
       <path id="DejaVuSans-73" d="M 2834 3397 
L 2834 2853 
Q 2591 2978 2328 3040 
Q 2066 3103 1784 3103 
Q 1356 3103 1142 2972 
Q 928 2841 928 2578 
Q 928 2378 1081 2264 
Q 1234 2150 1697 2047 
L 1894 2003 
Q 2506 1872 2764 1633 
Q 3022 1394 3022 966 
Q 3022 478 2636 193 
Q 2250 -91 1575 -91 
Q 1294 -91 989 -36 
Q 684 19 347 128 
L 347 722 
Q 666 556 975 473 
Q 1284 391 1588 391 
Q 1994 391 2212 530 
Q 2431 669 2431 922 
Q 2431 1156 2273 1281 
Q 2116 1406 1581 1522 
L 1381 1569 
Q 847 1681 609 1914 
Q 372 2147 372 2553 
Q 372 3047 722 3315 
Q 1072 3584 1716 3584 
Q 2034 3584 2315 3537 
Q 2597 3491 2834 3397 
z
" transform="scale(0.015625)"/>
      </defs>
      <use xlink:href="#DejaVuSans-23"/>
      <use xlink:href="#DejaVuSans-20" x="83.789062"/>
      <use xlink:href="#DejaVuSans-61" x="115.576172"/>
      <use xlink:href="#DejaVuSans-64" x="176.855469"/>
      <use xlink:href="#DejaVuSans-64" x="240.332031"/>
      <use xlink:href="#DejaVuSans-72" x="303.808594"/>
      <use xlink:href="#DejaVuSans-65" x="342.671875"/>
      <use xlink:href="#DejaVuSans-73" x="404.195312"/>
      <use xlink:href="#DejaVuSans-73" x="456.294922"/>
      <use xlink:href="#DejaVuSans-65" x="508.394531"/>
      <use xlink:href="#DejaVuSans-73" x="569.917969"/>
     </g>
    </g>
    <g id="line2d_19">
     <path d="M 66.6 69.248562 
L 76.6 69.248562 
L 86.6 69.248562 
" style="fill: none; stroke: #ff7f0e; stroke-width: 1.5; stroke-linecap: square"/>
    </g>
    <g id="text_17">
     <!-- # emails -->
     <g transform="translate(94.6 72.748562) scale(0.1 -0.1)">
      <defs>
       <path id="DejaVuSans-6d" d="M 3328 2828 
Q 3544 3216 3844 3400 
Q 4144 3584 4550 3584 
Q 5097 3584 5394 3201 
Q 5691 2819 5691 2113 
L 5691 0 
L 5113 0 
L 5113 2094 
Q 5113 2597 4934 2840 
Q 4756 3084 4391 3084 
Q 3944 3084 3684 2787 
Q 3425 2491 3425 1978 
L 3425 0 
L 2847 0 
L 2847 2094 
Q 2847 2600 2669 2842 
Q 2491 3084 2119 3084 
Q 1678 3084 1418 2786 
Q 1159 2488 1159 1978 
L 1159 0 
L 581 0 
L 581 3500 
L 1159 3500 
L 1159 2956 
Q 1356 3278 1631 3431 
Q 1906 3584 2284 3584 
Q 2666 3584 2933 3390 
Q 3200 3197 3328 2828 
z
" transform="scale(0.015625)"/>
       <path id="DejaVuSans-69" d="M 603 3500 
L 1178 3500 
L 1178 0 
L 603 0 
L 603 3500 
z
M 603 4863 
L 1178 4863 
L 1178 4134 
L 603 4134 
L 603 4863 
z
" transform="scale(0.015625)"/>
       <path id="DejaVuSans-6c" d="M 603 4863 
L 1178 4863 
L 1178 0 
L 603 0 
L 603 4863 
z
" transform="scale(0.015625)"/>
      </defs>
      <use xlink:href="#DejaVuSans-23"/>
      <use xlink:href="#DejaVuSans-20" x="83.789062"/>
      <use xlink:href="#DejaVuSans-65" x="115.576172"/>
      <use xlink:href="#DejaVuSans-6d" x="177.099609"/>
      <use xlink:href="#DejaVuSans-61" x="274.511719"/>
      <use xlink:href="#DejaVuSans-69" x="335.791016"/>
      <use xlink:href="#DejaVuSans-6c" x="363.574219"/>
      <use xlink:href="#DejaVuSans-73" x="391.357422"/>
     </g>
    </g>
   </g>
  </g>
 </g>
 <defs>
  <clipPath id="p060f1a217e">
   <rect x="57.6" y="41.472" width="357.12" height="235.008"/>
  </clipPath>
 </defs>
</svg>
