<?xml version="1.0" encoding="utf-8" standalone="no"?>
<!DOCTYPE svg PUBLIC "-//W3C//DTD SVG 1.1//EN"
  "http://www.w3.org/Graphics/SVG/1.1/DTD/svg11.dtd">
<svg xmlns:xlink="http://www.w3.org/1999/xlink" width="460.8pt" height="345.6pt" viewBox="0 0 460.8 345.6" xmlns="http://www.w3.org/2000/svg" version="1.1">
 <metadata>
  <rdf:RDF xmlns:dc="http://purl.org/dc/elements/1.1/" xmlns:cc="http://creativecommons.org/ns#" xmlns:rdf="http://www.w3.org/1999/02/22-rdf-syntax-ns#">
   <cc:Work>
    <dc:type rdf:resource="http://purl.org/dc/dcmitype/StillImage"/>
    <dc:date>2023-05-19T09:43:52.392913</dc:date>
    <dc:format>image/svg+xml</dc:format>
    <dc:creator>
     <cc:Agent>
      <dc:title>Matplotlib v3.6.3, https://matplotlib.org/</dc:title>
     </cc:Agent>
    </dc:creator>
   </cc:Work>
  </rdf:RDF>
 </metadata>
 <defs>
  <style type="text/css">*{stroke-linejoin: round; stroke-linecap: butt}</style>
 </defs>
 <g id="figure_1">
  <g id="patch_1">
   <path d="M 0 345.6 
L 460.8 345.6 
L 460.8 0 
L 0 0 
z
" style="fill: #ffffff"/>
  </g>
  <g id="axes_1">
   <g id="patch_2">
    <path d="M 57.6 276.48 
L 414.72 276.48 
L 414.72 41.472 
L 57.6 41.472 
z
" style="fill: #ffffff"/>
   </g>
   <g id="matplotlib.axis_1">
    <g id="xtick_1">
     <g id="line2d_1">
      <defs>
       <path id="m903655e578" d="M 0 0 
L 0 3.5 
" style="stroke: #000000; stroke-width: 0.8"/>
      </defs>
      <g>
       <use xlink:href="#m903655e578" x="71.142779" y="276.48" style="stroke: #000000; stroke-width: 0.8"/>
      </g>
     </g>
     <g id="text_1">
      <!-- 2004 -->
      <g transform="translate(48.062589 302.78544) rotate(-30) scale(0.1 -0.1)">
       <defs>
        <path id="DejaVuSans-32" d="M 1228 531 
L 3431 531 
L 3431 0 
L 469 0 
L 469 531 
Q 828 903 1448 1529 
Q 2069 2156 2228 2338 
Q 2531 2678 2651 2914 
Q 2772 3150 2772 3378 
Q 2772 3750 2511 3984 
Q 2250 4219 1831 4219 
Q 1534 4219 1204 4116 
Q 875 4013 500 3803 
L 500 4441 
Q 881 4594 1212 4672 
Q 1544 4750 1819 4750 
Q 2544 4750 2975 4387 
Q 3406 4025 3406 3419 
Q 3406 3131 3298 2873 
Q 3191 2616 2906 2266 
Q 2828 2175 2409 1742 
Q 1991 1309 1228 531 
z
" transform="scale(0.015625)"/>
        <path id="DejaVuSans-30" d="M 2034 4250 
Q 1547 4250 1301 3770 
Q 1056 3291 1056 2328 
Q 1056 1369 1301 889 
Q 1547 409 2034 409 
Q 2525 409 2770 889 
Q 3016 1369 3016 2328 
Q 3016 3291 2770 3770 
Q 2525 4250 2034 4250 
z
M 2034 4750 
Q 2819 4750 3233 4129 
Q 3647 3509 3647 2328 
Q 3647 1150 3233 529 
Q 2819 -91 2034 -91 
Q 1250 -91 836 529 
Q 422 1150 422 2328 
Q 422 3509 836 4129 
Q 1250 4750 2034 4750 
z
" transform="scale(0.015625)"/>
        <path id="DejaVuSans-34" d="M 2419 4116 
L 825 1625 
L 2419 1625 
L 2419 4116 
z
M 2253 4666 
L 3047 4666 
L 3047 1625 
L 3713 1625 
L 3713 1100 
L 3047 1100 
L 3047 0 
L 2419 0 
L 2419 1100 
L 313 1100 
L 313 1709 
L 2253 4666 
z
" transform="scale(0.015625)"/>
       </defs>
       <use xlink:href="#DejaVuSans-32"/>
       <use xlink:href="#DejaVuSans-30" x="63.623047"/>
       <use xlink:href="#DejaVuSans-30" x="127.246094"/>
       <use xlink:href="#DejaVuSans-34" x="190.869141"/>
      </g>
     </g>
    </g>
    <g id="xtick_2">
     <g id="line2d_2">
      <g>
       <use xlink:href="#m903655e578" x="138.712218" y="276.48" style="stroke: #000000; stroke-width: 0.8"/>
      </g>
     </g>
     <g id="text_2">
      <!-- 2008 -->
      <g transform="translate(115.632027 302.78544) rotate(-30) scale(0.1 -0.1)">
       <defs>
        <path id="DejaVuSans-38" d="M 2034 2216 
Q 1584 2216 1326 1975 
Q 1069 1734 1069 1313 
Q 1069 891 1326 650 
Q 1584 409 2034 409 
Q 2484 409 2743 651 
Q 3003 894 3003 1313 
Q 3003 1734 2745 1975 
Q 2488 2216 2034 2216 
z
M 1403 2484 
Q 997 2584 770 2862 
Q 544 3141 544 3541 
Q 544 4100 942 4425 
Q 1341 4750 2034 4750 
Q 2731 4750 3128 4425 
Q 3525 4100 3525 3541 
Q 3525 3141 3298 2862 
Q 3072 2584 2669 2484 
Q 3125 2378 3379 2068 
Q 3634 1759 3634 1313 
Q 3634 634 3220 271 
Q 2806 -91 2034 -91 
Q 1263 -91 848 271 
Q 434 634 434 1313 
Q 434 1759 690 2068 
Q 947 2378 1403 2484 
z
M 1172 3481 
Q 1172 3119 1398 2916 
Q 1625 2713 2034 2713 
Q 2441 2713 2670 2916 
Q 2900 3119 2900 3481 
Q 2900 3844 2670 4047 
Q 2441 4250 2034 4250 
Q 1625 4250 1398 4047 
Q 1172 3844 1172 3481 
z
" transform="scale(0.015625)"/>
       </defs>
       <use xlink:href="#DejaVuSans-32"/>
       <use xlink:href="#DejaVuSans-30" x="63.623047"/>
       <use xlink:href="#DejaVuSans-30" x="127.246094"/>
       <use xlink:href="#DejaVuSans-38" x="190.869141"/>
      </g>
     </g>
    </g>
    <g id="xtick_3">
     <g id="line2d_3">
      <g>
       <use xlink:href="#m903655e578" x="206.281656" y="276.48" style="stroke: #000000; stroke-width: 0.8"/>
      </g>
     </g>
     <g id="text_3">
      <!-- 2012 -->
      <g transform="translate(183.201466 302.78544) rotate(-30) scale(0.1 -0.1)">
       <defs>
        <path id="DejaVuSans-31" d="M 794 531 
L 1825 531 
L 1825 4091 
L 703 3866 
L 703 4441 
L 1819 4666 
L 2450 4666 
L 2450 531 
L 3481 531 
L 3481 0 
L 794 0 
L 794 531 
z
" transform="scale(0.015625)"/>
       </defs>
       <use xlink:href="#DejaVuSans-32"/>
       <use xlink:href="#DejaVuSans-30" x="63.623047"/>
       <use xlink:href="#DejaVuSans-31" x="127.246094"/>
       <use xlink:href="#DejaVuSans-32" x="190.869141"/>
      </g>
     </g>
    </g>
    <g id="xtick_4">
     <g id="line2d_4">
      <g>
       <use xlink:href="#m903655e578" x="273.851095" y="276.48" style="stroke: #000000; stroke-width: 0.8"/>
      </g>
     </g>
     <g id="text_4">
      <!-- 2016 -->
      <g transform="translate(250.770905 302.78544) rotate(-30) scale(0.1 -0.1)">
       <defs>
        <path id="DejaVuSans-36" d="M 2113 2584 
Q 1688 2584 1439 2293 
Q 1191 2003 1191 1497 
Q 1191 994 1439 701 
Q 1688 409 2113 409 
Q 2538 409 2786 701 
Q 3034 994 3034 1497 
Q 3034 2003 2786 2293 
Q 2538 2584 2113 2584 
z
M 3366 4563 
L 3366 3988 
Q 3128 4100 2886 4159 
Q 2644 4219 2406 4219 
Q 1781 4219 1451 3797 
Q 1122 3375 1075 2522 
Q 1259 2794 1537 2939 
Q 1816 3084 2150 3084 
Q 2853 3084 3261 2657 
Q 3669 2231 3669 1497 
Q 3669 778 3244 343 
Q 2819 -91 2113 -91 
Q 1303 -91 875 529 
Q 447 1150 447 2328 
Q 447 3434 972 4092 
Q 1497 4750 2381 4750 
Q 2619 4750 2861 4703 
Q 3103 4656 3366 4563 
z
" transform="scale(0.015625)"/>
       </defs>
       <use xlink:href="#DejaVuSans-32"/>
       <use xlink:href="#DejaVuSans-30" x="63.623047"/>
       <use xlink:href="#DejaVuSans-31" x="127.246094"/>
       <use xlink:href="#DejaVuSans-36" x="190.869141"/>
      </g>
     </g>
    </g>
    <g id="xtick_5">
     <g id="line2d_5">
      <g>
       <use xlink:href="#m903655e578" x="341.420534" y="276.48" style="stroke: #000000; stroke-width: 0.8"/>
      </g>
     </g>
     <g id="text_5">
      <!-- 2020 -->
      <g transform="translate(318.340343 302.78544) rotate(-30) scale(0.1 -0.1)">
       <use xlink:href="#DejaVuSans-32"/>
       <use xlink:href="#DejaVuSans-30" x="63.623047"/>
       <use xlink:href="#DejaVuSans-32" x="127.246094"/>
       <use xlink:href="#DejaVuSans-30" x="190.869141"/>
      </g>
     </g>
    </g>
    <g id="xtick_6">
     <g id="line2d_6">
      <g>
       <use xlink:href="#m903655e578" x="408.989972" y="276.48" style="stroke: #000000; stroke-width: 0.8"/>
      </g>
     </g>
     <g id="text_6">
      <!-- 2024 -->
      <g transform="translate(385.909782 302.78544) rotate(-30) scale(0.1 -0.1)">
       <use xlink:href="#DejaVuSans-32"/>
       <use xlink:href="#DejaVuSans-30" x="63.623047"/>
       <use xlink:href="#DejaVuSans-32" x="127.246094"/>
       <use xlink:href="#DejaVuSans-34" x="190.869141"/>
      </g>
     </g>
    </g>
   </g>
   <g id="matplotlib.axis_2">
    <g id="ytick_1">
     <g id="line2d_7">
      <defs>
       <path id="m49862be737" d="M 0 0 
L -3.5 0 
" style="stroke: #000000; stroke-width: 0.8"/>
      </defs>
      <g>
       <use xlink:href="#m49862be737" x="57.6" y="265.798353" style="stroke: #000000; stroke-width: 0.8"/>
      </g>
     </g>
     <g id="text_7">
      <!-- 0 -->
      <g transform="translate(44.2375 269.597572) scale(0.1 -0.1)">
       <use xlink:href="#DejaVuSans-30"/>
      </g>
     </g>
    </g>
    <g id="ytick_2">
     <g id="line2d_8">
      <g>
       <use xlink:href="#m49862be737" x="57.6" y="239.044675" style="stroke: #000000; stroke-width: 0.8"/>
      </g>
     </g>
     <g id="text_8">
      <!-- 50000 -->
      <g transform="translate(18.7875 242.843894) scale(0.1 -0.1)">
       <defs>
        <path id="DejaVuSans-35" d="M 691 4666 
L 3169 4666 
L 3169 4134 
L 1269 4134 
L 1269 2991 
Q 1406 3038 1543 3061 
Q 1681 3084 1819 3084 
Q 2600 3084 3056 2656 
Q 3513 2228 3513 1497 
Q 3513 744 3044 326 
Q 2575 -91 1722 -91 
Q 1428 -91 1123 -41 
Q 819 9 494 109 
L 494 744 
Q 775 591 1075 516 
Q 1375 441 1709 441 
Q 2250 441 2565 725 
Q 2881 1009 2881 1497 
Q 2881 1984 2565 2268 
Q 2250 2553 1709 2553 
Q 1456 2553 1204 2497 
Q 953 2441 691 2322 
L 691 4666 
z
" transform="scale(0.015625)"/>
       </defs>
       <use xlink:href="#DejaVuSans-35"/>
       <use xlink:href="#DejaVuSans-30" x="63.623047"/>
       <use xlink:href="#DejaVuSans-30" x="127.246094"/>
       <use xlink:href="#DejaVuSans-30" x="190.869141"/>
       <use xlink:href="#DejaVuSans-30" x="254.492188"/>
      </g>
     </g>
    </g>
    <g id="ytick_3">
     <g id="line2d_9">
      <g>
       <use xlink:href="#m49862be737" x="57.6" y="212.290997" style="stroke: #000000; stroke-width: 0.8"/>
      </g>
     </g>
     <g id="text_9">
      <!-- 100000 -->
      <g transform="translate(12.425 216.090216) scale(0.1 -0.1)">
       <use xlink:href="#DejaVuSans-31"/>
       <use xlink:href="#DejaVuSans-30" x="63.623047"/>
       <use xlink:href="#DejaVuSans-30" x="127.246094"/>
       <use xlink:href="#DejaVuSans-30" x="190.869141"/>
       <use xlink:href="#DejaVuSans-30" x="254.492188"/>
       <use xlink:href="#DejaVuSans-30" x="318.115234"/>
      </g>
     </g>
    </g>
    <g id="ytick_4">
     <g id="line2d_10">
      <g>
       <use xlink:href="#m49862be737" x="57.6" y="185.537319" style="stroke: #000000; stroke-width: 0.8"/>
      </g>
     </g>
     <g id="text_10">
      <!-- 150000 -->
      <g transform="translate(12.425 189.336538) scale(0.1 -0.1)">
       <use xlink:href="#DejaVuSans-31"/>
       <use xlink:href="#DejaVuSans-35" x="63.623047"/>
       <use xlink:href="#DejaVuSans-30" x="127.246094"/>
       <use xlink:href="#DejaVuSans-30" x="190.869141"/>
       <use xlink:href="#DejaVuSans-30" x="254.492188"/>
       <use xlink:href="#DejaVuSans-30" x="318.115234"/>
      </g>
     </g>
    </g>
    <g id="ytick_5">
     <g id="line2d_11">
      <g>
       <use xlink:href="#m49862be737" x="57.6" y="158.783641" style="stroke: #000000; stroke-width: 0.8"/>
      </g>
     </g>
     <g id="text_11">
      <!-- 200000 -->
      <g transform="translate(12.425 162.58286) scale(0.1 -0.1)">
       <use xlink:href="#DejaVuSans-32"/>
       <use xlink:href="#DejaVuSans-30" x="63.623047"/>
       <use xlink:href="#DejaVuSans-30" x="127.246094"/>
       <use xlink:href="#DejaVuSans-30" x="190.869141"/>
       <use xlink:href="#DejaVuSans-30" x="254.492188"/>
       <use xlink:href="#DejaVuSans-30" x="318.115234"/>
      </g>
     </g>
    </g>
    <g id="ytick_6">
     <g id="line2d_12">
      <g>
       <use xlink:href="#m49862be737" x="57.6" y="132.029963" style="stroke: #000000; stroke-width: 0.8"/>
      </g>
     </g>
     <g id="text_12">
      <!-- 250000 -->
      <g transform="translate(12.425 135.829182) scale(0.1 -0.1)">
       <use xlink:href="#DejaVuSans-32"/>
       <use xlink:href="#DejaVuSans-35" x="63.623047"/>
       <use xlink:href="#DejaVuSans-30" x="127.246094"/>
       <use xlink:href="#DejaVuSans-30" x="190.869141"/>
       <use xlink:href="#DejaVuSans-30" x="254.492188"/>
       <use xlink:href="#DejaVuSans-30" x="318.115234"/>
      </g>
     </g>
    </g>
    <g id="ytick_7">
     <g id="line2d_13">
      <g>
       <use xlink:href="#m49862be737" x="57.6" y="105.276285" style="stroke: #000000; stroke-width: 0.8"/>
      </g>
     </g>
     <g id="text_13">
      <!-- 300000 -->
      <g transform="translate(12.425 109.075504) scale(0.1 -0.1)">
       <defs>
        <path id="DejaVuSans-33" d="M 2597 2516 
Q 3050 2419 3304 2112 
Q 3559 1806 3559 1356 
Q 3559 666 3084 287 
Q 2609 -91 1734 -91 
Q 1441 -91 1130 -33 
Q 819 25 488 141 
L 488 750 
Q 750 597 1062 519 
Q 1375 441 1716 441 
Q 2309 441 2620 675 
Q 2931 909 2931 1356 
Q 2931 1769 2642 2001 
Q 2353 2234 1838 2234 
L 1294 2234 
L 1294 2753 
L 1863 2753 
Q 2328 2753 2575 2939 
Q 2822 3125 2822 3475 
Q 2822 3834 2567 4026 
Q 2313 4219 1838 4219 
Q 1578 4219 1281 4162 
Q 984 4106 628 3988 
L 628 4550 
Q 988 4650 1302 4700 
Q 1616 4750 1894 4750 
Q 2613 4750 3031 4423 
Q 3450 4097 3450 3541 
Q 3450 3153 3228 2886 
Q 3006 2619 2597 2516 
z
" transform="scale(0.015625)"/>
       </defs>
       <use xlink:href="#DejaVuSans-33"/>
       <use xlink:href="#DejaVuSans-30" x="63.623047"/>
       <use xlink:href="#DejaVuSans-30" x="127.246094"/>
       <use xlink:href="#DejaVuSans-30" x="190.869141"/>
       <use xlink:href="#DejaVuSans-30" x="254.492188"/>
       <use xlink:href="#DejaVuSans-30" x="318.115234"/>
      </g>
     </g>
    </g>
    <g id="ytick_8">
     <g id="line2d_14">
      <g>
       <use xlink:href="#m49862be737" x="57.6" y="78.522607" style="stroke: #000000; stroke-width: 0.8"/>
      </g>
     </g>
     <g id="text_14">
      <!-- 350000 -->
      <g transform="translate(12.425 82.321826) scale(0.1 -0.1)">
       <use xlink:href="#DejaVuSans-33"/>
       <use xlink:href="#DejaVuSans-35" x="63.623047"/>
       <use xlink:href="#DejaVuSans-30" x="127.246094"/>
       <use xlink:href="#DejaVuSans-30" x="190.869141"/>
       <use xlink:href="#DejaVuSans-30" x="254.492188"/>
       <use xlink:href="#DejaVuSans-30" x="318.115234"/>
      </g>
     </g>
    </g>
    <g id="ytick_9">
     <g id="line2d_15">
      <g>
       <use xlink:href="#m49862be737" x="57.6" y="51.768929" style="stroke: #000000; stroke-width: 0.8"/>
      </g>
     </g>
     <g id="text_15">
      <!-- 400000 -->
      <g transform="translate(12.425 55.568148) scale(0.1 -0.1)">
       <use xlink:href="#DejaVuSans-34"/>
       <use xlink:href="#DejaVuSans-30" x="63.623047"/>
       <use xlink:href="#DejaVuSans-30" x="127.246094"/>
       <use xlink:href="#DejaVuSans-30" x="190.869141"/>
       <use xlink:href="#DejaVuSans-30" x="254.492188"/>
       <use xlink:href="#DejaVuSans-30" x="318.115234"/>
      </g>
     </g>
    </g>
   </g>
   <g id="line2d_16">
    <path d="M 73.832727 265.797283 
L 136.474432 265.684918 
L 143.2183 265.470888 
L 143.327383 265.312506 
L 143.63476 265.302875 
L 145.230804 265.222614 
L 145.326402 265.182484 
L 149.141004 265.071723 
L 149.247597 265.063162 
L 157.68034 264.565009 
L 161.445147 264.461204 
L 161.55526 264.430705 
L 164.898141 264.319945 
L 165.58133 264.313524 
L 167.591525 264.202764 
L 167.931372 264.197413 
L 168.216254 264.181361 
L 168.328592 264.055619 
L 169.770027 263.945394 
L 169.880797 263.940578 
L 170.28192 263.933087 
L 171.541653 263.827142 
L 171.646103 263.812695 
L 174.397401 263.701935 
L 174.508697 263.694444 
L 176.626094 263.583684 
L 176.918714 263.575123 
L 178.846156 263.464362 
L 178.996755 263.460617 
L 182.218625 263.350927 
L 182.304794 263.347716 
L 182.458039 263.344506 
L 182.554134 263.000454 
L 184.111172 262.891299 
L 184.22304 262.863475 
L 185.399615 262.753785 
L 185.520768 262.730241 
L 187.303753 262.625367 
L 187.403593 262.494274 
L 189.126055 262.306463 
L 190.875216 262.195703 
L 191.026767 262.186072 
L 192.1671 262.075846 
L 192.275203 262.068891 
L 193.212689 261.958665 
L 193.327051 261.939403 
L 193.327051 261.939403 
L 194.116999 261.828643 
L 194.23262 261.814196 
L 195.090614 261.74089 
L 195.204647 261.59428 
L 196.466034 261.490476 
L 196.571664 261.472284 
L 197.667132 261.361523 
L 197.80737 261.329954 
L 198.748861 261.219194 
L 199.667702 261.065093 
L 199.777003 261.055461 
L 200.940214 260.944701 
L 201.096879 260.929184 
L 202.253783 260.820029 
L 202.356269 260.808257 
L 203.131611 260.748864 
L 203.242778 260.60814 
L 204.938966 260.497379 
L 205.224171 260.482933 
L 207.107334 260.374313 
L 207.214189 260.366822 
L 207.55943 260.28549 
L 207.669337 260.234658 
L 209.317325 260.132994 
L 209.425469 259.892211 
L 210.376577 259.781451 
L 210.582825 259.770215 
L 212.829558 259.659454 
L 212.959523 259.651963 
L 214.797238 259.541203 
L 215.004431 259.530502 
L 217.522652 259.420276 
L 217.710743 259.41225 
L 218.471971 259.30149 
L 218.616653 259.276877 
L 218.950233 259.166116 
L 219.06181 259.11903 
L 219.96165 259.00934 
L 220.192825 258.775513 
L 220.192825 258.775513 
L 220.693276 258.677059 
L 220.803496 258.24793 
L 221.242445 258.156433 
L 221.357007 258.121118 
L 221.533838 258.085803 
L 222.305911 257.975578 
L 222.416886 257.952035 
L 224.019593 257.841274 
L 224.133655 257.824152 
L 225.543917 257.717137 
L 225.658526 257.696269 
L 226.199612 257.585509 
L 226.308828 257.579088 
L 231.626043 257.308341 
L 232.537605 257.266605 
L 232.643373 257.11732 
L 237.5272 256.848713 
L 237.638323 256.82945 
L 239.97297 256.71869 
L 242.19913 256.630938 
L 243.73177 256.530344 
L 243.822036 256.35163 
L 245.894584 256.240869 
L 246.006044 256.234983 
L 250.252042 256.124223 
L 250.374272 256.119943 
L 250.702359 256.108706 
L 250.814341 255.941763 
L 252.925474 255.870598 
L 253.037168 255.742716 
L 254.562977 255.631956 
L 254.674095 255.62928 
L 255.556531 255.527616 
L 255.66693 255.499792 
L 256.717987 255.478389 
L 260.98679 255.367629 
L 261.384669 255.361743 
L 264.951776 255.250983 
L 265.225123 255.239212 
L 268.180244 255.128986 
L 268.301321 255.11882 
L 270.783091 255.00806 
L 271.077744 254.998964 
L 285.119495 254.888203 
L 285.690579 254.868406 
L 285.690579 254.868406 
L 289.517045 254.757645 
L 289.636796 254.75497 
L 293.072156 254.650096 
L 293.215172 254.628693 
L 297.737666 254.518468 
L 297.850049 254.511512 
L 299.705375 254.402357 
L 299.705375 254.402357 
L 299.809246 254.398611 
L 302.001278 254.303368 
L 302.110306 254.250931 
L 305.10402 254.141241 
L 305.10402 254.141241 
L 305.21121 254.130004 
L 305.21121 254.130004 
L 308.519449 254.019244 
L 308.6363 254.008542 
L 311.76704 253.897782 
L 311.76704 253.897782 
L 312.646355 253.858722 
L 314.897056 253.747962 
L 315.006826 253.730304 
L 318.551455 253.624895 
L 318.551455 253.624895 
L 318.661257 253.604027 
L 320.67357 253.497012 
L 320.783932 253.468118 
L 323.360156 253.357893 
L 323.469039 253.352542 
L 326.642412 253.241782 
L 326.751048 253.239642 
L 329.001835 253.128881 
L 330.047331 253.105338 
L 333.950043 252.994578 
L 334.063162 252.990832 
L 334.063162 252.990832 
L 338.11978 252.89666 
L 338.228237 252.870976 
L 350.990118 252.423119 
L 352.87231 252.35784 
L 352.977114 252.303798 
L 356.143035 252.193038 
L 356.773185 252.17538 
L 359.388813 252.068366 
L 359.388813 252.068366 
L 359.499156 252.06034 
L 361.389852 251.949579 
L 361.389852 251.949579 
L 361.525003 251.932992 
L 361.605553 251.930852 
L 361.71812 251.718963 
L 361.71812 251.718963 
L 365.953218 251.608202 
L 366.067658 251.598036 
L 366.391601 251.567002 
L 367.133464 251.55523 
L 367.244182 251.44233 
L 369.197828 251.331569 
L 369.305537 251.320333 
L 371.707548 251.22723 
L 371.819624 251.15339 
L 376.047589 251.04263 
L 376.183661 251.039954 
L 377.147855 251.011595 
L 377.25734 250.75262 
L 380.727808 250.64186 
L 380.934671 250.635439 
L 385.626619 250.524678 
L 385.626619 250.524678 
L 386.047555 250.498995 
L 386.047555 250.498995 
L 387.389647 250.388235 
L 388.009672 250.372182 
L 388.009672 250.372182 
L 388.070952 250.368437 
L 388.179814 250.134075 
L 391.568965 249.996026 
L 391.568965 249.996026 
L 394.320968 249.885801 
L 394.320968 249.885801 
L 394.435533 249.883125 
L 396.455556 249.772365 
L 396.455556 249.772365 
L 396.572181 249.758453 
L 396.572181 249.758453 
L 397.996384 249.647693 
L 398.169576 249.62629 
L 398.487273 249.599536 
L 398.487273 249.599536 
" clip-path="url(#pb7c1c510b3)" style="fill: none; stroke: #1f77b4; stroke-width: 1.5; stroke-linecap: square"/>
   </g>
   <g id="line2d_17">
    <path d="M 73.832727 265.797818 
L 136.377175 265.686523 
L 136.532006 265.674216 
L 139.019705 265.345681 
L 139.138001 265.315182 
L 139.618958 265.186764 
L 139.722676 265.151449 
L 140.402408 265.018751 
L 140.508564 264.991462 
L 141.199254 264.858764 
L 143.188895 264.427495 
L 143.302611 264.345093 
L 144.578062 264.076487 
L 144.680777 264.047593 
L 145.123876 263.925061 
L 145.456186 263.755977 
L 145.577467 263.681602 
L 145.722426 263.632911 
L 145.921603 263.501282 
L 146.0537 263.137968 
L 147.525904 262.623762 
L 149.066509 262.438626 
L 149.16243 262.424714 
L 149.883061 262.296832 
L 149.997709 262.258842 
L 150.301375 262.128284 
L 150.595172 262.06568 
L 150.972736 261.947429 
L 151.288628 261.826502 
L 151.444922 261.751057 
L 151.702513 261.597491 
L 151.983389 261.516695 
L 152.420135 261.396303 
L 152.649183 261.349217 
L 153.592903 260.988042 
L 153.704232 260.945236 
L 154.190389 260.801301 
L 154.894703 260.374313 
L 155.004936 260.24429 
L 155.857132 259.940368 
L 156.271488 259.574378 
L 156.60731 259.237281 
L 156.90565 258.951552 
L 158.6912 258.584492 
L 160.074933 258.437881 
L 160.210485 258.421829 
L 161.260909 258.295017 
L 162.228864 258.064935 
L 162.378495 258.009287 
L 163.454684 257.678612 
L 163.563797 257.658279 
L 163.998698 257.520765 
L 164.109537 257.450671 
L 166.674558 257.204002 
L 166.785622 257.169222 
L 166.991687 257.04883 
L 168.391825 256.576896 
L 168.769167 256.460249 
L 168.879207 256.409953 
L 169.49156 256.229633 
L 170.002037 256.116197 
L 170.559542 255.943903 
L 171.99508 255.458057 
L 172.680606 255.282017 
L 172.966613 255.129522 
L 173.153858 254.993613 
L 173.518568 254.7539 
L 173.898002 254.539335 
L 174.448703 254.337613 
L 174.555899 254.307649 
L 174.990269 254.184047 
L 176.724004 253.682148 
L 176.908424 253.628105 
L 177.221807 253.476679 
L 177.371835 253.410865 
L 177.930396 253.213958 
L 178.043898 253.166337 
L 178.697859 252.959798 
L 179.217764 252.784294 
L 179.342859 252.739883 
L 179.655039 252.620027 
L 180.240735 252.434356 
L 180.419387 252.38941 
L 182.493646 251.921756 
L 182.603454 251.892326 
L 182.785752 251.773005 
L 182.901095 251.656359 
L 183.836963 251.264685 
L 183.963918 251.139478 
L 184.11701 250.998219 
L 184.268889 250.894949 
L 184.434851 250.777233 
L 184.553734 250.710884 
L 184.716264 250.592633 
L 184.82383 250.501135 
L 185.088238 250.373253 
L 185.207641 250.328306 
L 185.73701 250.06612 
L 187.855854 248.805487 
L 188.046329 248.67921 
L 188.3825 248.476952 
L 188.89125 248.32071 
L 189.296805 248.226538 
L 189.817012 248.018394 
L 189.942665 247.903888 
L 190.095098 247.825767 
L 190.297427 247.709121 
L 190.729241 247.490276 
L 191.115021 247.290694 
L 191.22878 247.174583 
L 191.337807 247.08041 
L 191.486843 246.954133 
L 191.715268 246.526074 
L 191.80217 246.410498 
L 191.925223 246.295457 
L 192.098248 246.164364 
L 192.752237 245.265975 
L 192.863132 245.143979 
L 193.128594 244.957238 
L 193.333252 244.741603 
L 193.375324 244.629238 
L 193.97455 244.069016 
L 194.100672 243.942739 
L 194.210099 243.765629 
L 194.442352 243.598151 
L 194.550982 243.525916 
L 194.7071 243.398569 
L 194.974491 243.188285 
L 195.153319 242.941616 
L 195.365784 242.712604 
L 195.476693 242.597029 
L 195.858817 242.072656 
L 195.916924 241.940493 
L 196.026114 241.755358 
L 196.232441 241.592696 
L 196.571664 241.248643 
L 196.754704 241.129857 
L 196.883861 241.001974 
L 197.102905 240.852154 
L 197.511243 240.355605 
L 197.527741 240.218092 
L 197.636136 240.019044 
L 197.794977 239.899723 
L 197.981945 239.665361 
L 198.91636 238.124884 
L 199.165463 237.636362 
L 199.240422 237.521856 
L 199.433111 236.918293 
L 199.44103 236.782384 
L 199.551602 236.456524 
L 199.651209 236.31687 
L 199.891731 236.193803 
L 200.085855 236.072342 
L 200.725644 235.699395 
L 200.826029 235.630906 
L 200.932755 235.514795 
L 201.055478 235.377816 
L 201.221828 235.25796 
L 201.366007 235.085131 
L 201.538474 234.913372 
L 201.694338 234.773718 
L 201.859593 234.646906 
L 201.997295 234.511532 
L 202.154765 234.373483 
L 202.261065 234.248811 
L 202.430339 234.128954 
L 202.569241 233.973783 
L 202.72464 233.808445 
L 202.874018 233.687519 
L 203.118163 233.537698 
L 203.230311 233.433359 
L 203.573065 233.307616 
L 203.694854 233.267486 
L 203.853612 233.149235 
L 204.222431 232.955538 
L 204.350076 232.870461 
L 204.552066 232.734018 
L 204.891716 232.502866 
L 205.054948 232.382474 
L 205.234294 232.23961 
L 205.447335 232.109587 
L 206.877323 231.369045 
L 206.989543 231.277012 
L 207.230767 231.132007 
L 207.351912 231.048536 
L 207.51948 230.92975 
L 207.625056 230.863936 
L 207.888035 230.740334 
L 208.187642 230.523094 
L 208.380494 230.403237 
L 208.497519 230.311205 
L 208.955984 229.95217 
L 209.108469 229.828568 
L 209.28255 229.710317 
L 209.435316 229.581899 
L 209.610891 229.441175 
L 209.729835 229.361984 
L 210.004259 229.197716 
L 210.120484 229.131902 
L 210.320717 229.013116 
L 211.854148 227.648679 
L 212.005818 227.124841 
L 212.190192 226.960039 
L 212.299379 226.207725 
L 212.334556 226.094825 
L 212.449966 224.324266 
L 212.477755 224.210296 
L 212.638801 222.646811 
L 212.701644 222.469166 
L 212.812754 219.217524 
L 212.982783 210.717881 
L 213.011177 210.577157 
L 213.124275 209.511825 
L 213.129887 209.389293 
L 213.303032 202.45688 
L 213.410106 195.283149 
L 213.567538 195.165433 
L 213.682149 195.102294 
L 213.932211 194.954614 
L 214.056408 194.876493 
L 214.323179 194.753426 
L 214.438294 194.712225 
L 214.825607 194.544212 
L 215.024686 194.438268 
L 215.275578 194.310385 
L 215.455426 194.239756 
L 216.154686 193.828284 
L 216.305801 193.752303 
L 217.308646 193.466574 
L 217.52137 193.254685 
L 217.636387 193.197967 
L 217.777319 193.073295 
L 217.891331 192.936851 
L 218.096459 192.755997 
L 218.235475 192.626509 
L 219.042527 191.317719 
L 219.170441 191.125092 
L 219.298505 190.957079 
L 219.598076 190.52688 
L 219.712037 190.323552 
L 219.803299 190.169986 
L 220.031745 189.992342 
L 220.181938 189.804531 
L 220.301553 189.674508 
L 220.385399 189.555186 
L 220.531037 189.417673 
L 220.614831 189.302632 
L 220.757609 189.133013 
L 220.909784 189.015297 
L 221.031021 188.792707 
L 221.468424 188.30579 
L 221.6092 188.138847 
L 222.013348 187.587721 
L 222.123925 187.43683 
L 223.061321 186.463531 
L 223.301019 186.339394 
L 223.428229 186.1976 
L 223.615932 185.995342 
L 223.733724 185.812347 
L 223.853062 185.674298 
L 226.639659 182.691798 
L 226.831807 182.565521 
L 227.430901 182.239126 
L 227.712076 182.087165 
L 227.847551 182.003693 
L 228.110662 181.865109 
L 228.32589 181.785918 
L 228.687471 181.572424 
L 228.828997 181.408156 
L 230.331366 180.246512 
L 230.470955 180.130936 
L 234.101035 178.038798 
L 234.341574 177.920012 
L 234.695498 177.61502 
L 235.877015 176.753552 
L 236.726412 176.304625 
L 237.128817 176.051535 
L 237.270551 175.93917 
L 237.440158 175.815568 
L 237.570565 175.704272 
L 239.44328 174.432937 
L 239.934933 174.30666 
L 240.640285 174.033238 
L 240.76974 173.964748 
L 244.055892 172.01494 
L 244.167116 171.94324 
L 244.385363 171.741517 
L 244.670969 171.54461 
L 244.83827 171.425824 
L 244.949211 171.332721 
L 245.161896 171.211795 
L 245.507972 171.026124 
L 245.845674 170.877374 
L 246.024737 170.734509 
L 246.60169 170.480884 
L 247.07113 170.26953 
L 247.440816 170.151279 
L 247.540683 170.105798 
L 247.890683 169.981661 
L 248.090878 169.883207 
L 248.299467 169.761745 
L 248.447979 169.705563 
L 252.099374 168.421386 
L 252.211227 168.362528 
L 252.50299 168.232505 
L 252.763402 168.093386 
L 253.016184 167.974065 
L 253.137598 167.872936 
L 253.382438 167.745588 
L 253.535521 167.619846 
L 253.761492 167.474306 
L 253.921443 167.42829 
L 254.123996 167.304152 
L 254.799672 166.840244 
L 255.050972 166.696309 
L 257.066614 165.704818 
L 257.27305 165.587636 
L 257.385273 165.521287 
L 257.638377 165.403571 
L 257.76344 165.343108 
L 257.969175 165.221646 
L 258.097798 165.159578 
L 258.243539 165.024739 
L 258.354752 164.950899 
L 258.607657 164.809104 
L 259.338312 164.325933 
L 259.594558 164.202331 
L 260.267465 163.855068 
L 260.51415 163.716484 
L 261.20032 163.432895 
L 261.305555 163.374037 
L 261.634705 163.254716 
L 261.763768 163.213515 
L 261.983652 163.122017 
L 262.17754 162.9936 
L 262.46767 162.852875 
L 262.737847 162.731414 
L 262.875349 162.653293 
L 263.883669 162.112869 
L 264.126784 161.988732 
L 264.231628 161.953417 
L 264.444499 161.83249 
L 264.619589 161.729221 
L 265.096181 161.507165 
L 265.295407 161.409782 
L 265.593338 161.269593 
L 265.707949 161.225182 
L 266.187464 161.060914 
L 266.757732 160.904138 
L 266.890637 160.850095 
L 267.311451 160.665495 
L 267.448053 160.621084 
L 268.146653 160.394212 
L 269.224274 159.693266 
L 269.588611 159.459439 
L 269.82684 159.327276 
L 270.025978 159.185481 
L 270.194171 159.058669 
L 271.274535 158.37538 
L 272.875745 158.329364 
L 280.253038 158.203621 
L 280.404318 158.134597 
L 280.771599 158.014205 
L 280.982313 157.924313 
L 281.31067 157.794825 
L 281.935003 157.589357 
L 282.050184 157.567419 
L 282.606083 157.428835 
L 285.478362 156.756247 
L 285.627338 156.602681 
L 285.758191 156.476404 
L 285.869921 156.334609 
L 287.11337 155.277839 
L 287.910447 154.551744 
L 288.119247 154.427607 
L 288.226288 154.388547 
L 288.362818 154.260129 
L 288.469552 154.127431 
L 288.632882 154.006504 
L 289.327186 153.220481 
L 289.43298 153.090993 
L 289.604966 152.974882 
L 289.714618 152.843789 
L 289.895587 152.725538 
L 290.025296 152.575718 
L 290.24431 152.445695 
L 290.352408 152.338145 
L 290.708568 152.204912 
L 291.132303 151.930954 
L 291.319695 151.773107 
L 291.455834 151.673584 
L 291.641911 151.404442 
L 291.762684 151.342908 
L 291.953122 151.218236 
L 292.79818 150.496422 
L 292.908483 150.432213 
L 293.084185 150.311286 
L 293.184222 150.214973 
L 293.299339 150.098862 
L 293.499014 149.998803 
L 293.734222 149.839886 
L 294.043739 149.618366 
L 294.226193 149.495299 
L 294.337404 149.366881 
L 294.547673 149.185492 
L 294.654834 149.124493 
L 294.848776 149.008917 
L 294.964148 148.912604 
L 295.432532 148.554105 
L 295.5791 148.424082 
L 295.755993 148.306901 
L 295.878058 148.178483 
L 296.126046 147.908271 
L 296.235455 147.798581 
L 296.443809 147.667488 
L 296.558976 147.560473 
L 296.7209 147.434196 
L 296.902381 147.279024 
L 297.063142 147.142046 
L 297.191502 146.974568 
L 297.371647 146.84615 
L 297.528464 146.700075 
L 297.743018 146.581288 
L 298.978074 145.812388 
L 299.085149 145.68397 
L 299.210109 145.589797 
L 299.465059 145.410548 
L 299.657477 145.290691 
L 299.773977 145.164414 
L 299.902209 145.066495 
L 300.021453 144.924166 
L 300.138836 144.828923 
L 300.3343 144.684988 
L 300.444888 144.59028 
L 300.658296 144.469888 
L 300.767132 144.388022 
L 300.966412 144.269236 
L 302.522522 143.044452 
L 302.665215 142.800994 
L 302.791303 142.677392 
L 302.911159 142.511519 
L 303.06388 142.326919 
L 303.24948 142.212413 
L 303.356466 142.050286 
L 303.525742 141.930964 
L 303.678934 141.739943 
L 303.893886 141.567114 
L 304.004283 141.443512 
L 304.231589 141.256236 
L 304.561512 140.883825 
L 304.730687 140.764504 
L 304.839697 140.615218 
L 304.9528 140.490011 
L 305.070482 140.422057 
L 305.140049 140.305411 
L 305.254821 140.11974 
L 305.388673 140.002559 
L 305.49891 139.82973 
L 305.557185 139.707198 
L 305.733527 139.57343 
L 305.8832 139.371172 
L 305.995714 139.243825 
L 306.120293 139.127179 
L 306.274295 138.937763 
L 306.452588 138.818976 
L 306.562348 138.6622 
L 306.750342 138.526291 
L 306.886551 138.319753 
L 307.045364 138.174213 
L 307.153606 138.067198 
L 307.310693 137.950017 
L 307.874318 137.658937 
L 307.98437 137.600614 
L 308.10237 137.485573 
L 308.21334 137.391935 
L 308.514851 137.142056 
L 308.629683 137.015778 
L 308.750421 136.894852 
L 309.07744 136.62678 
L 309.187615 136.481775 
L 309.355983 136.362454 
L 309.678006 136.006095 
L 314.132078 131.550537 
L 314.25826 131.437101 
L 314.369105 131.287816 
L 314.538745 131.166354 
L 314.733504 130.95179 
L 314.899481 130.826583 
L 315.27529 130.440795 
L 315.384167 130.367489 
L 315.583211 130.247098 
L 315.910661 129.896625 
L 316.027345 129.783724 
L 317.050465 128.987535 
L 317.11252 128.873029 
L 317.489805 128.533792 
L 317.598734 128.442295 
L 317.828378 128.302641 
L 317.95293 128.225055 
L 318.155224 128.093427 
L 318.264385 128.044735 
L 318.498812 127.925414 
L 318.609207 127.799136 
L 318.748381 127.669649 
L 319.270038 127.216441 
L 319.43276 127.096585 
L 319.538154 126.91573 
L 319.713137 126.799084 
L 319.823315 126.639632 
L 320.008541 126.520311 
L 320.118542 126.399384 
L 320.352981 126.208363 
L 320.467973 126.086366 
L 320.726957 125.919958 
L 320.83777 125.786725 
L 321.182285 125.466216 
L 321.37496 125.329772 
L 321.526819 125.157478 
L 321.667044 125.038692 
L 321.777553 124.930072 
L 322.027015 124.666281 
L 322.180899 124.48275 
L 322.314015 124.366104 
L 322.425018 124.247318 
L 322.618194 124.013491 
L 322.736734 123.8214 
L 322.906491 123.695657 
L 324.212474 122.377771 
L 324.848421 122.111839 
L 325.117863 121.840022 
L 325.229254 121.723376 
L 325.358318 121.508277 
L 325.549528 121.375043 
L 325.650779 121.184022 
L 325.775754 121.067376 
L 325.881061 120.848531 
L 325.944892 120.731885 
L 326.279317 120.353588 
L 326.467789 120.172198 
L 326.648157 119.875232 
L 327.246522 119.074762 
L 327.352141 118.937248 
L 327.479403 118.823277 
L 327.780236 118.444445 
L 327.852867 118.329404 
L 327.962468 118.234696 
L 328.090869 118.11805 
L 328.382683 117.809313 
L 328.494294 117.691597 
L 329.017238 117.253907 
L 329.195558 117.089104 
L 329.303333 116.995466 
L 329.438684 116.87882 
L 329.54968 116.775016 
L 335.175262 112.450551 
L 335.34967 112.33337 
L 335.890843 111.974871 
L 336.044938 111.733018 
L 336.19544 111.64259 
L 336.270347 111.528084 
L 336.381599 111.365422 
L 336.50146 111.248776 
L 336.642801 111.048123 
L 336.7506 110.963047 
L 336.877396 110.846401 
L 337.097194 110.627021 
L 337.231347 110.458472 
L 337.342177 110.286179 
L 337.647136 110.006335 
L 337.766448 109.896645 
L 337.837997 109.782674 
L 337.955735 109.654257 
L 338.156737 109.53333 
L 338.34646 109.328397 
L 338.533486 109.206935 
L 338.653258 109.117043 
L 338.857151 109.000397 
L 338.986173 108.860208 
L 339.132434 108.714668 
L 339.263105 108.592671 
L 339.474252 108.352958 
L 339.607257 108.166217 
L 339.828243 107.963424 
L 341.172379 106.747202 
L 341.689002 106.541734 
L 341.827386 106.324494 
L 341.994087 106.172533 
L 342.104839 106.07408 
L 342.320751 105.926399 
L 342.439586 105.743404 
L 342.69352 105.622478 
L 344.912929 103.444193 
L 345.023992 103.207155 
L 345.232631 102.997407 
L 345.343725 102.828858 
L 345.446177 102.688669 
L 345.604179 102.573093 
L 345.723666 102.416317 
L 345.885733 102.298066 
L 346.01825 102.134868 
L 346.532091 101.812219 
L 346.676273 101.67738 
L 347.568088 100.964127 
L 347.70503 100.858718 
L 347.914199 100.722809 
L 348.046582 100.636127 
L 348.198979 100.494868 
L 348.361104 100.352538 
L 348.56834 100.225726 
L 348.741381 100.053967 
L 348.884308 99.92769 
L 349.086755 99.733458 
L 349.274372 99.548858 
L 349.385824 99.474482 
L 349.603565 99.310215 
L 349.712349 99.240655 
L 349.859978 99.092975 
L 349.96853 98.934058 
L 350.182497 98.80029 
L 350.297696 98.663846 
L 350.689725 98.43965 
L 350.881273 98.232577 
L 351.044758 98.122351 
L 351.196921 97.99982 
L 351.313938 97.876753 
L 351.530695 97.759036 
L 352.502431 97.172061 
L 352.61284 97.025986 
L 352.745007 96.862788 
L 352.885812 96.668022 
L 353.05947 96.532648 
L 353.211377 96.367845 
L 353.374846 96.252269 
L 353.739702 95.835982 
L 353.994339 95.697398 
L 354.348846 95.244726 
L 354.465622 95.060661 
L 354.628785 94.942944 
L 354.738429 94.747107 
L 355.038369 94.540569 
L 355.15811 94.416967 
L 355.332216 94.298716 
L 356.289042 93.354311 
L 356.448833 93.194859 
L 356.627716 93.057345 
L 356.738236 92.928392 
L 356.898287 92.795694 
L 357.008472 92.673697 
L 357.183781 92.552771 
L 357.308208 92.422213 
L 357.637179 92.121501 
L 357.748022 92.010206 
L 358.091937 91.876438 
L 358.261128 91.813299 
L 358.610207 91.67204 
L 358.72039 91.553253 
L 358.876028 91.434467 
L 359.736699 90.485782 
L 359.858617 90.3686 
L 360.096895 90.115511 
L 360.177751 89.985488 
L 360.295287 89.876333 
L 360.461952 89.741494 
L 360.573346 89.622708 
L 360.741545 89.487334 
L 360.852212 89.388346 
L 360.973433 89.264209 
L 361.187627 89.119739 
L 361.298611 89.02182 
L 361.561744 88.822773 
L 361.67496 88.680443 
L 361.879354 88.549885 
L 361.989671 88.413442 
L 362.413412 88.009996 
L 362.636792 87.862316 
L 363.097761 87.556254 
L 363.329118 87.38075 
L 363.470231 87.245911 
L 363.574692 87.12873 
L 363.796462 87.007268 
L 363.938268 86.900254 
L 364.10211 86.784678 
L 364.262544 86.632717 
L 364.475544 86.472195 
L 364.609036 86.382302 
L 364.756449 86.218035 
L 364.871192 86.093898 
L 365.094088 85.974576 
L 365.198238 85.870237 
L 365.399081 85.74824 
L 365.607557 85.633199 
L 365.728866 85.516553 
L 365.838565 85.415425 
L 366.091602 85.211026 
L 366.223023 85.103477 
L 366.57873 84.759424 
L 366.704572 84.643313 
L 366.805443 84.558772 
L 367.024395 84.442126 
L 368.314154 83.614902 
L 368.427096 83.556579 
L 368.702377 83.369303 
L 369.147853 83.133871 
L 369.375318 83.011339 
L 369.618366 82.811221 
L 369.7919 82.69297 
L 369.996948 82.527633 
L 370.152597 82.400285 
L 370.232608 82.278288 
L 370.349142 82.155756 
L 370.50122 82.013427 
L 370.611757 81.847019 
L 370.696376 81.722347 
L 370.970023 81.420565 
L 371.080573 81.338699 
L 371.267026 81.16694 
L 371.377444 81.050829 
L 371.92061 80.589596 
L 372.031126 80.481511 
L 372.213163 80.301726 
L 372.338052 80.179195 
L 372.530738 80.059873 
L 372.723641 79.928245 
L 372.859215 79.793942 
L 372.958939 79.648937 
L 373.133627 79.534431 
L 373.37801 79.313446 
L 373.501024 79.1968 
L 373.612866 79.067847 
L 373.907321 78.861308 
L 375.532054 77.833967 
L 375.645198 77.723742 
L 375.770363 77.60121 
L 375.924876 77.49152 
L 376.101234 77.371664 
L 376.216358 77.293008 
L 376.686731 76.989621 
L 376.882599 76.821608 
L 377.048792 76.698541 
L 377.281469 76.556212 
L 377.475411 76.309008 
L 377.609252 76.262991 
L 378.044046 75.869177 
L 378.185322 75.762697 
L 378.598691 75.522449 
L 378.773495 75.406874 
L 378.879515 75.343735 
L 379.006889 75.224949 
L 379.114322 75.120609 
L 379.279853 75.002893 
L 379.434853 74.837555 
L 379.71025 74.672753 
L 379.820536 74.604798 
L 380.239054 74.368831 
L 380.349674 74.265562 
L 380.627998 74.103434 
L 380.733667 74.009796 
L 380.90684 73.89101 
L 381.17675 73.685542 
L 381.967326 72.855108 
L 382.357471 72.351068 
L 382.512572 72.229072 
L 383.609201 71.094181 
L 383.81202 70.953456 
L 383.924675 70.838951 
L 384.139568 70.677893 
L 385.119922 69.773084 
L 385.22994 69.688542 
L 385.443234 69.516784 
L 385.54978 69.391577 
L 385.654492 69.27065 
L 385.883166 68.990806 
L 386.038454 68.847407 
L 386.443915 68.405436 
L 386.657843 68.245984 
L 386.778861 68.122917 
L 386.909808 67.907283 
L 387.056448 67.771909 
L 387.537926 67.184933 
L 387.694454 67.05384 
L 387.793703 66.912046 
L 388.161432 66.498969 
L 388.271674 66.424594 
L 388.375871 66.286545 
L 388.565855 65.96229 
L 388.657911 65.816215 
L 388.774584 65.403138 
L 388.934475 65.224424 
L 389.045367 64.891073 
L 389.134961 64.616045 
L 389.236968 64.497794 
L 389.359604 64.383288 
L 389.467981 64.160162 
L 389.601051 64.022648 
L 391.78833 60.582661 
L 391.994859 60.460664 
L 392.10581 60.375052 
L 392.642549 59.587959 
L 392.756208 59.409244 
L 392.845179 59.269055 
L 392.955594 59.075893 
L 393.0761 58.942125 
L 393.195597 58.751104 
L 393.584556 58.090288 
L 393.694612 57.895521 
L 393.814748 57.769779 
L 393.925763 57.629054 
L 397.89237 52.620231 
L 398.060982 52.501445 
L 398.205399 52.351089 
L 398.487273 52.154182 
L 398.487273 52.154182 
" clip-path="url(#pb7c1c510b3)" style="fill: none; stroke: #ff7f0e; stroke-width: 1.5; stroke-linecap: square"/>
   </g>
   <g id="patch_3">
    <path d="M 57.6 276.48 
L 57.6 41.472 
" style="fill: none; stroke: #000000; stroke-width: 0.8; stroke-linejoin: miter; stroke-linecap: square"/>
   </g>
   <g id="patch_4">
    <path d="M 414.72 276.48 
L 414.72 41.472 
" style="fill: none; stroke: #000000; stroke-width: 0.8; stroke-linejoin: miter; stroke-linecap: square"/>
   </g>
   <g id="patch_5">
    <path d="M 57.6 276.48 
L 414.72 276.48 
" style="fill: none; stroke: #000000; stroke-width: 0.8; stroke-linejoin: miter; stroke-linecap: square"/>
   </g>
   <g id="patch_6">
    <path d="M 57.6 41.472 
L 414.72 41.472 
" style="fill: none; stroke: #000000; stroke-width: 0.8; stroke-linejoin: miter; stroke-linecap: square"/>
   </g>
   <g id="legend_1">
    <g id="patch_7">
     <path d="M 64.6 78.82825 
L 158.803125 78.82825 
Q 160.803125 78.82825 160.803125 76.82825 
L 160.803125 48.472 
Q 160.803125 46.472 158.803125 46.472 
L 64.6 46.472 
Q 62.6 46.472 62.6 48.472 
L 62.6 76.82825 
Q 62.6 78.82825 64.6 78.82825 
z
" style="fill: #ffffff; opacity: 0.8; stroke: #cccccc; stroke-linejoin: miter"/>
    </g>
    <g id="line2d_18">
     <path d="M 66.6 54.570437 
L 76.6 54.570437 
L 86.6 54.570437 
" style="fill: none; stroke: #1f77b4; stroke-width: 1.5; stroke-linecap: square"/>
    </g>
    <g id="text_16">
     <!-- # addresses -->
     <g transform="translate(94.6 58.070437) scale(0.1 -0.1)">
      <defs>
       <path id="DejaVuSans-23" d="M 3272 2816 
L 2363 2816 
L 2100 1772 
L 3016 1772 
L 3272 2816 
z
M 2803 4594 
L 2478 3297 
L 3391 3297 
L 3719 4594 
L 4219 4594 
L 3897 3297 
L 4872 3297 
L 4872 2816 
L 3775 2816 
L 3519 1772 
L 4513 1772 
L 4513 1294 
L 3397 1294 
L 3072 0 
L 2572 0 
L 2894 1294 
L 1978 1294 
L 1656 0 
L 1153 0 
L 1478 1294 
L 494 1294 
L 494 1772 
L 1594 1772 
L 1856 2816 
L 850 2816 
L 850 3297 
L 1978 3297 
L 2297 4594 
L 2803 4594 
z
" transform="scale(0.015625)"/>
       <path id="DejaVuSans-20" transform="scale(0.015625)"/>
       <path id="DejaVuSans-61" d="M 2194 1759 
Q 1497 1759 1228 1600 
Q 959 1441 959 1056 
Q 959 750 1161 570 
Q 1363 391 1709 391 
Q 2188 391 2477 730 
Q 2766 1069 2766 1631 
L 2766 1759 
L 2194 1759 
z
M 3341 1997 
L 3341 0 
L 2766 0 
L 2766 531 
Q 2569 213 2275 61 
Q 1981 -91 1556 -91 
Q 1019 -91 701 211 
Q 384 513 384 1019 
Q 384 1609 779 1909 
Q 1175 2209 1959 2209 
L 2766 2209 
L 2766 2266 
Q 2766 2663 2505 2880 
Q 2244 3097 1772 3097 
Q 1472 3097 1187 3025 
Q 903 2953 641 2809 
L 641 3341 
Q 956 3463 1253 3523 
Q 1550 3584 1831 3584 
Q 2591 3584 2966 3190 
Q 3341 2797 3341 1997 
z
" transform="scale(0.015625)"/>
       <path id="DejaVuSans-64" d="M 2906 2969 
L 2906 4863 
L 3481 4863 
L 3481 0 
L 2906 0 
L 2906 525 
Q 2725 213 2448 61 
Q 2172 -91 1784 -91 
Q 1150 -91 751 415 
Q 353 922 353 1747 
Q 353 2572 751 3078 
Q 1150 3584 1784 3584 
Q 2172 3584 2448 3432 
Q 2725 3281 2906 2969 
z
M 947 1747 
Q 947 1113 1208 752 
Q 1469 391 1925 391 
Q 2381 391 2643 752 
Q 2906 1113 2906 1747 
Q 2906 2381 2643 2742 
Q 2381 3103 1925 3103 
Q 1469 3103 1208 2742 
Q 947 2381 947 1747 
z
" transform="scale(0.015625)"/>
       <path id="DejaVuSans-72" d="M 2631 2963 
Q 2534 3019 2420 3045 
Q 2306 3072 2169 3072 
Q 1681 3072 1420 2755 
Q 1159 2438 1159 1844 
L 1159 0 
L 581 0 
L 581 3500 
L 1159 3500 
L 1159 2956 
Q 1341 3275 1631 3429 
Q 1922 3584 2338 3584 
Q 2397 3584 2469 3576 
Q 2541 3569 2628 3553 
L 2631 2963 
z
" transform="scale(0.015625)"/>
       <path id="DejaVuSans-65" d="M 3597 1894 
L 3597 1613 
L 953 1613 
Q 991 1019 1311 708 
Q 1631 397 2203 397 
Q 2534 397 2845 478 
Q 3156 559 3463 722 
L 3463 178 
Q 3153 47 2828 -22 
Q 2503 -91 2169 -91 
Q 1331 -91 842 396 
Q 353 884 353 1716 
Q 353 2575 817 3079 
Q 1281 3584 2069 3584 
Q 2775 3584 3186 3129 
Q 3597 2675 3597 1894 
z
M 3022 2063 
Q 3016 2534 2758 2815 
Q 2500 3097 2075 3097 
Q 1594 3097 1305 2825 
Q 1016 2553 972 2059 
L 3022 2063 
z
" transform="scale(0.015625)"/>
       <path id="DejaVuSans-73" d="M 2834 3397 
L 2834 2853 
Q 2591 2978 2328 3040 
Q 2066 3103 1784 3103 
Q 1356 3103 1142 2972 
Q 928 2841 928 2578 
Q 928 2378 1081 2264 
Q 1234 2150 1697 2047 
L 1894 2003 
Q 2506 1872 2764 1633 
Q 3022 1394 3022 966 
Q 3022 478 2636 193 
Q 2250 -91 1575 -91 
Q 1294 -91 989 -36 
Q 684 19 347 128 
L 347 722 
Q 666 556 975 473 
Q 1284 391 1588 391 
Q 1994 391 2212 530 
Q 2431 669 2431 922 
Q 2431 1156 2273 1281 
Q 2116 1406 1581 1522 
L 1381 1569 
Q 847 1681 609 1914 
Q 372 2147 372 2553 
Q 372 3047 722 3315 
Q 1072 3584 1716 3584 
Q 2034 3584 2315 3537 
Q 2597 3491 2834 3397 
z
" transform="scale(0.015625)"/>
      </defs>
      <use xlink:href="#DejaVuSans-23"/>
      <use xlink:href="#DejaVuSans-20" x="83.789062"/>
      <use xlink:href="#DejaVuSans-61" x="115.576172"/>
      <use xlink:href="#DejaVuSans-64" x="176.855469"/>
      <use xlink:href="#DejaVuSans-64" x="240.332031"/>
      <use xlink:href="#DejaVuSans-72" x="303.808594"/>
      <use xlink:href="#DejaVuSans-65" x="342.671875"/>
      <use xlink:href="#DejaVuSans-73" x="404.195312"/>
      <use xlink:href="#DejaVuSans-73" x="456.294922"/>
      <use xlink:href="#DejaVuSans-65" x="508.394531"/>
      <use xlink:href="#DejaVuSans-73" x="569.917969"/>
     </g>
    </g>
    <g id="line2d_19">
     <path d="M 66.6 69.248562 
L 76.6 69.248562 
L 86.6 69.248562 
" style="fill: none; stroke: #ff7f0e; stroke-width: 1.5; stroke-linecap: square"/>
    </g>
    <g id="text_17">
     <!-- # emails -->
     <g transform="translate(94.6 72.748562) scale(0.1 -0.1)">
      <defs>
       <path id="DejaVuSans-6d" d="M 3328 2828 
Q 3544 3216 3844 3400 
Q 4144 3584 4550 3584 
Q 5097 3584 5394 3201 
Q 5691 2819 5691 2113 
L 5691 0 
L 5113 0 
L 5113 2094 
Q 5113 2597 4934 2840 
Q 4756 3084 4391 3084 
Q 3944 3084 3684 2787 
Q 3425 2491 3425 1978 
L 3425 0 
L 2847 0 
L 2847 2094 
Q 2847 2600 2669 2842 
Q 2491 3084 2119 3084 
Q 1678 3084 1418 2786 
Q 1159 2488 1159 1978 
L 1159 0 
L 581 0 
L 581 3500 
L 1159 3500 
L 1159 2956 
Q 1356 3278 1631 3431 
Q 1906 3584 2284 3584 
Q 2666 3584 2933 3390 
Q 3200 3197 3328 2828 
z
" transform="scale(0.015625)"/>
       <path id="DejaVuSans-69" d="M 603 3500 
L 1178 3500 
L 1178 0 
L 603 0 
L 603 3500 
z
M 603 4863 
L 1178 4863 
L 1178 4134 
L 603 4134 
L 603 4863 
z
" transform="scale(0.015625)"/>
       <path id="DejaVuSans-6c" d="M 603 4863 
L 1178 4863 
L 1178 0 
L 603 0 
L 603 4863 
z
" transform="scale(0.015625)"/>
      </defs>
      <use xlink:href="#DejaVuSans-23"/>
      <use xlink:href="#DejaVuSans-20" x="83.789062"/>
      <use xlink:href="#DejaVuSans-65" x="115.576172"/>
      <use xlink:href="#DejaVuSans-6d" x="177.099609"/>
      <use xlink:href="#DejaVuSans-61" x="274.511719"/>
      <use xlink:href="#DejaVuSans-69" x="335.791016"/>
      <use xlink:href="#DejaVuSans-6c" x="363.574219"/>
      <use xlink:href="#DejaVuSans-73" x="391.357422"/>
     </g>
    </g>
   </g>
  </g>
 </g>
 <defs>
  <clipPath id="pb7c1c510b3">
   <rect x="57.6" y="41.472" width="357.12" height="235.008"/>
  </clipPath>
 </defs>
</svg>
