<?xml version="1.0" encoding="utf-8" standalone="no"?>
<!DOCTYPE svg PUBLIC "-//W3C//DTD SVG 1.1//EN"
  "http://www.w3.org/Graphics/SVG/1.1/DTD/svg11.dtd">
<svg xmlns:xlink="http://www.w3.org/1999/xlink" width="460.8pt" height="345.6pt" viewBox="0 0 460.8 345.6" xmlns="http://www.w3.org/2000/svg" version="1.1">
 <metadata>
  <rdf:RDF xmlns:dc="http://purl.org/dc/elements/1.1/" xmlns:cc="http://creativecommons.org/ns#" xmlns:rdf="http://www.w3.org/1999/02/22-rdf-syntax-ns#">
   <cc:Work>
    <dc:type rdf:resource="http://purl.org/dc/dcmitype/StillImage"/>
    <dc:date>2023-05-19T09:43:53.840346</dc:date>
    <dc:format>image/svg+xml</dc:format>
    <dc:creator>
     <cc:Agent>
      <dc:title>Matplotlib v3.6.3, https://matplotlib.org/</dc:title>
     </cc:Agent>
    </dc:creator>
   </cc:Work>
  </rdf:RDF>
 </metadata>
 <defs>
  <style type="text/css">*{stroke-linejoin: round; stroke-linecap: butt}</style>
 </defs>
 <g id="figure_1">
  <g id="patch_1">
   <path d="M 0 345.6 
L 460.8 345.6 
L 460.8 0 
L 0 0 
z
" style="fill: #ffffff"/>
  </g>
  <g id="axes_1">
   <g id="patch_2">
    <path d="M 57.6 307.584 
L 414.72 307.584 
L 414.72 41.472 
L 57.6 41.472 
z
" style="fill: #ffffff"/>
   </g>
   <g id="matplotlib.axis_1">
    <g id="xtick_1">
     <g id="line2d_1">
      <defs>
       <path id="mf2c7340e6f" d="M 0 0 
L 0 3.5 
" style="stroke: #000000; stroke-width: 0.8"/>
      </defs>
      <g>
       <use xlink:href="#mf2c7340e6f" x="73.831914" y="307.584" style="stroke: #000000; stroke-width: 0.8"/>
      </g>
     </g>
     <g id="text_1">
      <!-- 0 -->
      <g transform="translate(70.650664 322.182437) scale(0.1 -0.1)">
       <defs>
        <path id="DejaVuSans-30" d="M 2034 4250 
Q 1547 4250 1301 3770 
Q 1056 3291 1056 2328 
Q 1056 1369 1301 889 
Q 1547 409 2034 409 
Q 2525 409 2770 889 
Q 3016 1369 3016 2328 
Q 3016 3291 2770 3770 
Q 2525 4250 2034 4250 
z
M 2034 4750 
Q 2819 4750 3233 4129 
Q 3647 3509 3647 2328 
Q 3647 1150 3233 529 
Q 2819 -91 2034 -91 
Q 1250 -91 836 529 
Q 422 1150 422 2328 
Q 422 3509 836 4129 
Q 1250 4750 2034 4750 
z
" transform="scale(0.015625)"/>
       </defs>
       <use xlink:href="#DejaVuSans-30"/>
      </g>
     </g>
    </g>
    <g id="xtick_2">
     <g id="line2d_2">
      <g>
       <use xlink:href="#mf2c7340e6f" x="114.487013" y="307.584" style="stroke: #000000; stroke-width: 0.8"/>
      </g>
     </g>
     <g id="text_2">
      <!-- 50000 -->
      <g transform="translate(98.580763 322.182437) scale(0.1 -0.1)">
       <defs>
        <path id="DejaVuSans-35" d="M 691 4666 
L 3169 4666 
L 3169 4134 
L 1269 4134 
L 1269 2991 
Q 1406 3038 1543 3061 
Q 1681 3084 1819 3084 
Q 2600 3084 3056 2656 
Q 3513 2228 3513 1497 
Q 3513 744 3044 326 
Q 2575 -91 1722 -91 
Q 1428 -91 1123 -41 
Q 819 9 494 109 
L 494 744 
Q 775 591 1075 516 
Q 1375 441 1709 441 
Q 2250 441 2565 725 
Q 2881 1009 2881 1497 
Q 2881 1984 2565 2268 
Q 2250 2553 1709 2553 
Q 1456 2553 1204 2497 
Q 953 2441 691 2322 
L 691 4666 
z
" transform="scale(0.015625)"/>
       </defs>
       <use xlink:href="#DejaVuSans-35"/>
       <use xlink:href="#DejaVuSans-30" x="63.623047"/>
       <use xlink:href="#DejaVuSans-30" x="127.246094"/>
       <use xlink:href="#DejaVuSans-30" x="190.869141"/>
       <use xlink:href="#DejaVuSans-30" x="254.492188"/>
      </g>
     </g>
    </g>
    <g id="xtick_3">
     <g id="line2d_3">
      <g>
       <use xlink:href="#mf2c7340e6f" x="155.142112" y="307.584" style="stroke: #000000; stroke-width: 0.8"/>
      </g>
     </g>
     <g id="text_3">
      <!-- 100000 -->
      <g transform="translate(136.054612 322.182437) scale(0.1 -0.1)">
       <defs>
        <path id="DejaVuSans-31" d="M 794 531 
L 1825 531 
L 1825 4091 
L 703 3866 
L 703 4441 
L 1819 4666 
L 2450 4666 
L 2450 531 
L 3481 531 
L 3481 0 
L 794 0 
L 794 531 
z
" transform="scale(0.015625)"/>
       </defs>
       <use xlink:href="#DejaVuSans-31"/>
       <use xlink:href="#DejaVuSans-30" x="63.623047"/>
       <use xlink:href="#DejaVuSans-30" x="127.246094"/>
       <use xlink:href="#DejaVuSans-30" x="190.869141"/>
       <use xlink:href="#DejaVuSans-30" x="254.492188"/>
       <use xlink:href="#DejaVuSans-30" x="318.115234"/>
      </g>
     </g>
    </g>
    <g id="xtick_4">
     <g id="line2d_4">
      <g>
       <use xlink:href="#mf2c7340e6f" x="195.797211" y="307.584" style="stroke: #000000; stroke-width: 0.8"/>
      </g>
     </g>
     <g id="text_4">
      <!-- 150000 -->
      <g transform="translate(176.709711 322.182437) scale(0.1 -0.1)">
       <use xlink:href="#DejaVuSans-31"/>
       <use xlink:href="#DejaVuSans-35" x="63.623047"/>
       <use xlink:href="#DejaVuSans-30" x="127.246094"/>
       <use xlink:href="#DejaVuSans-30" x="190.869141"/>
       <use xlink:href="#DejaVuSans-30" x="254.492188"/>
       <use xlink:href="#DejaVuSans-30" x="318.115234"/>
      </g>
     </g>
    </g>
    <g id="xtick_5">
     <g id="line2d_5">
      <g>
       <use xlink:href="#mf2c7340e6f" x="236.45231" y="307.584" style="stroke: #000000; stroke-width: 0.8"/>
      </g>
     </g>
     <g id="text_5">
      <!-- 200000 -->
      <g transform="translate(217.36481 322.182437) scale(0.1 -0.1)">
       <defs>
        <path id="DejaVuSans-32" d="M 1228 531 
L 3431 531 
L 3431 0 
L 469 0 
L 469 531 
Q 828 903 1448 1529 
Q 2069 2156 2228 2338 
Q 2531 2678 2651 2914 
Q 2772 3150 2772 3378 
Q 2772 3750 2511 3984 
Q 2250 4219 1831 4219 
Q 1534 4219 1204 4116 
Q 875 4013 500 3803 
L 500 4441 
Q 881 4594 1212 4672 
Q 1544 4750 1819 4750 
Q 2544 4750 2975 4387 
Q 3406 4025 3406 3419 
Q 3406 3131 3298 2873 
Q 3191 2616 2906 2266 
Q 2828 2175 2409 1742 
Q 1991 1309 1228 531 
z
" transform="scale(0.015625)"/>
       </defs>
       <use xlink:href="#DejaVuSans-32"/>
       <use xlink:href="#DejaVuSans-30" x="63.623047"/>
       <use xlink:href="#DejaVuSans-30" x="127.246094"/>
       <use xlink:href="#DejaVuSans-30" x="190.869141"/>
       <use xlink:href="#DejaVuSans-30" x="254.492188"/>
       <use xlink:href="#DejaVuSans-30" x="318.115234"/>
      </g>
     </g>
    </g>
    <g id="xtick_6">
     <g id="line2d_6">
      <g>
       <use xlink:href="#mf2c7340e6f" x="277.107409" y="307.584" style="stroke: #000000; stroke-width: 0.8"/>
      </g>
     </g>
     <g id="text_6">
      <!-- 250000 -->
      <g transform="translate(258.019909 322.182437) scale(0.1 -0.1)">
       <use xlink:href="#DejaVuSans-32"/>
       <use xlink:href="#DejaVuSans-35" x="63.623047"/>
       <use xlink:href="#DejaVuSans-30" x="127.246094"/>
       <use xlink:href="#DejaVuSans-30" x="190.869141"/>
       <use xlink:href="#DejaVuSans-30" x="254.492188"/>
       <use xlink:href="#DejaVuSans-30" x="318.115234"/>
      </g>
     </g>
    </g>
    <g id="xtick_7">
     <g id="line2d_7">
      <g>
       <use xlink:href="#mf2c7340e6f" x="317.762508" y="307.584" style="stroke: #000000; stroke-width: 0.8"/>
      </g>
     </g>
     <g id="text_7">
      <!-- 300000 -->
      <g transform="translate(298.675008 322.182437) scale(0.1 -0.1)">
       <defs>
        <path id="DejaVuSans-33" d="M 2597 2516 
Q 3050 2419 3304 2112 
Q 3559 1806 3559 1356 
Q 3559 666 3084 287 
Q 2609 -91 1734 -91 
Q 1441 -91 1130 -33 
Q 819 25 488 141 
L 488 750 
Q 750 597 1062 519 
Q 1375 441 1716 441 
Q 2309 441 2620 675 
Q 2931 909 2931 1356 
Q 2931 1769 2642 2001 
Q 2353 2234 1838 2234 
L 1294 2234 
L 1294 2753 
L 1863 2753 
Q 2328 2753 2575 2939 
Q 2822 3125 2822 3475 
Q 2822 3834 2567 4026 
Q 2313 4219 1838 4219 
Q 1578 4219 1281 4162 
Q 984 4106 628 3988 
L 628 4550 
Q 988 4650 1302 4700 
Q 1616 4750 1894 4750 
Q 2613 4750 3031 4423 
Q 3450 4097 3450 3541 
Q 3450 3153 3228 2886 
Q 3006 2619 2597 2516 
z
" transform="scale(0.015625)"/>
       </defs>
       <use xlink:href="#DejaVuSans-33"/>
       <use xlink:href="#DejaVuSans-30" x="63.623047"/>
       <use xlink:href="#DejaVuSans-30" x="127.246094"/>
       <use xlink:href="#DejaVuSans-30" x="190.869141"/>
       <use xlink:href="#DejaVuSans-30" x="254.492188"/>
       <use xlink:href="#DejaVuSans-30" x="318.115234"/>
      </g>
     </g>
    </g>
    <g id="xtick_8">
     <g id="line2d_8">
      <g>
       <use xlink:href="#mf2c7340e6f" x="358.417607" y="307.584" style="stroke: #000000; stroke-width: 0.8"/>
      </g>
     </g>
     <g id="text_8">
      <!-- 350000 -->
      <g transform="translate(339.330107 322.182437) scale(0.1 -0.1)">
       <use xlink:href="#DejaVuSans-33"/>
       <use xlink:href="#DejaVuSans-35" x="63.623047"/>
       <use xlink:href="#DejaVuSans-30" x="127.246094"/>
       <use xlink:href="#DejaVuSans-30" x="190.869141"/>
       <use xlink:href="#DejaVuSans-30" x="254.492188"/>
       <use xlink:href="#DejaVuSans-30" x="318.115234"/>
      </g>
     </g>
    </g>
    <g id="xtick_9">
     <g id="line2d_9">
      <g>
       <use xlink:href="#mf2c7340e6f" x="399.072706" y="307.584" style="stroke: #000000; stroke-width: 0.8"/>
      </g>
     </g>
     <g id="text_9">
      <!-- 400000 -->
      <g transform="translate(379.985206 322.182437) scale(0.1 -0.1)">
       <defs>
        <path id="DejaVuSans-34" d="M 2419 4116 
L 825 1625 
L 2419 1625 
L 2419 4116 
z
M 2253 4666 
L 3047 4666 
L 3047 1625 
L 3713 1625 
L 3713 1100 
L 3047 1100 
L 3047 0 
L 2419 0 
L 2419 1100 
L 313 1100 
L 313 1709 
L 2253 4666 
z
" transform="scale(0.015625)"/>
       </defs>
       <use xlink:href="#DejaVuSans-34"/>
       <use xlink:href="#DejaVuSans-30" x="63.623047"/>
       <use xlink:href="#DejaVuSans-30" x="127.246094"/>
       <use xlink:href="#DejaVuSans-30" x="190.869141"/>
       <use xlink:href="#DejaVuSans-30" x="254.492188"/>
       <use xlink:href="#DejaVuSans-30" x="318.115234"/>
      </g>
     </g>
    </g>
    <g id="text_10">
     <!-- # emails -->
     <g transform="translate(213.987344 335.860562) scale(0.1 -0.1)">
      <defs>
       <path id="DejaVuSans-23" d="M 3272 2816 
L 2363 2816 
L 2100 1772 
L 3016 1772 
L 3272 2816 
z
M 2803 4594 
L 2478 3297 
L 3391 3297 
L 3719 4594 
L 4219 4594 
L 3897 3297 
L 4872 3297 
L 4872 2816 
L 3775 2816 
L 3519 1772 
L 4513 1772 
L 4513 1294 
L 3397 1294 
L 3072 0 
L 2572 0 
L 2894 1294 
L 1978 1294 
L 1656 0 
L 1153 0 
L 1478 1294 
L 494 1294 
L 494 1772 
L 1594 1772 
L 1856 2816 
L 850 2816 
L 850 3297 
L 1978 3297 
L 2297 4594 
L 2803 4594 
z
" transform="scale(0.015625)"/>
       <path id="DejaVuSans-20" transform="scale(0.015625)"/>
       <path id="DejaVuSans-65" d="M 3597 1894 
L 3597 1613 
L 953 1613 
Q 991 1019 1311 708 
Q 1631 397 2203 397 
Q 2534 397 2845 478 
Q 3156 559 3463 722 
L 3463 178 
Q 3153 47 2828 -22 
Q 2503 -91 2169 -91 
Q 1331 -91 842 396 
Q 353 884 353 1716 
Q 353 2575 817 3079 
Q 1281 3584 2069 3584 
Q 2775 3584 3186 3129 
Q 3597 2675 3597 1894 
z
M 3022 2063 
Q 3016 2534 2758 2815 
Q 2500 3097 2075 3097 
Q 1594 3097 1305 2825 
Q 1016 2553 972 2059 
L 3022 2063 
z
" transform="scale(0.015625)"/>
       <path id="DejaVuSans-6d" d="M 3328 2828 
Q 3544 3216 3844 3400 
Q 4144 3584 4550 3584 
Q 5097 3584 5394 3201 
Q 5691 2819 5691 2113 
L 5691 0 
L 5113 0 
L 5113 2094 
Q 5113 2597 4934 2840 
Q 4756 3084 4391 3084 
Q 3944 3084 3684 2787 
Q 3425 2491 3425 1978 
L 3425 0 
L 2847 0 
L 2847 2094 
Q 2847 2600 2669 2842 
Q 2491 3084 2119 3084 
Q 1678 3084 1418 2786 
Q 1159 2488 1159 1978 
L 1159 0 
L 581 0 
L 581 3500 
L 1159 3500 
L 1159 2956 
Q 1356 3278 1631 3431 
Q 1906 3584 2284 3584 
Q 2666 3584 2933 3390 
Q 3200 3197 3328 2828 
z
" transform="scale(0.015625)"/>
       <path id="DejaVuSans-61" d="M 2194 1759 
Q 1497 1759 1228 1600 
Q 959 1441 959 1056 
Q 959 750 1161 570 
Q 1363 391 1709 391 
Q 2188 391 2477 730 
Q 2766 1069 2766 1631 
L 2766 1759 
L 2194 1759 
z
M 3341 1997 
L 3341 0 
L 2766 0 
L 2766 531 
Q 2569 213 2275 61 
Q 1981 -91 1556 -91 
Q 1019 -91 701 211 
Q 384 513 384 1019 
Q 384 1609 779 1909 
Q 1175 2209 1959 2209 
L 2766 2209 
L 2766 2266 
Q 2766 2663 2505 2880 
Q 2244 3097 1772 3097 
Q 1472 3097 1187 3025 
Q 903 2953 641 2809 
L 641 3341 
Q 956 3463 1253 3523 
Q 1550 3584 1831 3584 
Q 2591 3584 2966 3190 
Q 3341 2797 3341 1997 
z
" transform="scale(0.015625)"/>
       <path id="DejaVuSans-69" d="M 603 3500 
L 1178 3500 
L 1178 0 
L 603 0 
L 603 3500 
z
M 603 4863 
L 1178 4863 
L 1178 4134 
L 603 4134 
L 603 4863 
z
" transform="scale(0.015625)"/>
       <path id="DejaVuSans-6c" d="M 603 4863 
L 1178 4863 
L 1178 0 
L 603 0 
L 603 4863 
z
" transform="scale(0.015625)"/>
       <path id="DejaVuSans-73" d="M 2834 3397 
L 2834 2853 
Q 2591 2978 2328 3040 
Q 2066 3103 1784 3103 
Q 1356 3103 1142 2972 
Q 928 2841 928 2578 
Q 928 2378 1081 2264 
Q 1234 2150 1697 2047 
L 1894 2003 
Q 2506 1872 2764 1633 
Q 3022 1394 3022 966 
Q 3022 478 2636 193 
Q 2250 -91 1575 -91 
Q 1294 -91 989 -36 
Q 684 19 347 128 
L 347 722 
Q 666 556 975 473 
Q 1284 391 1588 391 
Q 1994 391 2212 530 
Q 2431 669 2431 922 
Q 2431 1156 2273 1281 
Q 2116 1406 1581 1522 
L 1381 1569 
Q 847 1681 609 1914 
Q 372 2147 372 2553 
Q 372 3047 722 3315 
Q 1072 3584 1716 3584 
Q 2034 3584 2315 3537 
Q 2597 3491 2834 3397 
z
" transform="scale(0.015625)"/>
      </defs>
      <use xlink:href="#DejaVuSans-23"/>
      <use xlink:href="#DejaVuSans-20" x="83.789062"/>
      <use xlink:href="#DejaVuSans-65" x="115.576172"/>
      <use xlink:href="#DejaVuSans-6d" x="177.099609"/>
      <use xlink:href="#DejaVuSans-61" x="274.511719"/>
      <use xlink:href="#DejaVuSans-69" x="335.791016"/>
      <use xlink:href="#DejaVuSans-6c" x="363.574219"/>
      <use xlink:href="#DejaVuSans-73" x="391.357422"/>
     </g>
    </g>
   </g>
   <g id="matplotlib.axis_2">
    <g id="ytick_1">
     <g id="line2d_10">
      <defs>
       <path id="mf2a6162eb0" d="M 0 0 
L -3.5 0 
" style="stroke: #000000; stroke-width: 0.8"/>
      </defs>
      <g>
       <use xlink:href="#mf2a6162eb0" x="57.6" y="295.503983" style="stroke: #000000; stroke-width: 0.8"/>
      </g>
     </g>
     <g id="text_11">
      <!-- 0 -->
      <g transform="translate(44.2375 299.303202) scale(0.1 -0.1)">
       <use xlink:href="#DejaVuSans-30"/>
      </g>
     </g>
    </g>
    <g id="ytick_2">
     <g id="line2d_11">
      <g>
       <use xlink:href="#mf2a6162eb0" x="57.6" y="255.546266" style="stroke: #000000; stroke-width: 0.8"/>
      </g>
     </g>
     <g id="text_12">
      <!-- 5000 -->
      <g transform="translate(25.15 259.345485) scale(0.1 -0.1)">
       <use xlink:href="#DejaVuSans-35"/>
       <use xlink:href="#DejaVuSans-30" x="63.623047"/>
       <use xlink:href="#DejaVuSans-30" x="127.246094"/>
       <use xlink:href="#DejaVuSans-30" x="190.869141"/>
      </g>
     </g>
    </g>
    <g id="ytick_3">
     <g id="line2d_12">
      <g>
       <use xlink:href="#mf2a6162eb0" x="57.6" y="215.58855" style="stroke: #000000; stroke-width: 0.8"/>
      </g>
     </g>
     <g id="text_13">
      <!-- 10000 -->
      <g transform="translate(18.7875 219.387768) scale(0.1 -0.1)">
       <use xlink:href="#DejaVuSans-31"/>
       <use xlink:href="#DejaVuSans-30" x="63.623047"/>
       <use xlink:href="#DejaVuSans-30" x="127.246094"/>
       <use xlink:href="#DejaVuSans-30" x="190.869141"/>
       <use xlink:href="#DejaVuSans-30" x="254.492188"/>
      </g>
     </g>
    </g>
    <g id="ytick_4">
     <g id="line2d_13">
      <g>
       <use xlink:href="#mf2a6162eb0" x="57.6" y="175.630833" style="stroke: #000000; stroke-width: 0.8"/>
      </g>
     </g>
     <g id="text_14">
      <!-- 15000 -->
      <g transform="translate(18.7875 179.430052) scale(0.1 -0.1)">
       <use xlink:href="#DejaVuSans-31"/>
       <use xlink:href="#DejaVuSans-35" x="63.623047"/>
       <use xlink:href="#DejaVuSans-30" x="127.246094"/>
       <use xlink:href="#DejaVuSans-30" x="190.869141"/>
       <use xlink:href="#DejaVuSans-30" x="254.492188"/>
      </g>
     </g>
    </g>
    <g id="ytick_5">
     <g id="line2d_14">
      <g>
       <use xlink:href="#mf2a6162eb0" x="57.6" y="135.673116" style="stroke: #000000; stroke-width: 0.8"/>
      </g>
     </g>
     <g id="text_15">
      <!-- 20000 -->
      <g transform="translate(18.7875 139.472335) scale(0.1 -0.1)">
       <use xlink:href="#DejaVuSans-32"/>
       <use xlink:href="#DejaVuSans-30" x="63.623047"/>
       <use xlink:href="#DejaVuSans-30" x="127.246094"/>
       <use xlink:href="#DejaVuSans-30" x="190.869141"/>
       <use xlink:href="#DejaVuSans-30" x="254.492188"/>
      </g>
     </g>
    </g>
    <g id="ytick_6">
     <g id="line2d_15">
      <g>
       <use xlink:href="#mf2a6162eb0" x="57.6" y="95.7154" style="stroke: #000000; stroke-width: 0.8"/>
      </g>
     </g>
     <g id="text_16">
      <!-- 25000 -->
      <g transform="translate(18.7875 99.514618) scale(0.1 -0.1)">
       <use xlink:href="#DejaVuSans-32"/>
       <use xlink:href="#DejaVuSans-35" x="63.623047"/>
       <use xlink:href="#DejaVuSans-30" x="127.246094"/>
       <use xlink:href="#DejaVuSans-30" x="190.869141"/>
       <use xlink:href="#DejaVuSans-30" x="254.492188"/>
      </g>
     </g>
    </g>
    <g id="ytick_7">
     <g id="line2d_16">
      <g>
       <use xlink:href="#mf2a6162eb0" x="57.6" y="55.757683" style="stroke: #000000; stroke-width: 0.8"/>
      </g>
     </g>
     <g id="text_17">
      <!-- 30000 -->
      <g transform="translate(18.7875 59.556902) scale(0.1 -0.1)">
       <use xlink:href="#DejaVuSans-33"/>
       <use xlink:href="#DejaVuSans-30" x="63.623047"/>
       <use xlink:href="#DejaVuSans-30" x="127.246094"/>
       <use xlink:href="#DejaVuSans-30" x="190.869141"/>
       <use xlink:href="#DejaVuSans-30" x="254.492188"/>
      </g>
     </g>
    </g>
    <g id="text_18">
     <!-- # addresses -->
     <g transform="translate(12.707812 205.629562) rotate(-90) scale(0.1 -0.1)">
      <defs>
       <path id="DejaVuSans-64" d="M 2906 2969 
L 2906 4863 
L 3481 4863 
L 3481 0 
L 2906 0 
L 2906 525 
Q 2725 213 2448 61 
Q 2172 -91 1784 -91 
Q 1150 -91 751 415 
Q 353 922 353 1747 
Q 353 2572 751 3078 
Q 1150 3584 1784 3584 
Q 2172 3584 2448 3432 
Q 2725 3281 2906 2969 
z
M 947 1747 
Q 947 1113 1208 752 
Q 1469 391 1925 391 
Q 2381 391 2643 752 
Q 2906 1113 2906 1747 
Q 2906 2381 2643 2742 
Q 2381 3103 1925 3103 
Q 1469 3103 1208 2742 
Q 947 2381 947 1747 
z
" transform="scale(0.015625)"/>
       <path id="DejaVuSans-72" d="M 2631 2963 
Q 2534 3019 2420 3045 
Q 2306 3072 2169 3072 
Q 1681 3072 1420 2755 
Q 1159 2438 1159 1844 
L 1159 0 
L 581 0 
L 581 3500 
L 1159 3500 
L 1159 2956 
Q 1341 3275 1631 3429 
Q 1922 3584 2338 3584 
Q 2397 3584 2469 3576 
Q 2541 3569 2628 3553 
L 2631 2963 
z
" transform="scale(0.015625)"/>
      </defs>
      <use xlink:href="#DejaVuSans-23"/>
      <use xlink:href="#DejaVuSans-20" x="83.789062"/>
      <use xlink:href="#DejaVuSans-61" x="115.576172"/>
      <use xlink:href="#DejaVuSans-64" x="176.855469"/>
      <use xlink:href="#DejaVuSans-64" x="240.332031"/>
      <use xlink:href="#DejaVuSans-72" x="303.808594"/>
      <use xlink:href="#DejaVuSans-65" x="342.671875"/>
      <use xlink:href="#DejaVuSans-73" x="404.195312"/>
      <use xlink:href="#DejaVuSans-73" x="456.294922"/>
      <use xlink:href="#DejaVuSans-65" x="508.394531"/>
      <use xlink:href="#DejaVuSans-73" x="569.917969"/>
     </g>
    </g>
   </g>
   <g id="line2d_17">
    <path d="M 73.832727 295.488 
L 74.030311 293.785801 
L 74.077471 293.705886 
L 74.190492 293.330283 
L 74.228708 293.226393 
L 74.357991 292.682968 
L 74.496218 292.419247 
L 74.591351 292.323349 
L 74.706812 292.235442 
L 74.80845 292.131552 
L 74.940172 291.931763 
L 75.101979 291.827873 
L 75.225571 291.708 
L 75.237767 291.708 
L 75.349976 291.484237 
L 75.352415 291.484237 
L 75.464623 291.180558 
L 75.585775 291.076668 
L 75.728068 290.772989 
L 75.813444 290.669099 
L 75.925652 290.62115 
L 76.011841 290.613159 
L 76.123236 288.127789 
L 76.269594 288.023899 
L 76.398877 287.848085 
L 76.420018 287.784152 
L 76.532226 287.640304 
L 76.60134 287.608338 
L 76.712734 287.008973 
L 76.791605 286.905082 
L 76.903 286.225801 
L 76.980245 286.177852 
L 77.092453 286.089945 
L 77.147744 285.994047 
L 77.278653 285.602461 
L 77.937266 285.498571 
L 78.049474 285.490579 
L 78.521073 285.386689 
L 78.640599 285.306774 
L 78.686133 285.202884 
L 78.814603 285.035061 
L 78.847127 284.931171 
L 79.004869 284.475653 
L 79.064225 284.371763 
L 79.203266 284.100051 
L 79.236603 284.028127 
L 79.352064 283.804364 
L 79.422803 283.708465 
L 79.540703 283.508677 
L 79.580545 283.47671 
L 79.692753 283.244956 
L 79.906599 283.141066 
L 80.022873 283.037175 
L 80.048892 282.941277 
L 80.183054 282.485759 
L 80.28957 282.381869 
L 80.375759 282.325928 
L 80.487154 280.016372 
L 80.580661 279.920474 
L 80.695308 279.840558 
L 80.718888 279.808592 
L 80.830283 279.664744 
L 80.962819 279.560854 
L 81.105924 279.249184 
L 81.172599 279.145294 
L 81.293751 279.049395 
L 81.611674 278.945505 
L 81.7312 278.777683 
L 81.909269 278.729734 
L 82.020664 278.378106 
L 82.429655 278.314173 
L 82.541049 277.794723 
L 82.818317 277.698825 
L 82.930525 277.650875 
L 83.397246 277.546985 
L 83.514333 277.491044 
L 84.019269 277.387154 
L 84.138795 277.307239 
L 84.52014 277.203349 
L 84.646171 277.059501 
L 84.798221 276.955611 
L 84.915307 276.69189 
L 84.964093 276.588 
L 85.14135 275.940685 
L 85.173061 275.892736 
L 85.294213 275.093581 
L 85.335681 275.077598 
L 85.448702 274.56614 
L 85.509685 274.526182 
L 85.621893 274.230495 
L 85.699138 274.142588 
L 85.812159 274.078655 
L 86.063407 273.974765 
L 86.178055 273.942799 
L 86.352872 273.838909 
L 86.474837 273.735019 
L 86.511426 273.631129 
L 86.645588 273.407366 
L 86.765114 273.303476 
L 86.907407 272.999797 
L 87.020428 272.895907 
L 87.159469 272.624195 
L 87.223704 272.536288 
L 87.342417 272.088761 
L 87.379006 272.056795 
L 87.491214 271.673201 
L 87.656274 271.569311 
L 88.029488 268.996034 
L 88.061199 268.956076 
L 88.173407 268.492567 
L 88.301877 268.324744 
L 88.310008 268.324744 
L 88.423842 267.869226 
L 88.494582 267.765336 
L 88.615734 267.669438 
L 88.762093 267.565548 
L 88.877553 267.477641 
L 88.97106 267.373751 
L 89.211738 266.103095 
L 89.300366 266.063137 
L 89.411761 265.831383 
L 89.518278 265.783433 
L 89.630486 265.583645 
L 89.922389 265.487746 
L 90.036224 265.423814 
L 90.210227 265.35189 
L 90.324062 264.800474 
L 90.559861 264.720558 
L 90.672069 264.648634 
L 90.852578 264.544744 
L 90.975356 264.432863 
L 91.1022 264.328973 
L 91.228231 264.185125 
L 91.292466 264.081235 
L 91.417684 263.945378 
L 91.483545 263.84948 
L 91.597379 263.561784 
L 91.67625 263.48986 
L 91.788458 263.242123 
L 91.907984 263.0743 
L 92.0641 262.634765 
L 92.137279 262.530875 
L 92.269815 262.323095 
L 92.408042 262.219205 
L 92.546269 261.955484 
L 92.693441 261.851594 
L 92.805649 261.603856 
L 92.899969 261.499966 
L 93.026813 261.348127 
L 93.263425 261.244237 
L 93.438242 260.620896 
L 93.55045 260.517006 
L 93.673229 260.27726 
L 93.861868 260.17337 
L 93.978955 260.053497 
L 94.127753 259.957598 
L 94.252157 259.685886 
L 94.333467 259.621953 
L 94.445676 259.350241 
L 94.609109 259.246351 
L 94.731074 259.142461 
L 94.798562 259.046562 
L 94.888816 258.854765 
L 95.000211 253.652271 
L 95.054689 253.548381 
L 95.183972 253.372567 
L 95.270974 253.268677 
L 95.40351 253.060896 
L 95.482381 252.957006 
L 95.6263 252.637345 
L 95.730377 252.533455 
L 95.84909 252.461531 
L 96.064562 252.365632 
L 96.180835 252.253751 
L 96.274342 252.14986 
L 96.398747 251.750283 
L 96.528843 251.646393 
L 96.670323 251.350706 
L 96.7248 251.246816 
L 96.853271 251.078994 
L 97.015078 250.975104 
L 97.1468 250.775315 
L 97.164689 250.767323 
L 97.276897 250.455653 
L 97.398862 250.23189 
L 97.428947 250.223899 
L 97.542781 249.688465 
L 97.709467 249.584575 
L 97.828993 249.50466 
L 97.955024 249.408761 
L 98.076989 249.184998 
L 98.181879 249.113074 
L 98.294087 248.793412 
L 98.369706 248.689522 
L 98.491671 248.585632 
L 98.633151 248.481742 
L 98.75349 248.393835 
L 98.980345 248.289945 
L 99.097432 248.234004 
L 99.23322 248.194047 
L 99.365756 246.084279 
L 99.58448 245.980389 
L 99.712137 245.820558 
L 99.885328 245.716668 
L 100.215447 243.566943 
L 100.375628 243.463053 
L 100.498407 243.351171 
L 100.587035 243.287239 
L 100.699243 242.943603 
L 100.787871 242.847704 
L 100.902518 242.767789 
L 101.011474 242.679882 
L 101.129374 242.472101 
L 101.183039 242.424152 
L 101.295247 242.208381 
L 101.428595 241.992609 
L 101.544869 241.888719 
L 101.664395 241.808803 
L 101.772538 241.704913 
L 101.897755 241.569057 
L 101.987196 241.473159 
L 102.109162 241.257387 
L 102.148191 241.153497 
L 102.300241 240.75392 
L 102.473431 240.658021 
L 102.585639 240.594089 
L 102.87673 240.490199 
L 102.993004 240.442249 
L 103.183269 240.338359 
L 103.306048 240.226478 
L 103.524772 240.122588 
L 103.641859 240.066647 
L 103.749188 240.042672 
L 103.861396 239.802926 
L 103.963847 239.699036 
L 104.090691 239.547197 
L 104.150861 239.531214 
L 104.263069 239.299459 
L 104.630591 239.195569 
L 104.758248 239.035738 
L 104.784267 239.035738 
L 104.895662 238.803983 
L 105.107069 238.772017 
L 105.219277 238.540262 
L 105.354252 238.436372 
L 105.479469 238.300516 
L 105.590051 238.196626 
L 105.730718 237.90893 
L 105.996602 237.80504 
L 106.143774 237.453412 
L 106.20557 237.349522 
L 106.320217 237.165717 
L 106.511296 237.061827 
L 106.664159 236.654258 
L 106.848733 236.550368 
L 106.972325 236.430495 
L 107.056074 236.326605 
L 107.173161 236.19874 
L 107.24634 236.09485 
L 107.370745 235.966985 
L 107.474822 235.863095 
L 107.588656 235.743222 
L 107.687854 235.647323 
L 107.801689 235.583391 
L 107.948047 235.479501 
L 108.06676 235.31967 
L 108.293615 235.223772 
L 108.414768 234.920093 
L 108.448918 234.90411 
L 108.560313 232.802334 
L 108.761962 232.698444 
L 108.884741 232.586562 
L 109.100213 232.506647 
L 109.213234 232.394765 
L 109.517334 232.290875 
L 109.650683 232.075104 
L 109.77834 231.971214 
L 109.901118 231.859332 
L 110.288968 231.755442 
L 110.401176 231.74745 
L 110.493869 231.667535 
L 110.606077 231.43578 
L 110.854887 231.33189 
L 110.978478 231.212017 
L 111.043526 231.164068 
L 111.154921 230.892355 
L 111.253307 230.836414 
L 111.365515 230.684575 
L 111.512686 230.580685 
L 111.647661 230.34893 
L 111.752551 230.24504 
L 111.877769 230.109184 
L 112.098933 230.005294 
L 112.224963 229.861446 
L 112.490035 229.757556 
L 112.607934 229.693624 
L 112.795761 229.589734 
L 112.92667 229.397937 
L 113.000663 229.294047 
L 113.163283 228.790579 
L 113.456 228.686689 
L 113.575526 228.606774 
L 113.734894 228.502884 
L 113.857672 228.391002 
L 113.956058 228.295104 
L 114.073144 228.167239 
L 114.631745 228.063349 
L 114.760215 227.895526 
L 114.915518 227.791636 
L 115.065942 227.408042 
L 115.133429 227.304152 
L 115.24889 227.264195 
L 115.276535 227.256203 
L 115.388743 227.040431 
L 115.505017 226.992482 
L 116.030281 226.888592 
L 116.157938 226.728761 
L 116.31324 226.624871 
L 116.427888 226.449057 
L 116.440897 226.433074 
L 116.552292 226.001531 
L 116.794597 225.897641 
L 116.919001 225.769776 
L 117.05235 225.665886 
L 117.175941 225.546013 
L 117.609325 225.498063 
L 117.721533 225.290283 
L 118.282573 225.186393 
L 118.401286 225.114469 
L 118.511055 225.010579 
L 118.642777 224.810791 
L 118.707826 224.706901 
L 118.828978 224.611002 
L 118.93712 224.507112 
L 119.079413 224.203433 
L 119.110311 224.147493 
L 119.221706 223.628042 
L 119.297324 223.524152 
L 119.414411 223.404279 
L 119.53719 223.292397 
L 119.584349 223.212482 
L 119.696558 223.14855 
L 119.803074 223.04466 
L 119.925852 222.932778 
L 120.049444 222.828888 
L 120.167344 222.764956 
L 120.252719 222.661066 
L 120.383629 222.469268 
L 120.547875 222.365378 
L 120.664962 222.309438 
L 120.853602 222.205548 
L 120.980446 222.053708 
L 121.099158 221.949818 
L 121.221937 221.837937 
L 121.334958 221.734047 
L 121.454484 221.654131 
L 121.568318 221.550241 
L 121.71549 221.198613 
L 121.800052 221.094723 
L 121.924457 220.966858 
L 122.047235 220.862968 
L 122.17164 220.735104 
L 122.277343 220.631214 
L 122.406626 220.4554 
L 122.60421 220.35151 
L 122.72211 220.287577 
L 122.80342 220.183687 
L 122.883104 220.087789 
L 122.994499 218.049945 
L 123.065239 217.946055 
L 123.176634 217.474554 
L 123.247374 217.370664 
L 123.361208 217.346689 
L 123.462033 217.314723 
L 123.573428 216.915146 
L 123.68157 216.811256 
L 123.800283 216.739332 
L 123.979166 216.635442 
L 124.100318 216.539543 
L 124.332865 216.435653 
L 124.452391 216.355738 
L 124.641031 216.251848 
L 124.759744 216.179924 
L 124.835362 216.076034 
L 124.955701 215.988127 
L 125.13377 215.884237 
L 125.253296 215.804321 
L 125.340298 215.700431 
L 125.486657 215.356795 
L 125.748476 215.252905 
L 125.871254 215.141023 
L 126.104614 215.037133 
L 126.245281 214.749438 
L 126.341227 214.70948 
L 126.453435 214.405801 
L 126.5754 214.301911 
L 126.702244 214.150072 
L 126.807947 214.046182 
L 126.855107 213.167112 
L 126.966502 212.320008 
L 127.069766 212.216118 
L 127.190105 212.128211 
L 127.283612 212.024321 
L 127.402325 211.952397 
L 127.620236 211.848507 
L 127.741389 211.752609 
L 127.934094 211.648719 
L 128.054433 211.560812 
L 128.1455 211.456922 
L 128.271531 211.313074 
L 128.365851 211.209184 
L 128.489442 211.089311 
L 128.667512 211.009395 
L 128.815496 207.349268 
L 128.917134 207.245378 
L 129.035034 207.181446 
L 129.122849 207.117514 
L 129.234244 206.925717 
L 129.31718 206.845801 
L 129.431014 206.566097 
L 129.67088 206.462207 
L 129.784714 205.655061 
L 129.883912 205.551171 
L 130.003438 205.471256 
L 130.254687 205.367366 
L 130.378278 205.247493 
L 130.726286 205.143603 
L 130.842559 205.095653 
L 130.94501 205.007746 
L 131.060471 204.87189 
L 131.156417 204.768 
L 131.275943 204.688085 
L 131.481658 204.592186 
L 131.593053 204.576203 
L 132.323218 204.472313 
L 132.441118 204.408381 
L 132.601299 204.336457 
L 132.713507 204.232567 
L 134.782852 204.128677 
L 134.898312 204.088719 
L 139.507787 203.984829 
L 139.620808 203.968846 
L 145.383262 203.864956 
L 145.49547 203.817006 
L 153.098787 203.713116 
L 153.210995 203.705125 
L 162.127471 203.601235 
L 162.242119 203.569268 
L 181.080878 203.465378 
L 181.222358 203.169691 
L 181.497187 203.065801 
L 181.630535 202.85003 
L 181.644358 202.826055 
L 181.757379 202.522376 
L 181.84682 202.418486 
L 181.959842 202.17874 
L 182.066358 202.07485 
L 182.194828 201.907027 
L 182.500554 201.811129 
L 182.613576 201.747197 
L 182.739606 201.643307 
L 182.860759 201.547408 
L 182.965649 201.443518 
L 183.088427 201.331636 
L 183.24373 201.227746 
L 183.373013 201.051932 
L 183.421799 200.948042 
L 183.555961 200.724279 
L 183.604747 200.67633 
L 183.717768 200.484533 
L 183.921857 200.380643 
L 184.047074 200.244786 
L 184.249537 200.140896 
L 184.37882 199.965082 
L 184.539001 199.861192 
L 184.656901 199.79726 
L 184.870747 199.69337 
L 184.98946 199.621446 
L 185.190296 199.525548 
L 185.316327 198.91819 
L 185.378935 198.8143 
L 185.504153 198.678444 
L 185.595221 198.574554 
L 185.731009 198.334808 
L 185.829394 198.238909 
L 185.945668 198.127027 
L 185.969248 198.023137 
L 186.096091 197.871298 
L 186.179841 197.7754 
L 186.324573 196.776457 
L 186.408323 196.68855 
L 186.525409 196.504744 
L 186.759583 196.448803 
L 186.871791 196.001277 
L 186.966924 195.897387 
L 187.097833 195.70559 
L 187.155563 195.6017 
L 187.276716 195.39392 
L 187.412504 195.29003 
L 187.528777 195.24208 
L 187.641798 195.13819 
L 187.762951 195.042292 
L 187.967039 194.938402 
L 188.088191 194.842503 
L 188.319925 194.746605 
L 188.436199 194.586774 
L 188.653297 194.482884 
L 188.793964 194.195188 
L 188.921621 194.107281 
L 189.036268 193.9954 
L 189.085054 193.971425 
L 189.20458 190.710875 
L 189.389968 190.606985 
L 189.613571 189.504152 
L 189.811967 189.400262 
L 189.928241 189.352313 
L 190.06159 189.248423 
L 190.182742 189.152524 
L 190.196565 189.144533 
L 190.30796 182.783264 
L 190.506357 182.679374 
L 190.65678 182.29578 
L 190.786877 182.19189 
L 190.921039 181.968127 
L 191.101547 181.888211 
L 191.213755 181.057091 
L 191.334094 180.969184 
L 191.378002 180.865294 
L 191.527613 180.489691 
L 191.623559 180.457725 
L 191.735767 180.289903 
L 191.856919 180.186013 
L 191.976445 180.106097 
L 192.156954 180.002207 
L 192.281358 179.874342 
L 192.489512 179.770452 
L 192.620422 179.578655 
L 192.748892 179.474765 
L 192.893624 179.147112 
L 193.109909 179.043222 
L 193.227809 178.97929 
L 193.284726 178.939332 
L 193.397747 178.451848 
L 193.579882 178.347958 
L 193.698595 178.276034 
L 193.983994 178.172144 
L 194.157998 177.556795 
L 194.375096 177.468888 
L 194.488117 177.396964 
L 194.836938 177.293074 
L 194.95809 177.197175 
L 195.167057 177.093285 
L 195.282518 177.053328 
L 195.442699 176.981404 
L 195.554907 176.797598 
L 195.810221 176.693708 
L 195.931373 176.59781 
L 196.015122 176.589818 
L 196.126517 176.406013 
L 196.563966 176.302123 
L 196.69325 176.126309 
L 196.850178 176.022419 
L 196.97377 175.902545 
L 197.13639 175.798655 
L 197.261608 175.662799 
L 197.398209 175.574892 
L 197.510417 175.502968 
L 197.719384 175.399078 
L 197.848667 175.223264 
L 197.966567 175.127366 
L 198.082841 175.023476 
L 198.377997 174.919586 
L 198.49427 174.871636 
L 198.595908 174.807704 
L 198.708116 174.671848 
L 198.751211 174.639882 
L 198.863419 174.448085 
L 199.069947 174.344195 
L 199.190286 174.152397 
L 199.266717 174.136414 
L 199.378925 173.23337 
L 199.577322 173.153455 
L 199.68953 172.81781 
L 199.76271 172.71392 
L 199.883049 172.626013 
L 199.930209 172.570072 
L 200.042417 172.338317 
L 200.22943 172.242419 
L 200.344077 172.034638 
L 200.445715 171.930748 
L 200.563615 171.595104 
L 200.799415 171.491214 
L 200.919754 171.403307 
L 201.045784 171.307408 
L 201.158806 171.003729 
L 201.232798 170.899839 
L 201.353137 170.811932 
L 201.58975 170.716034 
L 201.706836 170.588169 
L 202.11664 170.484279 
L 202.231287 170.452313 
L 202.634586 170.348423 
L 202.749233 170.316457 
L 203.014304 170.220558 
L 203.130578 170.108677 
L 203.210262 170.068719 
L 203.32247 169.717091 
L 203.418416 169.701108 
L 203.530624 169.493328 
L 203.768863 169.405421 
L 203.881071 169.301531 
L 204.038 169.205632 
L 204.151021 169.157683 
L 204.370558 169.053793 
L 204.486832 169.005844 
L 204.642135 168.901953 
L 204.758408 168.854004 
L 205.050312 168.750114 
L 205.166585 168.702165 
L 205.330019 168.598275 
L 205.464181 168.374512 
L 205.57151 168.270622 
L 205.691036 168.190706 
L 205.929275 168.094808 
L 206.157757 165.77726 
L 206.257768 165.67337 
L 206.380547 165.561488 
L 206.510643 165.457598 
L 206.62773 165.401658 
L 206.770835 165.297767 
L 206.888735 165.233835 
L 207.13104 165.129945 
L 207.248939 164.994089 
L 207.513198 164.914173 
L 207.625406 164.834258 
L 207.835999 164.730368 
L 207.991302 164.298825 
L 208.048219 164.266858 
L 208.160427 163.931214 
L 208.227914 163.827323 
L 208.348253 163.739416 
L 208.471845 163.635526 
L 208.594623 163.523645 
L 208.936126 163.419755 
L 209.0524 163.371805 
L 209.270311 163.267915 
L 209.398781 163.100093 
L 209.498793 163.012186 
L 209.611814 162.892313 
L 209.869567 162.788423 
L 209.997224 162.628592 
L 210.177733 162.524702 
L 210.294006 162.41282 
L 210.402149 162.316922 
L 210.518423 162.213032 
L 210.589975 162.165082 
L 210.704623 161.645632 
L 210.825775 161.549734 
L 211.020106 161.445844 
L 211.133941 161.421869 
L 211.298187 161.317979 
L 211.42991 161.11819 
L 211.732384 161.0143 
L 211.852723 160.926393 
L 212.068195 160.822503 
L 212.187721 160.742588 
L 212.386931 160.662672 
L 212.502391 160.486858 
L 212.611347 160.430918 
L 212.725994 160.055315 
L 212.814623 159.951425 
L 212.935775 159.855526 
L 213.091077 159.751636 
L 213.211416 159.663729 
L 213.367532 159.559839 
L 213.481366 159.503899 
L 213.639921 159.400008 
L 213.756195 159.352059 
L 213.97248 159.248169 
L 214.109894 158.99244 
L 214.322114 158.88855 
L 214.446518 158.760685 
L 214.621335 158.656795 
L 214.739235 158.520939 
L 214.940884 158.417049 
L 215.072607 158.21726 
L 215.155543 158.11337 
L 215.29621 157.825674 
L 215.380772 157.721784 
L 215.507616 157.569945 
L 215.594618 157.466055 
L 215.719836 157.330199 
L 215.842614 157.226309 
L 215.96458 157.122419 
L 216.006048 157.082461 
L 216.117443 154.373328 
L 216.267054 154.269438 
L 216.380888 154.245463 
L 216.530499 154.141573 
L 216.650838 154.053666 
L 216.785813 153.949776 
L 216.906965 153.853877 
L 217.008603 153.749987 
L 217.13626 153.590156 
L 217.336283 153.486266 
L 217.451743 153.446309 
L 217.633065 153.342419 
L 217.753404 153.254512 
L 217.972128 153.150622 
L 218.090841 153.078698 
L 218.133123 153.062715 
L 218.244518 152.679121 
L 218.471373 152.57523 
L 218.589273 152.511298 
L 218.9633 152.4154 
L 219.076321 152.351467 
L 219.268213 152.247577 
L 219.415384 151.895949 
L 219.625165 151.792059 
L 219.758513 151.576288 
L 219.915442 151.472397 
L 220.032529 151.416457 
L 220.223608 151.312567 
L 220.348012 151.184702 
L 220.552914 151.088803 
L 220.666748 151.024871 
L 220.80091 150.920981 
L 220.83506 150.785125 
L 220.946455 148.283772 
L 221.070047 148.163899 
L 221.315604 148.060008 
L 221.444887 147.884195 
L 221.661172 147.780304 
L 221.775006 147.75633 
L 221.960394 147.65244 
L 222.074228 147.588507 
L 222.185623 147.484617 
L 222.31328 147.324786 
L 222.414918 147.228888 
L 222.526313 145.294934 
L 222.658848 145.191044 
L 222.778374 145.111129 
L 222.901966 145.023222 
L 223.014174 144.695569 
L 223.265422 144.591679 
L 223.396332 144.399882 
L 223.53212 144.295992 
L 223.645141 144.192101 
L 223.764667 144.112186 
L 223.876875 143.712609 
L 224.14032 143.608719 
L 224.377746 142.37003 
L 224.657453 142.26614 
L 224.778605 142.170241 
L 224.893252 142.106309 
L 225.004647 141.690748 
L 225.400628 141.586858 
L 225.516089 141.546901 
L 225.690092 141.474977 
L 225.8023 141.371087 
L 225.942154 141.339121 
L 226.053549 141.243222 
L 226.48368 141.139332 
L 226.603206 141.059416 
L 226.760948 140.987493 
L 226.873969 140.851636 
L 227.278081 140.747746 
L 227.393541 140.707789 
L 227.663491 140.603899 
L 227.784643 140.508 
L 227.917992 140.40411 
L 228.031013 140.388127 
L 228.284701 140.284237 
L 228.414797 140.100431 
L 228.662793 139.996541 
L 228.77988 139.9406 
L 228.922986 139.83671 
L 229.039259 139.788761 
L 229.286442 139.684871 
L 229.402716 139.636922 
L 229.690554 139.533032 
L 229.806828 139.485082 
L 230.11418 139.397175 
L 230.227201 139.325252 
L 230.295502 139.245336 
L 230.40771 139.149438 
L 230.552442 139.045548 
L 230.672781 138.957641 
L 230.763036 138.853751 
L 230.877683 138.821784 
L 230.977695 138.717894 
L 231.096407 138.64597 
L 231.370423 138.54208 
L 231.489949 138.462165 
L 231.710299 138.358275 
L 231.837143 138.206436 
L 232.020904 138.110537 
L 232.135552 138.038613 
L 232.198974 137.966689 
L 232.311182 137.822841 
L 232.503074 137.718951 
L 232.625039 137.615061 
L 232.777089 137.511171 
L 232.898241 137.415273 
L 232.99744 137.375315 
L 233.109648 137.183518 
L 233.317802 137.087619 
L 233.432449 136.975738 
L 233.474731 136.967746 
L 233.586939 136.648085 
L 233.683698 136.544195 
L 233.796719 136.448296 
L 233.857702 136.344406 
L 233.96991 136.184575 
L 234.017883 136.152609 
L 234.130091 136.024744 
L 234.357759 135.920854 
L 234.474033 135.808973 
L 234.717964 135.705082 
L 234.830172 135.369438 
L 234.996858 135.265548 
L 235.122888 135.1217 
L 235.374137 135.01781 
L 235.501794 134.857979 
L 235.770118 134.754089 
L 235.888017 134.690156 
L 236.121378 134.586266 
L 236.236025 134.5543 
L 236.454749 134.45041 
L 236.575902 134.354512 
L 236.78243 134.250622 
L 236.900329 134.186689 
L 237.023108 134.082799 
L 237.143447 133.994892 
L 237.219878 133.891002 
L 237.345909 133.747154 
L 237.615046 133.643264 
L 237.756526 133.347577 
L 237.828079 133.243687 
L 237.950044 133.139797 
L 238.227312 133.035907 
L 238.341146 133.011932 
L 238.598086 132.908042 
L 238.711107 132.892059 
L 238.917635 132.788169 
L 239.035535 132.724237 
L 239.221736 132.620347 
L 239.342075 132.53244 
L 239.561612 132.42855 
L 239.682764 132.332651 
L 239.925882 132.228761 
L 240.040529 132.156837 
L 240.247057 132.052947 
L 240.364957 131.989015 
L 240.765816 131.885125 
L 240.87965 131.86115 
L 241.247173 131.75726 
L 241.375643 131.589438 
L 241.90172 131.509522 
L 242.013928 131.44559 
L 242.320467 131.3417 
L 242.435928 131.301742 
L 242.882321 131.197852 
L 242.994529 131.18986 
L 243.196991 131.08597 
L 243.311638 131.054004 
L 243.623057 130.950114 
L 243.741769 130.87819 
L 244.261342 130.7743 
L 244.374363 130.758317 
L 244.927272 130.654427 
L 245.042733 130.614469 
L 245.611091 130.510579 
L 245.724925 130.486605 
L 246.0461 130.414681 
L 246.158308 130.230875 
L 246.459156 130.166943 
L 246.570551 130.015104 
L 246.967345 129.911214 
L 247.080366 129.89523 
L 247.704828 129.79134 
L 247.820289 129.751383 
L 248.043079 129.647493 
L 248.158539 129.607535 
L 248.240663 129.58356 
L 248.352058 129.391763 
L 248.662663 129.287873 
L 248.789507 129.136034 
L 249.197684 129.032144 
L 249.312331 129.000178 
L 249.325341 129.000178 
L 249.436736 128.680516 
L 249.953055 128.576626 
L 250.072581 128.49671 
L 250.366924 128.424786 
L 250.479132 128.304913 
L 250.544994 128.280939 
L 250.657202 128.129099 
L 250.852346 128.025209 
L 250.966994 127.993243 
L 251.423957 127.889353 
L 251.537791 127.865378 
L 251.960604 127.761488 
L 252.075252 127.729522 
L 252.449279 127.625632 
L 252.563113 127.601658 
L 253.20465 127.497767 
L 253.318485 127.473793 
L 253.762438 127.369903 
L 253.881964 127.289987 
L 254.353563 127.186097 
L 254.469024 127.14614 
L 254.934118 127.050241 
L 255.049579 126.962334 
L 255.646396 126.858444 
L 255.764295 126.794512 
L 256.176538 126.690622 
L 256.293625 126.634681 
L 256.718877 126.586732 
L 256.830272 125.388 
L 257.035174 125.300093 
L 257.147382 125.244152 
L 257.736068 125.140262 
L 257.847463 124.141319 
L 258.323127 124.037429 
L 258.436148 124.021446 
L 259.012638 123.917556 
L 259.128098 123.877598 
L 259.53221 123.821658 
L 259.644418 123.038486 
L 260.0591 122.942588 
L 260.170495 122.838698 
L 260.658356 122.734808 
L 260.779508 122.638909 
L 261.051897 122.543011 
L 261.164106 122.511044 
L 261.604807 122.431129 
L 261.716202 122.327239 
L 262.206502 122.223349 
L 262.322776 122.1754 
L 262.723635 122.079501 
L 262.835843 121.991594 
L 263.370051 121.887704 
L 263.483885 121.863729 
L 263.91483 121.759839 
L 264.031103 121.71189 
L 264.356344 121.608 
L 264.468552 121.288338 
L 265.101145 121.184448 
L 265.21498 121.160474 
L 265.856517 121.056584 
L 265.972791 121.008634 
L 266.509438 120.904744 
L 266.621646 120.896753 
L 266.6436 120.896753 
L 266.755808 120.704956 
L 266.786706 120.601066 
L 266.902979 120.553116 
L 267.14691 120.449226 
L 267.266436 120.369311 
L 267.499796 120.321362 
L 267.611191 120.145548 
L 268.036443 120.041658 
L 268.154343 119.977725 
L 268.335665 119.873835 
L 268.449499 119.84986 
L 268.908902 119.74597 
L 269.027615 119.674047 
L 269.371557 119.578148 
L 269.483765 119.458275 
L 269.692732 119.354385 
L 269.80738 119.322419 
L 270.296054 119.218529 
L 270.410701 119.186562 
L 270.846524 119.082672 
L 270.965237 119.010748 
L 271.575876 118.906858 
L 271.694589 118.834934 
L 271.851518 118.731044 
L 271.964539 118.659121 
L 272.196273 118.55523 
L 272.309294 118.515273 
L 272.477606 118.411383 
L 272.589815 118.403391 
L 272.784959 118.299501 
L 272.905298 118.211594 
L 273.70783 118.107704 
L 273.822477 118.075738 
L 274.314404 117.971848 
L 274.425799 117.756076 
L 274.637205 117.652186 
L 274.7486 117.532313 
L 274.934801 117.476372 
L 275.047009 117.372482 
L 275.27549 117.268592 
L 275.389325 117.244617 
L 275.872307 117.140727 
L 275.990207 117.076795 
L 276.420338 116.972905 
L 276.540677 116.884998 
L 276.591089 116.877006 
L 276.702484 116.477429 
L 276.813879 116.373539 
L 276.930153 116.32559 
L 277.352153 116.2217 
L 277.464361 116.157767 
L 277.767648 116.053877 
L 277.883922 116.005928 
L 278.203471 115.902038 
L 278.322997 115.822123 
L 278.713286 115.718233 
L 278.842569 115.542419 
L 279.064546 115.478486 
L 279.175941 115.254723 
L 279.523948 115.158825 
L 279.636156 115.126858 
L 279.805282 115.022968 
L 279.91749 115.014977 
L 280.168738 114.911087 
L 280.285012 114.863137 
L 280.836295 114.759247 
L 280.950942 114.727281 
L 281.235528 114.623391 
L 281.353428 114.559459 
L 281.456692 114.535484 
L 281.568087 114.407619 
L 282.149455 114.303729 
L 282.261663 114.271763 
L 282.499088 114.167873 
L 282.613736 114.135907 
L 282.835713 114.032017 
L 282.951986 113.984068 
L 283.197543 113.904152 
L 283.308938 113.712355 
L 283.478876 113.688381 
L 283.590271 113.368719 
L 283.667516 113.280812 
L 283.779724 113.033074 
L 284.017963 112.937175 
L 284.131797 112.873243 
L 284.380606 112.769353 
L 284.496067 112.729395 
L 284.935142 112.625505 
L 285.050602 112.585548 
L 285.380722 112.481658 
L 285.496995 112.433708 
L 285.706776 112.329818 
L 285.821423 112.297852 
L 285.965342 112.201953 
L 286.076737 111.866309 
L 286.304406 111.778402 
L 286.415801 111.346858 
L 287.246791 111.242968 
L 287.364691 111.179036 
L 287.530563 111.123095 
L 287.642772 110.755484 
L 287.847673 110.651594 
L 287.965573 110.587662 
L 288.346105 110.483772 
L 288.460752 110.451805 
L 288.646952 110.347915 
L 288.7616 110.315949 
L 289.081962 110.212059 
L 289.205554 110.092186 
L 289.599095 109.988296 
L 289.716995 109.924364 
L 290.077199 109.820474 
L 290.192659 109.780516 
L 290.430898 109.676626 
L 290.543106 109.636668 
L 290.856964 109.532778 
L 290.970798 109.508803 
L 291.276524 109.404913 
L 291.390359 109.348973 
L 291.622093 109.245082 
L 291.738366 109.197133 
L 292.188825 109.093243 
L 292.313229 108.965378 
L 292.427064 108.861488 
L 292.540085 108.845505 
L 292.886466 108.741615 
L 292.999487 108.725632 
L 293.488162 108.621742 
L 293.60037 108.613751 
L 293.688185 108.589776 
L 293.800393 108.461911 
L 294.11425 108.374004 
L 294.226458 108.190199 
L 294.63057 108.086309 
L 294.743591 108.070326 
L 295.560759 107.966436 
L 295.672967 107.934469 
L 296.067321 107.830579 
L 296.181969 107.798613 
L 296.320196 107.774638 
L 296.431591 107.662757 
L 296.587706 107.558867 
L 296.705606 107.423011 
L 296.712924 107.423011 
L 296.825132 107.21523 
L 297.327629 107.11134 
L 297.444716 107.0554 
L 297.908997 106.95151 
L 298.047224 106.687789 
L 298.50744 106.583899 
L 298.620461 106.567915 
L 299.029452 106.464025 
L 299.148978 106.38411 
L 299.548211 106.28022 
L 299.662045 106.256245 
L 300.210076 106.152355 
L 300.333667 106.032482 
L 300.854052 105.928592 
L 300.970326 105.880643 
L 301.233771 105.824702 
L 301.345166 105.465082 
L 301.468758 105.361192 
L 301.581779 105.345209 
L 301.974507 105.249311 
L 302.085902 105.225336 
L 302.723374 105.129438 
L 302.835582 105.105463 
L 303.370603 105.009564 
L 303.484437 104.929649 
L 303.877166 104.825759 
L 303.990187 104.809776 
L 304.220295 104.705886 
L 304.336568 104.657937 
L 304.697586 104.554047 
L 304.81142 104.530072 
L 305.191138 104.426182 
L 305.304973 104.402207 
L 305.523697 104.298317 
L 305.640784 104.242376 
L 306.113196 104.138486 
L 306.228657 104.098529 
L 306.680741 103.994638 
L 306.796202 103.954681 
L 307.174294 103.850791 
L 307.285689 103.834808 
L 307.82071 103.738909 
L 307.933731 103.682968 
L 308.508595 103.579078 
L 308.623242 103.547112 
L 308.957427 103.443222 
L 309.072074 103.411256 
L 309.433091 103.315357 
L 309.547739 103.243433 
L 309.76565 103.179501 
L 309.877045 103.12356 
L 310.493376 103.01967 
L 310.607211 102.995696 
L 310.82187 102.891805 
L 310.936517 102.859839 
L 311.242243 102.81189 
L 311.353638 102.452271 
L 311.792713 102.348381 
L 311.9098 102.29244 
L 312.243985 102.18855 
L 312.357006 102.172567 
L 312.948131 102.068677 
L 313.061966 101.988761 
L 313.508359 101.884871 
L 313.622193 101.82893 
L 314.023865 101.72504 
L 314.136886 101.709057 
L 314.745087 101.605167 
L 314.859734 101.573201 
L 314.88738 101.477302 
L 314.998775 101.461319 
L 315.353287 101.357429 
L 315.472813 101.277514 
L 315.929776 101.197598 
L 316.041171 99.4954 
L 316.509518 99.39151 
L 316.625792 99.34356 
L 316.683522 99.319586 
L 316.79573 99.183729 
L 317.159186 99.079839 
L 317.280339 98.983941 
L 318.138974 98.880051 
L 318.257687 98.808127 
L 318.718716 98.704237 
L 318.833363 98.672271 
L 319.129333 98.568381 
L 319.243167 98.544406 
L 319.442377 98.456499 
L 319.555398 98.392567 
L 319.779001 98.296668 
L 319.891209 98.264702 
L 320.269302 98.160812 
L 320.384762 98.120854 
L 320.985644 98.016964 
L 321.100292 97.984998 
L 321.696296 97.881108 
L 321.815008 97.809184 
L 322.223999 97.705294 
L 322.337833 97.681319 
L 322.733001 97.577429 
L 322.850087 97.521488 
L 323.215983 97.417598 
L 323.329817 97.337683 
L 323.898989 97.233793 
L 324.01201 97.185844 
L 324.498245 97.081953 
L 324.612079 97.057979 
L 325.352002 96.954089 
L 325.467463 96.914131 
L 325.860191 96.810241 
L 325.978904 96.738317 
L 326.430175 96.634427 
L 326.54401 96.578486 
L 326.836726 96.474596 
L 326.952187 96.434638 
L 327.422973 96.330748 
L 327.534368 96.02707 
L 327.960433 95.92318 
L 328.074267 95.899205 
L 328.344217 95.795315 
L 328.458052 95.77134 
L 328.898753 95.675442 
L 329.012587 95.619501 
L 329.15488 95.515611 
L 329.268714 95.419712 
L 329.511019 95.363772 
L 329.623227 95.283856 
L 329.980179 95.179966 
L 330.098891 95.108042 
L 330.198903 95.068085 
L 330.310298 94.908254 
L 330.64123 94.804364 
L 330.755065 94.780389 
L 330.812795 94.764406 
L 330.92419 93.95726 
L 331.490922 93.85337 
L 331.608009 93.797429 
L 331.895034 93.693539 
L 332.010494 93.653581 
L 332.282883 93.549691 
L 332.395091 93.445801 
L 332.708949 93.381869 
L 332.820344 93.070199 
L 333.321215 92.966309 
L 333.434236 92.926351 
L 333.872498 92.822461 
L 333.985519 92.806478 
L 334.2636 92.702588 
L 334.376621 92.686605 
L 334.731133 92.582715 
L 334.849033 92.518782 
L 335.203546 92.414892 
L 335.318193 92.382926 
L 335.736941 92.279036 
L 335.850775 92.255061 
L 336.244316 92.151171 
L 336.358964 92.119205 
L 336.755757 92.015315 
L 336.873657 91.951383 
L 337.016763 91.863476 
L 337.128158 91.256118 
L 337.581869 91.152228 
L 337.697329 91.112271 
L 338.131526 91.008381 
L 338.248613 90.95244 
L 338.790138 90.84855 
L 338.910478 90.760643 
L 339.128389 90.656753 
L 339.242223 90.632778 
L 339.572343 90.576837 
L 339.684551 90.369057 
L 340.069961 90.265167 
L 340.185421 90.169268 
L 340.464315 90.161277 
L 340.57571 89.489987 
L 341.101787 89.386097 
L 341.222126 89.29819 
L 341.300997 89.274216 
L 341.413205 89.154342 
L 341.721371 89.050452 
L 341.832766 89.018486 
L 342.005144 88.914596 
L 342.12223 88.858655 
L 342.433648 88.754765 
L 342.54667 88.642884 
L 342.606026 88.626901 
L 342.717421 88.411129 
L 342.867032 88.387154 
L 342.978427 85.246478 
L 343.357332 85.142588 
L 343.471167 85.118613 
L 343.897232 85.014723 
L 344.00944 85.006732 
L 344.69082 84.902841 
L 344.803028 84.89485 
L 345.012808 84.89485 
L 345.124203 84.679078 
L 345.437247 84.607154 
L 345.549455 84.53523 
L 345.76574 84.495273 
L 345.877948 84.343433 
L 346.5886 84.247535 
L 346.701621 84.207577 
L 347.017917 84.103687 
L 347.138256 84.01578 
L 347.433413 83.927873 
L 347.545621 83.815992 
L 347.691166 83.712101 
L 347.810692 83.632186 
L 348.065193 83.536288 
L 348.177401 83.448381 
L 348.318067 83.160685 
L 348.546549 83.104744 
L 348.658757 82.960896 
L 349.243378 82.857006 
L 349.358025 82.82504 
L 349.523898 82.777091 
L 349.635293 81.050918 
L 349.897112 80.947027 
L 350.008506 80.075949 
L 350.415057 79.972059 
L 350.531331 79.92411 
L 350.754934 79.82022 
L 350.87446 79.740304 
L 351.09725 79.636414 
L 351.212711 79.596457 
L 351.402976 79.492567 
L 351.536325 79.276795 
L 351.654225 79.172905 
L 351.773751 79.092989 
L 351.888398 78.989099 
L 352.007924 78.909184 
L 352.118506 78.805294 
L 352.241285 78.693412 
L 352.334791 78.589522 
L 352.458383 78.469649 
L 352.906402 78.365759 
L 353.019423 78.349776 
L 353.590221 78.245886 
L 353.707307 78.189945 
L 354.15614 78.086055 
L 354.268348 77.982165 
L 354.984691 77.878275 
L 355.096899 76.775442 
L 355.569311 76.671552 
L 355.692089 76.55967 
L 356.119781 76.45578 
L 356.235241 76.415822 
L 356.474293 76.311932 
L 356.588128 76.287958 
L 356.971099 76.184068 
L 357.088999 76.120135 
L 357.376837 76.016245 
L 357.493923 75.960304 
L 357.76306 75.856414 
L 357.876894 75.83244 
L 358.285072 75.72855 
L 358.403784 75.656626 
L 358.881888 75.552736 
L 358.996536 75.52077 
L 359.176231 75.416879 
L 359.294944 75.344956 
L 359.782805 75.241066 
L 359.899079 75.193116 
L 360.244647 75.089226 
L 360.360108 75.049268 
L 360.582085 74.993328 
L 360.694293 74.841488 
L 360.920335 74.737598 
L 361.034169 74.713624 
L 361.317129 74.657683 
L 361.428524 70.75781 
L 361.665136 70.725844 
L 361.776531 70.597979 
L 361.992003 70.494089 
L 362.108277 70.382207 
L 362.359526 70.286309 
L 362.471734 70.222376 
L 362.597764 70.118486 
L 362.723795 69.974638 
L 362.98968 69.910706 
L 363.101888 69.846774 
L 363.485672 69.742884 
L 363.602758 69.686943 
L 363.947514 69.631002 
L 364.058909 69.511129 
L 364.532134 69.407239 
L 364.646781 69.375273 
L 364.880955 69.271383 
L 364.996415 69.231425 
L 365.337918 69.127535 
L 365.456631 69.055611 
L 365.816835 68.951721 
L 365.930669 68.927746 
L 366.290874 68.823856 
L 366.413652 68.711975 
L 367.012095 68.608085 
L 367.126742 68.576118 
L 367.524349 68.472228 
L 367.63981 68.432271 
L 368.289478 68.328381 
L 368.403313 68.304406 
L 369.570114 68.200516 
L 369.682322 68.152567 
L 370.031143 68.06466 
L 370.143351 68.01671 
L 370.599501 67.91282 
L 370.715775 67.864871 
L 371.339424 67.760981 
L 371.454884 67.721023 
L 371.780938 67.617133 
L 371.897212 67.569184 
L 372.123254 67.465294 
L 372.239528 67.417345 
L 372.530618 67.313455 
L 372.647705 67.257514 
L 372.88757 67.153624 
L 373.008722 67.057725 
L 373.211185 66.969818 
L 373.323393 66.905886 
L 373.704737 66.801996 
L 373.821824 66.746055 
L 374.089335 66.642165 
L 374.208048 66.570241 
L 374.321882 66.466351 
L 374.459296 66.210622 
L 374.558495 66.106732 
L 374.690217 65.906943 
L 374.823566 65.803053 
L 374.94797 65.675188 
L 375.10246 65.571298 
L 375.224425 65.467408 
L 375.43014 65.363518 
L 375.549666 65.283603 
L 376.117211 65.179712 
L 376.230232 65.163729 
L 376.48392 65.059839 
L 376.501808 65.051848 
L 376.613203 61.583518 
L 376.86933 61.479628 
L 376.992922 61.359755 
L 377.489727 61.255865 
L 377.602748 61.239882 
L 378.378448 61.135992 
L 378.491469 61.120008 
L 379.051696 61.02411 
L 379.16553 60.968169 
L 379.536305 60.896245 
L 379.648513 60.81633 
L 380.007904 60.71244 
L 380.120925 60.696457 
L 380.499018 60.592567 
L 380.613665 60.5606 
L 380.884428 60.45671 
L 380.997449 60.440727 
L 382.037407 60.336837 
L 382.150428 60.320854 
L 382.641541 60.216964 
L 382.753749 60.192989 
L 383.333491 60.089099 
L 383.446512 60.073116 
L 384.131957 59.969226 
L 384.253109 59.873328 
L 384.666165 59.769438 
L 384.783252 59.713497 
L 384.971892 59.609607 
L 385.085726 59.585632 
L 385.495529 59.481742 
L 385.610177 59.449776 
L 385.898015 59.345886 
L 386.015915 59.281953 
L 386.205367 59.178063 
L 386.32652 59.082165 
L 386.596469 58.978275 
L 386.721687 58.842419 
L 387.103032 58.738529 
L 387.220119 58.682588 
L 387.612034 58.578698 
L 387.72912 58.522757 
L 388.150307 58.418867 
L 388.263328 58.378909 
L 388.927633 58.275019 
L 389.040654 58.259036 
L 389.714715 58.155146 
L 389.830176 58.115188 
L 390.377394 58.011298 
L 390.489602 58.003307 
L 390.959575 57.899416 
L 391.079101 57.819501 
L 391.231151 57.715611 
L 391.357181 57.571763 
L 391.636889 57.467873 
L 391.750723 57.443899 
L 392.205247 57.340008 
L 392.319894 57.308042 
L 392.819952 57.204152 
L 392.935412 57.164195 
L 393.281794 57.060304 
L 393.397254 57.020347 
L 393.741196 56.916457 
L 393.855031 56.892482 
L 394.340453 56.788592 
L 394.456726 56.684702 
L 394.655936 56.588803 
L 394.771397 56.500896 
L 394.940522 56.444956 
L 395.05273 56.333074 
L 395.171443 56.173243 
L 395.337316 56.069353 
L 395.451963 55.989438 
L 395.599948 55.885548 
L 395.721913 55.781658 
L 396.018695 55.677767 
L 396.133342 55.597852 
L 396.352067 55.493962 
L 396.47078 55.422038 
L 396.687065 55.318148 
L 396.803339 55.270199 
L 397.005801 55.166309 
L 397.122888 55.046436 
L 397.268433 54.942545 
L 397.389585 54.846647 
L 397.474148 54.742757 
L 397.606683 54.534977 
L 397.725396 54.431087 
L 397.844109 54.279247 
L 397.948186 54.175357 
L 398.075843 54.015526 
L 398.226267 53.911636 
L 398.354737 53.743814 
L 398.47345 53.647915 
L 398.487273 53.568 
L 398.487273 53.568 
" clip-path="url(#p8a35ac315c)" style="fill: none; stroke: #1f77b4; stroke-width: 1.5; stroke-linecap: square"/>
   </g>
   <g id="patch_3">
    <path d="M 57.6 307.584 
L 57.6 41.472 
" style="fill: none; stroke: #000000; stroke-width: 0.8; stroke-linejoin: miter; stroke-linecap: square"/>
   </g>
   <g id="patch_4">
    <path d="M 414.72 307.584 
L 414.72 41.472 
" style="fill: none; stroke: #000000; stroke-width: 0.8; stroke-linejoin: miter; stroke-linecap: square"/>
   </g>
   <g id="patch_5">
    <path d="M 57.6 307.584 
L 414.72 307.584 
" style="fill: none; stroke: #000000; stroke-width: 0.8; stroke-linejoin: miter; stroke-linecap: square"/>
   </g>
   <g id="patch_6">
    <path d="M 57.6 41.472 
L 414.72 41.472 
" style="fill: none; stroke: #000000; stroke-width: 0.8; stroke-linejoin: miter; stroke-linecap: square"/>
   </g>
  </g>
 </g>
 <defs>
  <clipPath id="p8a35ac315c">
   <rect x="57.6" y="41.472" width="357.12" height="266.112"/>
  </clipPath>
 </defs>
</svg>
