<?xml version="1.0" encoding="utf-8" standalone="no"?>
<!DOCTYPE svg PUBLIC "-//W3C//DTD SVG 1.1//EN"
  "http://www.w3.org/Graphics/SVG/1.1/DTD/svg11.dtd">
<svg xmlns:xlink="http://www.w3.org/1999/xlink" width="460.8pt" height="345.6pt" viewBox="0 0 460.8 345.6" xmlns="http://www.w3.org/2000/svg" version="1.1">
 <metadata>
  <rdf:RDF xmlns:dc="http://purl.org/dc/elements/1.1/" xmlns:cc="http://creativecommons.org/ns#" xmlns:rdf="http://www.w3.org/1999/02/22-rdf-syntax-ns#">
   <cc:Work>
    <dc:type rdf:resource="http://purl.org/dc/dcmitype/StillImage"/>
    <dc:date>2023-05-22T22:12:18.936304</dc:date>
    <dc:format>image/svg+xml</dc:format>
    <dc:creator>
     <cc:Agent>
      <dc:title>Matplotlib v3.6.3, https://matplotlib.org/</dc:title>
     </cc:Agent>
    </dc:creator>
   </cc:Work>
  </rdf:RDF>
 </metadata>
 <defs>
  <style type="text/css">*{stroke-linejoin: round; stroke-linecap: butt}</style>
 </defs>
 <g id="figure_1">
  <g id="patch_1">
   <path d="M 0 345.6 
L 460.8 345.6 
L 460.8 0 
L 0 0 
z
" style="fill: #ffffff"/>
  </g>
  <g id="axes_1">
   <g id="patch_2">
    <path d="M 57.6 307.584 
L 414.72 307.584 
L 414.72 41.472 
L 57.6 41.472 
z
" style="fill: #ffffff"/>
   </g>
   <g id="matplotlib.axis_1">
    <g id="xtick_1">
     <g id="line2d_1">
      <defs>
       <path id="m6d6239a82c" d="M 0 0 
L 0 3.5 
" style="stroke: #000000; stroke-width: 0.8"/>
      </defs>
      <g>
       <use xlink:href="#m6d6239a82c" x="73.831897" y="307.584" style="stroke: #000000; stroke-width: 0.8"/>
      </g>
     </g>
     <g id="text_1">
      <!-- 0 -->
      <g transform="translate(70.650647 322.182437) scale(0.1 -0.1)">
       <defs>
        <path id="DejaVuSans-30" d="M 2034 4250 
Q 1547 4250 1301 3770 
Q 1056 3291 1056 2328 
Q 1056 1369 1301 889 
Q 1547 409 2034 409 
Q 2525 409 2770 889 
Q 3016 1369 3016 2328 
Q 3016 3291 2770 3770 
Q 2525 4250 2034 4250 
z
M 2034 4750 
Q 2819 4750 3233 4129 
Q 3647 3509 3647 2328 
Q 3647 1150 3233 529 
Q 2819 -91 2034 -91 
Q 1250 -91 836 529 
Q 422 1150 422 2328 
Q 422 3509 836 4129 
Q 1250 4750 2034 4750 
z
" transform="scale(0.015625)"/>
       </defs>
       <use xlink:href="#DejaVuSans-30"/>
      </g>
     </g>
    </g>
    <g id="xtick_2">
     <g id="line2d_2">
      <g>
       <use xlink:href="#m6d6239a82c" x="115.365669" y="307.584" style="stroke: #000000; stroke-width: 0.8"/>
      </g>
     </g>
     <g id="text_2">
      <!-- 50000 -->
      <g transform="translate(99.459419 322.182437) scale(0.1 -0.1)">
       <defs>
        <path id="DejaVuSans-35" d="M 691 4666 
L 3169 4666 
L 3169 4134 
L 1269 4134 
L 1269 2991 
Q 1406 3038 1543 3061 
Q 1681 3084 1819 3084 
Q 2600 3084 3056 2656 
Q 3513 2228 3513 1497 
Q 3513 744 3044 326 
Q 2575 -91 1722 -91 
Q 1428 -91 1123 -41 
Q 819 9 494 109 
L 494 744 
Q 775 591 1075 516 
Q 1375 441 1709 441 
Q 2250 441 2565 725 
Q 2881 1009 2881 1497 
Q 2881 1984 2565 2268 
Q 2250 2553 1709 2553 
Q 1456 2553 1204 2497 
Q 953 2441 691 2322 
L 691 4666 
z
" transform="scale(0.015625)"/>
       </defs>
       <use xlink:href="#DejaVuSans-35"/>
       <use xlink:href="#DejaVuSans-30" x="63.623047"/>
       <use xlink:href="#DejaVuSans-30" x="127.246094"/>
       <use xlink:href="#DejaVuSans-30" x="190.869141"/>
       <use xlink:href="#DejaVuSans-30" x="254.492188"/>
      </g>
     </g>
    </g>
    <g id="xtick_3">
     <g id="line2d_3">
      <g>
       <use xlink:href="#m6d6239a82c" x="156.899441" y="307.584" style="stroke: #000000; stroke-width: 0.8"/>
      </g>
     </g>
     <g id="text_3">
      <!-- 100000 -->
      <g transform="translate(137.811941 322.182437) scale(0.1 -0.1)">
       <defs>
        <path id="DejaVuSans-31" d="M 794 531 
L 1825 531 
L 1825 4091 
L 703 3866 
L 703 4441 
L 1819 4666 
L 2450 4666 
L 2450 531 
L 3481 531 
L 3481 0 
L 794 0 
L 794 531 
z
" transform="scale(0.015625)"/>
       </defs>
       <use xlink:href="#DejaVuSans-31"/>
       <use xlink:href="#DejaVuSans-30" x="63.623047"/>
       <use xlink:href="#DejaVuSans-30" x="127.246094"/>
       <use xlink:href="#DejaVuSans-30" x="190.869141"/>
       <use xlink:href="#DejaVuSans-30" x="254.492188"/>
       <use xlink:href="#DejaVuSans-30" x="318.115234"/>
      </g>
     </g>
    </g>
    <g id="xtick_4">
     <g id="line2d_4">
      <g>
       <use xlink:href="#m6d6239a82c" x="198.433213" y="307.584" style="stroke: #000000; stroke-width: 0.8"/>
      </g>
     </g>
     <g id="text_4">
      <!-- 150000 -->
      <g transform="translate(179.345713 322.182437) scale(0.1 -0.1)">
       <use xlink:href="#DejaVuSans-31"/>
       <use xlink:href="#DejaVuSans-35" x="63.623047"/>
       <use xlink:href="#DejaVuSans-30" x="127.246094"/>
       <use xlink:href="#DejaVuSans-30" x="190.869141"/>
       <use xlink:href="#DejaVuSans-30" x="254.492188"/>
       <use xlink:href="#DejaVuSans-30" x="318.115234"/>
      </g>
     </g>
    </g>
    <g id="xtick_5">
     <g id="line2d_5">
      <g>
       <use xlink:href="#m6d6239a82c" x="239.966986" y="307.584" style="stroke: #000000; stroke-width: 0.8"/>
      </g>
     </g>
     <g id="text_5">
      <!-- 200000 -->
      <g transform="translate(220.879486 322.182437) scale(0.1 -0.1)">
       <defs>
        <path id="DejaVuSans-32" d="M 1228 531 
L 3431 531 
L 3431 0 
L 469 0 
L 469 531 
Q 828 903 1448 1529 
Q 2069 2156 2228 2338 
Q 2531 2678 2651 2914 
Q 2772 3150 2772 3378 
Q 2772 3750 2511 3984 
Q 2250 4219 1831 4219 
Q 1534 4219 1204 4116 
Q 875 4013 500 3803 
L 500 4441 
Q 881 4594 1212 4672 
Q 1544 4750 1819 4750 
Q 2544 4750 2975 4387 
Q 3406 4025 3406 3419 
Q 3406 3131 3298 2873 
Q 3191 2616 2906 2266 
Q 2828 2175 2409 1742 
Q 1991 1309 1228 531 
z
" transform="scale(0.015625)"/>
       </defs>
       <use xlink:href="#DejaVuSans-32"/>
       <use xlink:href="#DejaVuSans-30" x="63.623047"/>
       <use xlink:href="#DejaVuSans-30" x="127.246094"/>
       <use xlink:href="#DejaVuSans-30" x="190.869141"/>
       <use xlink:href="#DejaVuSans-30" x="254.492188"/>
       <use xlink:href="#DejaVuSans-30" x="318.115234"/>
      </g>
     </g>
    </g>
    <g id="xtick_6">
     <g id="line2d_6">
      <g>
       <use xlink:href="#m6d6239a82c" x="281.500758" y="307.584" style="stroke: #000000; stroke-width: 0.8"/>
      </g>
     </g>
     <g id="text_6">
      <!-- 250000 -->
      <g transform="translate(262.413258 322.182437) scale(0.1 -0.1)">
       <use xlink:href="#DejaVuSans-32"/>
       <use xlink:href="#DejaVuSans-35" x="63.623047"/>
       <use xlink:href="#DejaVuSans-30" x="127.246094"/>
       <use xlink:href="#DejaVuSans-30" x="190.869141"/>
       <use xlink:href="#DejaVuSans-30" x="254.492188"/>
       <use xlink:href="#DejaVuSans-30" x="318.115234"/>
      </g>
     </g>
    </g>
    <g id="xtick_7">
     <g id="line2d_7">
      <g>
       <use xlink:href="#m6d6239a82c" x="323.03453" y="307.584" style="stroke: #000000; stroke-width: 0.8"/>
      </g>
     </g>
     <g id="text_7">
      <!-- 300000 -->
      <g transform="translate(303.94703 322.182437) scale(0.1 -0.1)">
       <defs>
        <path id="DejaVuSans-33" d="M 2597 2516 
Q 3050 2419 3304 2112 
Q 3559 1806 3559 1356 
Q 3559 666 3084 287 
Q 2609 -91 1734 -91 
Q 1441 -91 1130 -33 
Q 819 25 488 141 
L 488 750 
Q 750 597 1062 519 
Q 1375 441 1716 441 
Q 2309 441 2620 675 
Q 2931 909 2931 1356 
Q 2931 1769 2642 2001 
Q 2353 2234 1838 2234 
L 1294 2234 
L 1294 2753 
L 1863 2753 
Q 2328 2753 2575 2939 
Q 2822 3125 2822 3475 
Q 2822 3834 2567 4026 
Q 2313 4219 1838 4219 
Q 1578 4219 1281 4162 
Q 984 4106 628 3988 
L 628 4550 
Q 988 4650 1302 4700 
Q 1616 4750 1894 4750 
Q 2613 4750 3031 4423 
Q 3450 4097 3450 3541 
Q 3450 3153 3228 2886 
Q 3006 2619 2597 2516 
z
" transform="scale(0.015625)"/>
       </defs>
       <use xlink:href="#DejaVuSans-33"/>
       <use xlink:href="#DejaVuSans-30" x="63.623047"/>
       <use xlink:href="#DejaVuSans-30" x="127.246094"/>
       <use xlink:href="#DejaVuSans-30" x="190.869141"/>
       <use xlink:href="#DejaVuSans-30" x="254.492188"/>
       <use xlink:href="#DejaVuSans-30" x="318.115234"/>
      </g>
     </g>
    </g>
    <g id="xtick_8">
     <g id="line2d_8">
      <g>
       <use xlink:href="#m6d6239a82c" x="364.568302" y="307.584" style="stroke: #000000; stroke-width: 0.8"/>
      </g>
     </g>
     <g id="text_8">
      <!-- 350000 -->
      <g transform="translate(345.480802 322.182437) scale(0.1 -0.1)">
       <use xlink:href="#DejaVuSans-33"/>
       <use xlink:href="#DejaVuSans-35" x="63.623047"/>
       <use xlink:href="#DejaVuSans-30" x="127.246094"/>
       <use xlink:href="#DejaVuSans-30" x="190.869141"/>
       <use xlink:href="#DejaVuSans-30" x="254.492188"/>
       <use xlink:href="#DejaVuSans-30" x="318.115234"/>
      </g>
     </g>
    </g>
    <g id="xtick_9">
     <g id="line2d_9">
      <g>
       <use xlink:href="#m6d6239a82c" x="406.102075" y="307.584" style="stroke: #000000; stroke-width: 0.8"/>
      </g>
     </g>
     <g id="text_9">
      <!-- 400000 -->
      <g transform="translate(387.014575 322.182437) scale(0.1 -0.1)">
       <defs>
        <path id="DejaVuSans-34" d="M 2419 4116 
L 825 1625 
L 2419 1625 
L 2419 4116 
z
M 2253 4666 
L 3047 4666 
L 3047 1625 
L 3713 1625 
L 3713 1100 
L 3047 1100 
L 3047 0 
L 2419 0 
L 2419 1100 
L 313 1100 
L 313 1709 
L 2253 4666 
z
" transform="scale(0.015625)"/>
       </defs>
       <use xlink:href="#DejaVuSans-34"/>
       <use xlink:href="#DejaVuSans-30" x="63.623047"/>
       <use xlink:href="#DejaVuSans-30" x="127.246094"/>
       <use xlink:href="#DejaVuSans-30" x="190.869141"/>
       <use xlink:href="#DejaVuSans-30" x="254.492188"/>
       <use xlink:href="#DejaVuSans-30" x="318.115234"/>
      </g>
     </g>
    </g>
    <g id="text_10">
     <!-- # emails -->
     <g transform="translate(213.987344 335.860562) scale(0.1 -0.1)">
      <defs>
       <path id="DejaVuSans-23" d="M 3272 2816 
L 2363 2816 
L 2100 1772 
L 3016 1772 
L 3272 2816 
z
M 2803 4594 
L 2478 3297 
L 3391 3297 
L 3719 4594 
L 4219 4594 
L 3897 3297 
L 4872 3297 
L 4872 2816 
L 3775 2816 
L 3519 1772 
L 4513 1772 
L 4513 1294 
L 3397 1294 
L 3072 0 
L 2572 0 
L 2894 1294 
L 1978 1294 
L 1656 0 
L 1153 0 
L 1478 1294 
L 494 1294 
L 494 1772 
L 1594 1772 
L 1856 2816 
L 850 2816 
L 850 3297 
L 1978 3297 
L 2297 4594 
L 2803 4594 
z
" transform="scale(0.015625)"/>
       <path id="DejaVuSans-20" transform="scale(0.015625)"/>
       <path id="DejaVuSans-65" d="M 3597 1894 
L 3597 1613 
L 953 1613 
Q 991 1019 1311 708 
Q 1631 397 2203 397 
Q 2534 397 2845 478 
Q 3156 559 3463 722 
L 3463 178 
Q 3153 47 2828 -22 
Q 2503 -91 2169 -91 
Q 1331 -91 842 396 
Q 353 884 353 1716 
Q 353 2575 817 3079 
Q 1281 3584 2069 3584 
Q 2775 3584 3186 3129 
Q 3597 2675 3597 1894 
z
M 3022 2063 
Q 3016 2534 2758 2815 
Q 2500 3097 2075 3097 
Q 1594 3097 1305 2825 
Q 1016 2553 972 2059 
L 3022 2063 
z
" transform="scale(0.015625)"/>
       <path id="DejaVuSans-6d" d="M 3328 2828 
Q 3544 3216 3844 3400 
Q 4144 3584 4550 3584 
Q 5097 3584 5394 3201 
Q 5691 2819 5691 2113 
L 5691 0 
L 5113 0 
L 5113 2094 
Q 5113 2597 4934 2840 
Q 4756 3084 4391 3084 
Q 3944 3084 3684 2787 
Q 3425 2491 3425 1978 
L 3425 0 
L 2847 0 
L 2847 2094 
Q 2847 2600 2669 2842 
Q 2491 3084 2119 3084 
Q 1678 3084 1418 2786 
Q 1159 2488 1159 1978 
L 1159 0 
L 581 0 
L 581 3500 
L 1159 3500 
L 1159 2956 
Q 1356 3278 1631 3431 
Q 1906 3584 2284 3584 
Q 2666 3584 2933 3390 
Q 3200 3197 3328 2828 
z
" transform="scale(0.015625)"/>
       <path id="DejaVuSans-61" d="M 2194 1759 
Q 1497 1759 1228 1600 
Q 959 1441 959 1056 
Q 959 750 1161 570 
Q 1363 391 1709 391 
Q 2188 391 2477 730 
Q 2766 1069 2766 1631 
L 2766 1759 
L 2194 1759 
z
M 3341 1997 
L 3341 0 
L 2766 0 
L 2766 531 
Q 2569 213 2275 61 
Q 1981 -91 1556 -91 
Q 1019 -91 701 211 
Q 384 513 384 1019 
Q 384 1609 779 1909 
Q 1175 2209 1959 2209 
L 2766 2209 
L 2766 2266 
Q 2766 2663 2505 2880 
Q 2244 3097 1772 3097 
Q 1472 3097 1187 3025 
Q 903 2953 641 2809 
L 641 3341 
Q 956 3463 1253 3523 
Q 1550 3584 1831 3584 
Q 2591 3584 2966 3190 
Q 3341 2797 3341 1997 
z
" transform="scale(0.015625)"/>
       <path id="DejaVuSans-69" d="M 603 3500 
L 1178 3500 
L 1178 0 
L 603 0 
L 603 3500 
z
M 603 4863 
L 1178 4863 
L 1178 4134 
L 603 4134 
L 603 4863 
z
" transform="scale(0.015625)"/>
       <path id="DejaVuSans-6c" d="M 603 4863 
L 1178 4863 
L 1178 0 
L 603 0 
L 603 4863 
z
" transform="scale(0.015625)"/>
       <path id="DejaVuSans-73" d="M 2834 3397 
L 2834 2853 
Q 2591 2978 2328 3040 
Q 2066 3103 1784 3103 
Q 1356 3103 1142 2972 
Q 928 2841 928 2578 
Q 928 2378 1081 2264 
Q 1234 2150 1697 2047 
L 1894 2003 
Q 2506 1872 2764 1633 
Q 3022 1394 3022 966 
Q 3022 478 2636 193 
Q 2250 -91 1575 -91 
Q 1294 -91 989 -36 
Q 684 19 347 128 
L 347 722 
Q 666 556 975 473 
Q 1284 391 1588 391 
Q 1994 391 2212 530 
Q 2431 669 2431 922 
Q 2431 1156 2273 1281 
Q 2116 1406 1581 1522 
L 1381 1569 
Q 847 1681 609 1914 
Q 372 2147 372 2553 
Q 372 3047 722 3315 
Q 1072 3584 1716 3584 
Q 2034 3584 2315 3537 
Q 2597 3491 2834 3397 
z
" transform="scale(0.015625)"/>
      </defs>
      <use xlink:href="#DejaVuSans-23"/>
      <use xlink:href="#DejaVuSans-20" x="83.789062"/>
      <use xlink:href="#DejaVuSans-65" x="115.576172"/>
      <use xlink:href="#DejaVuSans-6d" x="177.099609"/>
      <use xlink:href="#DejaVuSans-61" x="274.511719"/>
      <use xlink:href="#DejaVuSans-69" x="335.791016"/>
      <use xlink:href="#DejaVuSans-6c" x="363.574219"/>
      <use xlink:href="#DejaVuSans-73" x="391.357422"/>
     </g>
    </g>
   </g>
   <g id="matplotlib.axis_2">
    <g id="ytick_1">
     <g id="line2d_10">
      <defs>
       <path id="m60de156cf7" d="M 0 0 
L -3.5 0 
" style="stroke: #000000; stroke-width: 0.8"/>
      </defs>
      <g>
       <use xlink:href="#m60de156cf7" x="57.6" y="295.504076" style="stroke: #000000; stroke-width: 0.8"/>
      </g>
     </g>
     <g id="text_11">
      <!-- 0 -->
      <g transform="translate(44.2375 299.303295) scale(0.1 -0.1)">
       <use xlink:href="#DejaVuSans-30"/>
      </g>
     </g>
    </g>
    <g id="ytick_2">
     <g id="line2d_11">
      <g>
       <use xlink:href="#m60de156cf7" x="57.6" y="255.314024" style="stroke: #000000; stroke-width: 0.8"/>
      </g>
     </g>
     <g id="text_12">
      <!-- 5000 -->
      <g transform="translate(25.15 259.113243) scale(0.1 -0.1)">
       <use xlink:href="#DejaVuSans-35"/>
       <use xlink:href="#DejaVuSans-30" x="63.623047"/>
       <use xlink:href="#DejaVuSans-30" x="127.246094"/>
       <use xlink:href="#DejaVuSans-30" x="190.869141"/>
      </g>
     </g>
    </g>
    <g id="ytick_3">
     <g id="line2d_12">
      <g>
       <use xlink:href="#m60de156cf7" x="57.6" y="215.123972" style="stroke: #000000; stroke-width: 0.8"/>
      </g>
     </g>
     <g id="text_13">
      <!-- 10000 -->
      <g transform="translate(18.7875 218.92319) scale(0.1 -0.1)">
       <use xlink:href="#DejaVuSans-31"/>
       <use xlink:href="#DejaVuSans-30" x="63.623047"/>
       <use xlink:href="#DejaVuSans-30" x="127.246094"/>
       <use xlink:href="#DejaVuSans-30" x="190.869141"/>
       <use xlink:href="#DejaVuSans-30" x="254.492188"/>
      </g>
     </g>
    </g>
    <g id="ytick_4">
     <g id="line2d_13">
      <g>
       <use xlink:href="#m60de156cf7" x="57.6" y="174.93392" style="stroke: #000000; stroke-width: 0.8"/>
      </g>
     </g>
     <g id="text_14">
      <!-- 15000 -->
      <g transform="translate(18.7875 178.733138) scale(0.1 -0.1)">
       <use xlink:href="#DejaVuSans-31"/>
       <use xlink:href="#DejaVuSans-35" x="63.623047"/>
       <use xlink:href="#DejaVuSans-30" x="127.246094"/>
       <use xlink:href="#DejaVuSans-30" x="190.869141"/>
       <use xlink:href="#DejaVuSans-30" x="254.492188"/>
      </g>
     </g>
    </g>
    <g id="ytick_5">
     <g id="line2d_14">
      <g>
       <use xlink:href="#m60de156cf7" x="57.6" y="134.743867" style="stroke: #000000; stroke-width: 0.8"/>
      </g>
     </g>
     <g id="text_15">
      <!-- 20000 -->
      <g transform="translate(18.7875 138.543086) scale(0.1 -0.1)">
       <use xlink:href="#DejaVuSans-32"/>
       <use xlink:href="#DejaVuSans-30" x="63.623047"/>
       <use xlink:href="#DejaVuSans-30" x="127.246094"/>
       <use xlink:href="#DejaVuSans-30" x="190.869141"/>
       <use xlink:href="#DejaVuSans-30" x="254.492188"/>
      </g>
     </g>
    </g>
    <g id="ytick_6">
     <g id="line2d_15">
      <g>
       <use xlink:href="#m60de156cf7" x="57.6" y="94.553815" style="stroke: #000000; stroke-width: 0.8"/>
      </g>
     </g>
     <g id="text_16">
      <!-- 25000 -->
      <g transform="translate(18.7875 98.353034) scale(0.1 -0.1)">
       <use xlink:href="#DejaVuSans-32"/>
       <use xlink:href="#DejaVuSans-35" x="63.623047"/>
       <use xlink:href="#DejaVuSans-30" x="127.246094"/>
       <use xlink:href="#DejaVuSans-30" x="190.869141"/>
       <use xlink:href="#DejaVuSans-30" x="254.492188"/>
      </g>
     </g>
    </g>
    <g id="ytick_7">
     <g id="line2d_16">
      <g>
       <use xlink:href="#m60de156cf7" x="57.6" y="54.363763" style="stroke: #000000; stroke-width: 0.8"/>
      </g>
     </g>
     <g id="text_17">
      <!-- 30000 -->
      <g transform="translate(18.7875 58.162982) scale(0.1 -0.1)">
       <use xlink:href="#DejaVuSans-33"/>
       <use xlink:href="#DejaVuSans-30" x="63.623047"/>
       <use xlink:href="#DejaVuSans-30" x="127.246094"/>
       <use xlink:href="#DejaVuSans-30" x="190.869141"/>
       <use xlink:href="#DejaVuSans-30" x="254.492188"/>
      </g>
     </g>
    </g>
    <g id="text_18">
     <!-- # addresses -->
     <g transform="translate(12.707812 205.629562) rotate(-90) scale(0.1 -0.1)">
      <defs>
       <path id="DejaVuSans-64" d="M 2906 2969 
L 2906 4863 
L 3481 4863 
L 3481 0 
L 2906 0 
L 2906 525 
Q 2725 213 2448 61 
Q 2172 -91 1784 -91 
Q 1150 -91 751 415 
Q 353 922 353 1747 
Q 353 2572 751 3078 
Q 1150 3584 1784 3584 
Q 2172 3584 2448 3432 
Q 2725 3281 2906 2969 
z
M 947 1747 
Q 947 1113 1208 752 
Q 1469 391 1925 391 
Q 2381 391 2643 752 
Q 2906 1113 2906 1747 
Q 2906 2381 2643 2742 
Q 2381 3103 1925 3103 
Q 1469 3103 1208 2742 
Q 947 2381 947 1747 
z
" transform="scale(0.015625)"/>
       <path id="DejaVuSans-72" d="M 2631 2963 
Q 2534 3019 2420 3045 
Q 2306 3072 2169 3072 
Q 1681 3072 1420 2755 
Q 1159 2438 1159 1844 
L 1159 0 
L 581 0 
L 581 3500 
L 1159 3500 
L 1159 2956 
Q 1341 3275 1631 3429 
Q 1922 3584 2338 3584 
Q 2397 3584 2469 3576 
Q 2541 3569 2628 3553 
L 2631 2963 
z
" transform="scale(0.015625)"/>
      </defs>
      <use xlink:href="#DejaVuSans-23"/>
      <use xlink:href="#DejaVuSans-20" x="83.789062"/>
      <use xlink:href="#DejaVuSans-61" x="115.576172"/>
      <use xlink:href="#DejaVuSans-64" x="176.855469"/>
      <use xlink:href="#DejaVuSans-64" x="240.332031"/>
      <use xlink:href="#DejaVuSans-72" x="303.808594"/>
      <use xlink:href="#DejaVuSans-65" x="342.671875"/>
      <use xlink:href="#DejaVuSans-73" x="404.195312"/>
      <use xlink:href="#DejaVuSans-73" x="456.294922"/>
      <use xlink:href="#DejaVuSans-65" x="508.394531"/>
      <use xlink:href="#DejaVuSans-73" x="569.917969"/>
     </g>
    </g>
   </g>
   <g id="line2d_17">
    <path d="M 73.832727 295.488 
L 74.032089 293.775904 
L 74.082761 293.695524 
L 74.195732 293.325775 
L 74.378481 292.634506 
L 74.399248 292.610392 
L 74.511389 292.401404 
L 74.607747 292.304948 
L 74.723211 292.21653 
L 74.829538 292.112036 
L 74.961615 291.911085 
L 75.129412 291.806591 
L 75.253182 291.686021 
L 75.268134 291.686021 
L 75.380276 291.468995 
L 75.525644 291.139436 
L 75.633632 291.034942 
L 75.777338 290.72146 
L 75.857083 290.616966 
L 75.970886 290.592852 
L 76.058937 290.584814 
L 76.170248 288.084992 
L 76.322262 287.980498 
L 76.451847 287.803662 
L 76.475937 287.739358 
L 76.588078 287.594674 
L 76.661177 287.562522 
L 76.772488 286.967709 
L 76.853894 286.863215 
L 77.041627 286.123718 
L 77.183672 286.019224 
L 77.34067 285.577133 
L 77.976136 285.488715 
L 78.088278 285.432449 
L 78.622402 285.327955 
L 78.742019 285.247575 
L 78.791029 285.143081 
L 78.919784 284.974282 
L 78.955503 284.869788 
L 79.114162 284.411622 
L 79.177293 284.307127 
L 79.312693 284.074025 
L 79.347582 283.969531 
L 79.485474 283.712315 
L 79.549436 283.607821 
L 79.67819 283.439022 
L 79.704772 283.40687 
L 79.816913 283.173768 
L 80.037873 283.069274 
L 80.154167 282.96478 
L 80.183241 282.868324 
L 80.31781 282.410157 
L 80.429121 282.305663 
L 80.517173 282.249397 
L 80.628483 279.926412 
L 80.726503 279.829956 
L 80.841136 279.749576 
L 80.867718 279.717424 
L 80.979859 279.572739 
L 81.11692 279.468245 
L 81.260627 279.154763 
L 81.331235 279.050269 
L 81.452513 278.953813 
L 81.779799 278.849318 
L 81.899417 278.68052 
L 82.083826 278.632292 
L 82.195137 278.27862 
L 82.615459 278.214316 
L 82.726769 277.691845 
L 83.012522 277.595389 
L 83.124663 277.547161 
L 83.603963 277.442667 
L 83.721088 277.386401 
L 84.239429 277.281906 
L 84.359047 277.201526 
L 84.751125 277.097032 
L 84.877388 276.952348 
L 85.035216 276.847854 
L 85.153172 276.582599 
L 85.204674 276.478105 
L 85.383269 275.827026 
L 85.418158 275.778798 
L 85.539436 274.974997 
L 85.584293 274.958921 
L 85.697265 274.444489 
L 85.762057 274.404299 
L 85.874199 274.106892 
L 85.955605 274.018474 
L 86.068577 273.95417 
L 86.327747 273.849676 
L 86.442381 273.817524 
L 86.623468 273.71303 
L 86.745577 273.608536 
L 86.785449 273.504041 
L 86.920019 273.278977 
L 87.04462 273.174483 
L 87.187496 272.869039 
L 87.305452 272.764545 
L 87.443344 272.507328 
L 87.513121 272.402834 
L 87.631077 271.960743 
L 87.67178 271.920553 
L 87.783921 271.534729 
L 87.955041 271.430235 
L 88.330506 268.874147 
L 88.368717 268.801805 
L 88.480858 268.335601 
L 88.578047 268.279335 
L 88.695172 267.845282 
L 88.720923 267.821168 
L 88.833895 267.596104 
L 88.956004 267.49161 
L 89.076452 267.403192 
L 89.230958 267.298697 
L 89.358051 267.145975 
L 89.375496 267.065595 
L 89.500928 265.940274 
L 89.634666 265.892046 
L 89.746807 265.658943 
L 89.857287 265.610715 
L 89.969428 265.409765 
L 90.270133 265.313309 
L 90.383936 265.249005 
L 90.564192 265.176663 
L 90.677995 264.630078 
L 90.792628 264.597926 
L 90.953779 264.50147 
L 91.067581 264.445204 
L 91.258637 264.34071 
L 91.379915 264.244253 
L 91.497041 264.139759 
L 91.627457 263.954885 
L 91.70554 263.850391 
L 91.833464 263.689631 
L 91.870014 263.585137 
L 91.991292 263.376148 
L 92.0619 263.303806 
L 92.174041 263.054628 
L 92.262093 262.950134 
L 92.386694 262.821526 
L 92.390847 262.821526 
L 92.50465 262.355321 
L 92.638389 262.138295 
L 92.802862 262.033801 
L 92.939924 261.784622 
L 93.067848 261.680128 
L 93.20574 261.422912 
L 93.266379 261.318418 
L 93.386827 261.23 
L 93.510598 261.125505 
L 93.625231 261.045125 
L 93.68504 261.037087 
L 93.797181 260.466389 
L 93.94421 260.369932 
L 94.060505 260.2574 
L 94.079611 260.2574 
L 94.191752 260.01626 
L 94.326321 259.911766 
L 94.450092 259.791196 
L 94.59546 259.69474 
L 94.719231 259.437523 
L 94.776547 259.413409 
L 94.888688 259.140117 
L 95.058146 259.035623 
L 95.180256 258.931129 
L 95.251694 258.834672 
L 95.343899 258.64176 
L 95.455209 253.409015 
L 95.513356 253.304521 
L 95.642111 253.135723 
L 95.726009 253.031229 
L 95.858087 252.830279 
L 95.930355 252.725784 
L 96.069078 252.46053 
L 96.143839 252.356036 
L 96.257642 252.243504 
L 96.510167 252.13901 
L 96.628123 252.074706 
L 96.68627 251.97825 
L 96.820009 251.536159 
L 96.947102 251.471855 
L 97.060074 251.335209 
L 97.204612 251.013688 
L 97.256944 250.909194 
L 97.379053 250.8047 
L 97.542696 250.700206 
L 97.695541 250.298305 
L 97.783592 250.193811 
L 97.905702 249.968747 
L 97.938929 249.960709 
L 98.052731 249.4302 
L 98.205575 249.325706 
L 98.324362 249.253364 
L 98.438165 249.14887 
L 98.571073 248.939882 
L 98.708134 248.843425 
L 98.820275 248.521905 
L 98.90002 248.417411 
L 99.022129 248.312917 
L 99.169159 248.208423 
L 99.289607 248.120005 
L 99.523857 248.01551 
L 99.640983 247.959244 
L 99.782197 247.919054 
L 99.915106 245.79702 
L 100.141049 245.692525 
L 100.268973 245.531765 
L 100.448399 245.427271 
L 100.783161 243.265046 
L 100.949296 243.160552 
L 101.072236 243.04802 
L 101.165272 242.983716 
L 101.277413 242.638081 
L 101.370449 242.541625 
L 101.485082 242.461245 
L 101.598885 242.372827 
L 101.716841 242.163839 
L 101.774157 242.115611 
L 101.886298 241.898584 
L 101.902912 241.802128 
L 102.016714 241.681558 
L 102.143808 241.577064 
L 102.263425 241.496684 
L 102.376397 241.39219 
L 102.501829 241.255544 
L 102.595695 241.159087 
L 102.717805 240.942061 
L 102.760169 240.837567 
L 102.913013 240.435667 
L 103.092439 240.33921 
L 103.20458 240.274906 
L 103.504454 240.170412 
L 103.620749 240.122184 
L 103.817619 240.01769 
L 103.940559 239.905158 
L 104.166502 239.800664 
L 104.283628 239.744398 
L 104.395769 239.720284 
L 104.50791 239.479143 
L 104.615067 239.374649 
L 104.742161 239.221927 
L 104.806123 239.205851 
L 104.918264 238.972749 
L 105.296221 238.868255 
L 105.424145 238.707494 
L 105.453219 238.707494 
L 105.564529 238.474392 
L 105.782997 238.44224 
L 105.895138 238.209138 
L 106.035522 238.104644 
L 106.160954 237.967997 
L 106.276418 237.863503 
L 106.417633 237.574135 
L 106.691756 237.469641 
L 106.839616 237.115968 
L 106.905239 237.011474 
L 107.019873 236.834638 
L 107.216743 236.730144 
L 107.371248 236.312167 
L 107.562304 236.207673 
L 107.686074 236.087103 
L 107.774126 235.982609 
L 107.891251 235.862039 
L 107.96352 235.765582 
L 108.081476 235.620898 
L 108.201924 235.516404 
L 108.315726 235.395834 
L 108.419561 235.299378 
L 108.533363 235.235074 
L 108.685377 235.13058 
L 108.804164 234.969819 
L 109.038414 234.873363 
L 109.159693 234.567919 
L 109.197073 234.551843 
L 109.308383 232.437846 
L 109.516883 232.333352 
L 109.639823 232.22082 
L 109.862444 232.14044 
L 109.975416 232.027908 
L 110.288581 231.923413 
L 110.420658 231.722463 
L 110.552735 231.617969 
L 110.66903 231.505437 
L 111.022067 231.400943 
L 111.135869 231.376829 
L 111.286222 231.296449 
L 111.398363 231.063346 
L 111.655042 230.958852 
L 111.778812 230.838282 
L 111.847758 230.790054 
L 111.9599 230.516762 
L 112.062073 230.460496 
L 112.174214 230.307773 
L 112.327058 230.203279 
L 112.462458 229.970177 
L 112.572107 229.865683 
L 112.696709 229.737075 
L 112.925144 229.632581 
L 113.052238 229.479858 
L 113.32553 229.375364 
L 113.443486 229.31106 
L 113.637864 229.206566 
L 113.767449 229.02973 
L 113.821443 228.925236 
L 113.946045 228.796627 
L 113.964319 228.748399 
L 114.07563 228.386689 
L 114.354737 228.282195 
L 114.472693 228.217891 
L 114.597294 228.113397 
L 114.720234 228.000864 
L 114.823238 227.904408 
L 114.940363 227.7758 
L 115.513529 227.671306 
L 115.642284 227.502508 
L 115.803435 227.398014 
L 115.954618 227.012189 
L 116.026056 226.907695 
L 116.14152 226.867505 
L 116.172255 226.859467 
L 116.284396 226.642441 
L 116.908233 226.537947 
L 117.037819 226.36111 
L 117.215583 226.256616 
L 117.348491 226.047628 
L 117.361782 226.031552 
L 117.473092 225.669841 
L 117.585234 225.525157 
L 117.800379 225.420663 
L 117.92498 225.292055 
L 118.086962 225.187561 
L 118.203256 225.139333 
L 118.555463 225.091105 
L 118.667604 224.882116 
L 119.243262 224.777622 
L 119.362048 224.70528 
L 119.476682 224.600786 
L 119.607928 224.407874 
L 119.67106 224.30338 
L 119.793169 224.198885 
L 119.911956 224.094391 
L 120.054832 223.788947 
L 120.088889 223.732681 
L 120.201031 223.21021 
L 120.279945 223.105716 
L 120.396239 222.993184 
L 120.520841 222.88869 
L 120.647103 222.744006 
L 120.788318 222.671663 
L 120.90129 222.559131 
L 120.98768 222.454637 
L 121.108959 222.358181 
L 121.251004 222.253687 
L 121.383912 222.044699 
L 121.557524 221.940205 
L 121.674649 221.883938 
L 121.869858 221.779444 
L 121.996951 221.626722 
L 122.120722 221.522228 
L 122.243662 221.409696 
L 122.361617 221.305202 
L 122.481235 221.224822 
L 122.600021 221.120327 
L 122.747882 220.766655 
L 122.836764 220.662161 
L 122.961365 220.533553 
L 123.089289 220.429059 
L 123.21389 220.30045 
L 123.32437 220.195956 
L 123.453956 220.01912 
L 123.658302 219.914626 
L 123.776258 219.850322 
L 123.861817 219.745828 
L 123.943223 219.649372 
L 124.054534 217.599679 
L 124.129295 217.495185 
L 124.241436 217.020942 
L 124.315366 216.916448 
L 124.429169 216.892334 
L 124.534664 216.860182 
L 124.645975 216.458281 
L 124.758947 216.353787 
L 124.877733 216.281445 
L 125.062974 216.176951 
L 125.181761 216.104609 
L 125.355372 216.000115 
L 125.473328 215.935811 
L 125.62368 215.839355 
L 125.735821 215.791127 
L 125.895311 215.686632 
L 126.018251 215.5741 
L 126.168603 215.469606 
L 126.28822 215.389226 
L 126.42279 215.308846 
L 126.539915 214.947135 
L 126.798255 214.842641 
L 126.922026 214.722071 
L 127.137171 214.617577 
L 127.255126 214.553273 
L 127.324903 214.448779 
L 127.456981 214.247829 
L 127.476086 214.239791 
L 127.588227 213.942384 
L 127.71449 213.83789 
L 127.842414 213.67713 
L 127.952894 213.572636 
L 128.001073 212.688455 
L 128.112384 211.836425 
L 128.220371 211.731931 
L 128.340819 211.643513 
L 128.438839 211.539019 
L 128.557626 211.466677 
L 128.782739 211.362183 
L 128.904017 211.265727 
L 129.103379 211.161233 
L 129.222997 211.080852 
L 129.305233 210.976358 
L 129.431496 210.831674 
L 129.541145 210.72718 
L 129.665747 210.598572 
L 129.852649 210.518192 
L 130.00134 206.836783 
L 130.107666 206.732289 
L 130.224791 206.676023 
L 130.317827 206.603681 
L 130.429968 206.410768 
L 130.516358 206.330388 
L 130.630161 206.049058 
L 130.877702 205.944564 
L 130.991505 205.140763 
L 131.089524 205.036269 
L 131.209142 204.955888 
L 131.467482 204.851394 
L 131.591252 204.730824 
L 131.884481 204.62633 
L 131.997453 204.610254 
L 132.169402 204.521836 
L 132.284866 204.353038 
L 132.387039 204.256582 
L 132.501673 204.176201 
L 132.725955 204.071707 
L 132.839757 204.047593 
L 133.587365 203.943099 
L 133.705321 203.878795 
L 133.871456 203.806453 
L 133.983598 203.701959 
L 136.100159 203.597465 
L 136.215623 203.557275 
L 140.927214 203.452781 
L 141.040185 203.436705 
L 146.929674 203.33221 
L 147.041816 203.283982 
L 154.811954 203.179488 
L 154.924095 203.17145 
L 164.035774 203.066956 
L 164.150407 203.034804 
L 183.398818 202.93031 
L 183.540033 202.640941 
L 183.823294 202.536447 
L 183.957863 202.311383 
L 183.974477 202.287269 
L 184.087448 202.013977 
L 184.204574 201.75676 
L 184.291795 201.652266 
L 184.417227 201.51562 
L 184.521892 201.411126 
L 184.637356 201.322708 
L 184.943044 201.218214 
L 185.058508 201.121758 
L 185.193908 201.025301 
L 185.310203 200.912769 
L 185.443941 200.808275 
L 185.566051 200.703781 
L 185.680684 200.599287 
L 185.815253 200.374223 
L 185.84765 200.374223 
L 185.959791 200.14112 
L 185.998833 200.036626 
L 186.124265 199.89998 
L 186.322796 199.811562 
L 186.434937 199.690992 
L 186.635961 199.586498 
L 186.765546 199.409661 
L 186.931681 199.305167 
L 187.049637 199.240863 
L 187.270597 199.136369 
L 187.386061 199.096179 
L 187.548042 198.991685 
L 187.724976 198.356682 
L 187.789769 198.252188 
L 187.915201 198.115542 
L 188.010729 198.011047 
L 188.146959 197.769907 
L 188.249963 197.673451 
L 188.366258 197.568957 
L 188.390347 197.480539 
L 188.506642 197.327817 
L 188.589709 197.223322 
L 188.810669 196.162305 
L 188.852203 196.065849 
L 188.967667 195.929203 
L 189.200256 195.872937 
L 189.312397 195.430846 
L 189.408755 195.326352 
L 189.540833 195.125402 
L 189.604795 195.020908 
L 189.725243 194.827995 
L 189.830738 194.723501 
L 189.947864 194.667235 
L 190.099877 194.562741 
L 190.221987 194.458247 
L 190.433809 194.353753 
L 190.555087 194.257297 
L 190.794322 194.16084 
L 190.910616 194.00008 
L 191.134899 193.895586 
L 191.27196 193.646408 
L 191.372472 193.541914 
L 191.497073 193.413306 
L 191.575988 193.381153 
L 191.695605 190.101645 
L 191.887491 189.997151 
L 192.113435 188.887906 
L 192.318611 188.783412 
L 192.434906 188.735183 
L 192.573629 188.630689 
L 192.694907 188.534233 
L 192.711521 188.526195 
L 192.822831 182.127939 
L 193.028008 182.023445 
L 193.179191 181.63762 
L 193.314591 181.533126 
L 193.449161 181.308062 
L 193.636063 181.227682 
L 193.748204 180.391729 
L 193.879451 180.30331 
L 194.004883 179.869258 
L 194.169356 179.788878 
L 194.281497 179.62008 
L 194.40776 179.515585 
L 194.527377 179.435205 
L 194.714279 179.330711 
L 194.838881 179.202103 
L 195.054026 179.097609 
L 195.185272 178.904697 
L 195.319011 178.800203 
L 195.464379 178.470644 
L 195.687831 178.36615 
L 195.805787 178.301846 
L 195.866426 178.261656 
L 195.979398 177.771337 
L 196.167961 177.666843 
L 196.286748 177.594501 
L 196.580807 177.490007 
L 196.755249 176.879118 
L 196.980362 176.782662 
L 197.093334 176.71032 
L 197.452186 176.605826 
L 197.573464 176.50937 
L 197.78944 176.404875 
L 197.904904 176.364685 
L 198.071039 176.292343 
L 198.18318 176.107469 
L 198.446504 176.002975 
L 198.567783 175.906519 
L 198.655834 175.898481 
L 198.767145 175.713607 
L 199.21654 175.609112 
L 199.346126 175.432276 
L 199.508938 175.327782 
L 199.632709 175.207212 
L 199.801336 175.102718 
L 199.926768 174.966072 
L 200.068813 174.877653 
L 200.181785 174.805311 
L 200.39693 174.700817 
L 200.525685 174.532019 
L 200.649455 174.427525 
L 200.76575 174.323031 
L 201.069777 174.218537 
L 201.186072 174.170309 
L 201.292398 174.106004 
L 201.404539 173.969358 
L 201.451057 173.937206 
L 201.563198 173.744294 
L 201.776682 173.6398 
L 201.89713 173.446888 
L 201.977705 173.430812 
L 202.089847 172.522516 
L 202.295023 172.442136 
L 202.407165 172.10454 
L 202.484417 172.000046 
L 202.604865 171.911628 
L 202.655537 171.855362 
L 202.767678 171.622259 
L 202.961225 171.525803 
L 203.075858 171.316815 
L 203.182185 171.212321 
L 203.300141 170.874724 
L 203.543529 170.77023 
L 203.663977 170.681812 
L 203.795223 170.585356 
L 203.908195 170.287949 
L 203.97548 170.183455 
L 204.094266 170.111113 
L 204.322702 170.006619 
L 204.446473 169.886049 
L 204.716442 169.781555 
L 204.828584 169.773517 
L 205.188266 169.669023 
L 205.302899 169.636871 
L 205.691655 169.532377 
L 205.808781 169.47611 
L 205.990699 169.371616 
L 206.141881 168.985792 
L 206.219134 168.969716 
L 206.331275 168.760728 
L 206.577155 168.672309 
L 206.689297 168.567815 
L 206.852109 168.471359 
L 206.965081 168.423131 
L 207.191855 168.318637 
L 207.307319 168.278447 
L 207.461825 168.173953 
L 207.57895 168.117687 
L 207.8863 168.013193 
L 208.002594 167.964964 
L 208.172052 167.86047 
L 208.306622 167.635406 
L 208.418763 167.530912 
L 208.537549 167.45857 
L 208.78426 167.354076 
L 209.015188 165.031091 
L 209.138958 164.910521 
L 209.261068 164.806026 
L 209.384008 164.693494 
L 209.613274 164.589 
L 209.732061 164.516658 
L 209.928931 164.420202 
L 210.044395 164.331784 
L 210.182287 164.22729 
L 210.296089 164.203176 
L 210.41986 164.098681 
L 210.534493 164.066529 
L 210.73967 163.962035 
L 210.895006 163.536021 
L 210.949 163.503869 
L 211.061141 163.166272 
L 211.13258 163.061778 
L 211.253027 162.97336 
L 211.381782 162.868866 
L 211.504722 162.756334 
L 211.856098 162.65184 
L 211.972392 162.603612 
L 212.197505 162.499117 
L 212.32626 162.330319 
L 212.430925 162.241901 
L 212.543897 162.121331 
L 212.809713 162.016837 
L 212.937637 161.856077 
L 213.124539 161.751582 
L 213.240834 161.63905 
L 213.353806 161.542594 
L 213.4701 161.4381 
L 213.545692 161.389872 
L 213.660325 160.867401 
L 213.827291 160.762907 
L 213.945247 160.698603 
L 214.196111 160.594109 
L 214.316559 160.505691 
L 214.362246 160.401197 
L 214.482694 160.312779 
L 214.741864 160.208284 
L 214.85982 160.14398 
L 215.070812 160.039486 
L 215.190429 159.959106 
L 215.396437 159.878726 
L 215.5119 159.70189 
L 215.625703 159.645624 
L 215.741167 159.219609 
L 215.833372 159.115115 
L 215.95465 159.018659 
L 216.115802 158.914165 
L 216.236249 158.825747 
L 216.398231 158.721252 
L 216.512034 158.664986 
L 216.676507 158.560492 
L 216.792802 158.512264 
L 217.016254 158.40777 
L 217.153315 158.158592 
L 217.316128 158.054098 
L 217.446544 157.869223 
L 217.644244 157.764729 
L 217.764692 157.676311 
L 217.919198 157.571817 
L 218.045461 157.427133 
L 218.135174 157.330677 
L 218.251468 157.177954 
L 218.337028 157.121688 
L 218.449169 156.808206 
L 218.546358 156.703712 
L 218.674282 156.542952 
L 218.79473 156.438458 
L 218.911855 156.309849 
L 219.055562 156.205355 
L 219.093773 156.165165 
L 219.205083 153.44028 
L 219.36042 153.335785 
L 219.474222 153.311671 
L 219.629559 153.207177 
L 219.750007 153.118759 
L 219.890391 153.014265 
L 220.011669 152.917809 
L 220.117996 152.813315 
L 220.245089 152.660593 
L 220.451097 152.556098 
L 220.567391 152.50787 
L 220.755955 152.403376 
L 220.876402 152.314958 
L 221.102346 152.210464 
L 221.220302 152.14616 
L 221.26682 152.122046 
L 221.378961 151.736221 
L 221.612381 151.631727 
L 221.730337 151.567423 
L 222.11494 151.470967 
L 222.227911 151.414701 
L 222.413152 151.310207 
L 222.559351 150.97261 
L 222.776988 150.868116 
L 222.912388 150.635014 
L 223.076031 150.538558 
L 223.190664 150.466216 
L 223.404148 150.361722 
L 223.528749 150.233113 
L 223.740571 150.136657 
L 223.854374 150.072353 
L 223.993927 149.967859 
L 224.028816 149.831213 
L 224.140126 147.315316 
L 224.256421 147.210822 
L 224.376038 147.130441 
L 224.577892 147.025947 
L 224.704986 146.873225 
L 225.013166 146.768731 
L 225.126969 146.712465 
L 225.318855 146.607971 
L 225.450932 146.407021 
L 225.602115 146.302526 
L 225.642818 146.254298 
L 225.754129 144.3091 
L 225.892021 144.204606 
L 226.011638 144.124226 
L 226.140393 144.035807 
L 226.252534 143.730363 
L 226.372982 143.641945 
L 226.561545 143.537451 
L 226.691961 143.352577 
L 226.852282 143.248082 
L 226.97356 143.151626 
L 227.021739 143.119474 
L 227.133881 142.717574 
L 227.405511 142.61308 
L 227.643915 141.383264 
L 227.906409 141.27877 
L 228.026857 141.190352 
L 228.174717 141.109972 
L 228.286027 140.691995 
L 228.693058 140.587501 
L 228.808522 140.547311 
L 228.988779 140.474969 
L 229.10092 140.370475 
L 229.246288 140.338323 
L 229.357599 140.241866 
L 229.799518 140.137372 
L 229.919135 140.056992 
L 230.082778 139.98465 
L 230.19575 139.848004 
L 230.611088 139.74351 
L 230.726552 139.70332 
L 231.004828 139.598826 
L 231.124445 139.518446 
L 231.248216 139.413951 
L 231.362849 139.381799 
L 231.639464 139.277305 
L 231.76988 139.092431 
L 232.025728 138.987937 
L 232.142023 138.939709 
L 232.257487 138.835215 
L 232.374612 138.778949 
L 232.662856 138.674454 
L 232.77832 138.634264 
L 233.069887 138.52977 
L 233.186182 138.481542 
L 233.508484 138.385086 
L 233.621456 138.312744 
L 233.693725 138.232364 
L 233.805866 138.135908 
L 233.956218 138.031414 
L 234.075005 137.959072 
L 234.143951 137.854577 
L 234.259415 137.814387 
L 234.366572 137.709893 
L 234.482866 137.661665 
L 234.680567 137.557171 
L 234.796031 137.516981 
L 234.967981 137.412487 
L 235.085937 137.348183 
L 235.228813 137.243689 
L 235.349261 137.15527 
L 235.500444 137.050776 
L 235.622553 136.946282 
L 235.683192 136.841788 
L 235.801148 136.777484 
L 235.976421 136.67299 
L 236.096038 136.59261 
L 236.228115 136.488116 
L 236.347733 136.407736 
L 236.453228 136.351469 
L 236.56537 136.158557 
L 236.780515 136.062101 
L 236.895148 135.949569 
L 236.940835 135.941531 
L 237.052976 135.628049 
L 237.183392 135.443174 
L 237.313808 135.33868 
L 237.444224 135.153806 
L 237.495726 135.121654 
L 237.607867 134.993046 
L 237.842948 134.888552 
L 237.959243 134.776019 
L 238.210938 134.679563 
L 238.323079 134.341967 
L 238.495859 134.237473 
L 238.622122 134.092789 
L 238.881293 133.988294 
L 239.009217 133.827534 
L 239.285832 133.72304 
L 239.403788 133.658736 
L 239.643853 133.554242 
L 239.758486 133.52209 
L 239.98443 133.417596 
L 240.105708 133.32114 
L 240.319192 133.216645 
L 240.436317 133.160379 
L 240.56258 133.055885 
L 240.683858 132.959429 
L 240.756127 132.854935 
L 240.884051 132.694175 
L 241.139899 132.589681 
L 241.289421 132.219932 
L 241.419006 132.115438 
L 241.535301 132.06721 
L 241.827699 131.962716 
L 241.948146 131.874298 
L 242.306998 131.769804 
L 242.425785 131.697461 
L 242.578629 131.592967 
L 242.700738 131.488473 
L 242.905085 131.383979 
L 243.026363 131.287523 
L 243.20745 131.183029 
L 243.322084 131.102649 
L 243.493203 130.998155 
L 243.610328 130.941888 
L 243.945921 130.837394 
L 244.059723 130.81328 
L 244.367073 130.708786 
L 244.495828 130.539988 
L 244.950208 130.459608 
L 245.063179 130.379228 
L 245.355577 130.274734 
L 245.472702 130.218467 
L 245.932897 130.130049 
L 246.045038 130.057707 
L 246.361525 129.953213 
L 246.481142 129.872833 
L 246.676351 129.768339 
L 246.789323 129.752263 
L 247.292712 129.647769 
L 247.408176 129.607579 
L 247.970543 129.511123 
L 248.083515 129.462895 
L 248.565307 129.3584 
L 248.677448 129.173526 
L 248.935788 129.109222 
L 249.047099 128.9565 
L 249.385184 128.852006 
L 249.498156 128.83593 
L 250.043909 128.731436 
L 250.159373 128.691246 
L 250.353751 128.586751 
L 250.469215 128.546561 
L 250.519056 128.522447 
L 250.631197 128.329535 
L 250.910304 128.225041 
L 251.037397 128.072319 
L 251.387112 127.967825 
L 251.53248 127.638266 
L 251.95031 127.54181 
L 252.064112 127.485544 
L 252.329928 127.38105 
L 252.452037 127.276556 
L 252.58993 127.212252 
L 252.702071 127.051491 
L 252.821688 126.971111 
L 253.149805 126.866617 
L 253.263607 126.842503 
L 253.745399 126.738009 
L 253.865016 126.657629 
L 254.189811 126.553135 
L 254.303613 126.529021 
L 254.842721 126.424527 
L 254.956524 126.400413 
L 255.316206 126.295918 
L 255.436654 126.2075 
L 255.826241 126.103006 
L 255.940874 126.070854 
L 256.340429 125.974398 
L 256.455893 125.877942 
L 256.978388 125.773448 
L 257.090529 125.709144 
L 257.455196 125.604649 
L 257.57149 125.556421 
L 257.91539 125.508193 
L 258.0267 124.302492 
L 258.194497 124.214074 
L 258.306638 124.157808 
L 258.811689 124.053313 
L 258.922999 123.048562 
L 259.34166 122.944068 
L 259.456293 122.911916 
L 259.991248 122.807422 
L 260.10505 122.783308 
L 260.407416 122.727042 
L 260.519557 121.939317 
L 260.85432 121.842861 
L 260.96563 121.738366 
L 261.335281 121.633872 
L 261.459051 121.513302 
L 261.802951 121.408808 
L 261.915923 121.392732 
L 262.125253 121.328428 
L 262.236564 121.223934 
L 262.646087 121.11944 
L 262.762381 121.071212 
L 263.097143 120.974755 
L 263.210115 120.878299 
L 263.711012 120.773805 
L 263.825646 120.741653 
L 264.166223 120.637159 
L 264.287501 120.540703 
L 264.515106 120.500513 
L 264.627247 120.162916 
L 265.1838 120.058422 
L 265.298433 120.02627 
L 265.781886 119.921776 
L 265.89652 119.889624 
L 266.419014 119.78513 
L 266.531156 119.568104 
L 266.655757 119.439495 
L 266.84349 119.335001 
L 266.963107 119.254621 
L 267.159146 119.206393 
L 267.271287 119.021519 
L 267.622663 118.917025 
L 267.739788 118.860759 
L 267.876019 118.756265 
L 267.989822 118.732151 
L 268.370271 118.627656 
L 268.493211 118.515124 
L 268.767334 118.458858 
L 268.879475 118.338288 
L 269.046441 118.233794 
L 269.161905 118.193604 
L 269.572258 118.08911 
L 269.686061 118.064996 
L 270.014178 117.960502 
L 270.132964 117.888159 
L 270.642999 117.783665 
L 270.761786 117.711323 
L 270.87725 117.606829 
L 270.991052 117.518411 
L 271.19706 117.413917 
L 271.318338 117.317461 
L 271.599937 117.212967 
L 271.722046 117.108472 
L 272.281922 117.003978 
L 272.394894 116.987902 
L 272.889976 116.883408 
L 273.025376 116.650306 
L 273.260457 116.545812 
L 273.387551 116.39309 
L 273.520459 116.344861 
L 273.6326 116.240367 
L 273.831962 116.135873 
L 273.945765 116.111759 
L 274.344489 116.007265 
L 274.463275 115.934923 
L 274.798868 115.830429 
L 274.918486 115.750049 
L 274.941744 115.742011 
L 275.053886 115.29992 
L 275.220851 115.195426 
L 275.336315 115.155236 
L 275.61293 115.050742 
L 275.73504 114.946248 
L 276.118812 114.849792 
L 276.233445 114.777449 
L 276.451082 114.672955 
L 276.569038 114.608651 
L 276.760093 114.552385 
L 276.872234 114.399663 
L 277.019264 114.335359 
L 277.131405 114.102257 
L 277.24853 114.04599 
L 277.624826 113.941496 
L 277.743613 113.869154 
L 277.978694 113.76466 
L 278.094988 113.716432 
L 278.55186 113.611938 
L 278.668155 113.56371 
L 278.941447 113.459216 
L 279.060233 113.386874 
L 279.113397 113.28238 
L 279.230522 113.226113 
L 279.86765 113.121619 
L 279.993082 112.984973 
L 280.233147 112.880479 
L 280.351103 112.816175 
L 280.548804 112.751871 
L 280.660945 112.558959 
L 280.785546 112.534845 
L 280.896857 112.213324 
L 280.946697 112.124906 
L 281.058838 111.875728 
L 281.247402 111.779272 
L 281.362035 111.706929 
L 281.556413 111.602435 
L 281.671046 111.570283 
L 282.014946 111.465789 
L 282.13041 111.425599 
L 282.404533 111.321105 
L 282.520827 111.272877 
L 282.678656 111.168383 
L 282.793289 111.136231 
L 282.898785 111.039775 
L 283.010095 110.69414 
L 283.193674 110.61376 
L 283.304985 110.179707 
L 283.993615 110.075213 
L 284.112401 110.002871 
L 284.236172 109.954643 
L 284.348313 109.584895 
L 284.507803 109.480401 
L 284.629082 109.383944 
L 285.040266 109.27945 
L 285.15656 109.174956 
L 285.473048 109.0785 
L 285.587681 109.006158 
L 285.809471 108.901664 
L 285.924935 108.861474 
L 286.050367 108.773056 
L 286.162508 108.740904 
L 286.386791 108.636409 
L 286.503085 108.588181 
L 286.676697 108.499763 
L 286.788838 108.451535 
L 287.061299 108.347041 
L 287.178424 108.290775 
L 287.421812 108.186281 
L 287.543922 108.081787 
L 287.939323 107.977293 
L 288.053956 107.945141 
L 288.24335 107.888875 
L 288.355492 107.687924 
L 288.732618 107.591468 
L 288.84559 107.551278 
L 289.216071 107.446784 
L 289.329043 107.430708 
L 289.412941 107.406594 
L 289.525083 107.245834 
L 289.747704 107.189568 
L 289.859845 107.004693 
L 290.170517 106.900199 
L 290.283489 106.884123 
L 290.954675 106.779629 
L 291.066816 106.747477 
L 291.385796 106.642983 
L 291.500429 106.610831 
L 291.590972 106.586717 
L 291.703114 106.474185 
L 291.788673 106.369691 
L 291.913275 106.104436 
L 292.013786 105.999942 
L 292.127589 105.975828 
L 292.444076 105.871334 
L 292.561201 105.815068 
L 292.962418 105.742726 
L 293.073728 105.485509 
L 293.405998 105.381015 
L 293.518139 105.372977 
L 293.833796 105.268483 
L 293.953413 105.188103 
L 294.275715 105.083609 
L 294.389518 105.059495 
L 294.852204 104.955001 
L 294.976806 104.826393 
L 295.428693 104.721898 
L 295.544988 104.67367 
L 295.716937 104.63348 
L 295.828248 104.23158 
L 296.100709 104.127086 
L 296.215343 104.094934 
L 296.854963 103.990439 
L 296.968765 103.934173 
L 297.490429 103.829679 
L 297.611708 103.733223 
L 297.994649 103.628729 
L 298.107621 103.612653 
L 298.29037 103.508159 
L 298.406664 103.459931 
L 298.693247 103.355437 
L 298.807881 103.323285 
L 299.15095 103.21879 
L 299.267244 103.170562 
L 299.423411 103.066068 
L 299.538044 103.033916 
L 299.882775 102.929422 
L 299.999069 102.881194 
L 300.403608 102.7767 
L 300.519072 102.73651 
L 300.960161 102.632016 
L 301.073963 102.607902 
L 301.387128 102.503408 
L 301.501761 102.471255 
L 301.927067 102.366761 
L 302.042531 102.326571 
L 302.308347 102.222077 
L 302.419658 102.206001 
L 302.685474 102.109545 
L 302.800107 102.037203 
L 302.958766 101.972899 
L 303.070076 101.916633 
L 303.574296 101.812139 
L 303.694744 101.723721 
L 304.16906 101.619226 
L 304.322735 101.209288 
L 304.703184 101.104794 
L 304.82114 101.04049 
L 305.249769 100.935995 
L 305.363571 100.911881 
L 305.636033 100.823463 
L 305.749005 100.759159 
L 306.082936 100.654665 
L 306.195908 100.606437 
L 306.520702 100.501943 
L 306.632843 100.493905 
L 307.124603 100.389411 
L 307.239236 100.357259 
L 307.254189 100.260803 
L 307.36633 100.236689 
L 307.663712 100.132194 
L 307.782498 100.059852 
L 308.164609 99.979472 
L 308.275919 98.2513 
L 308.648062 98.146806 
L 308.764357 98.098578 
L 308.85407 97.994084 
L 308.970364 97.881552 
L 309.261931 97.777057 
L 309.374072 97.744905 
L 310.069348 97.640411 
L 310.188134 97.568069 
L 310.582705 97.463575 
L 310.699 97.415347 
L 311.03127 97.310853 
L 311.150887 97.230473 
L 311.292933 97.125979 
L 311.410058 97.069712 
L 311.776386 96.965218 
L 311.893511 96.908952 
L 312.372811 96.804458 
L 312.488275 96.764268 
L 312.924379 96.659774 
L 313.037351 96.643698 
L 313.227576 96.539204 
L 313.34304 96.499014 
L 313.844768 96.39452 
L 313.963554 96.322177 
L 314.156271 96.217683 
L 314.270904 96.185531 
L 314.600682 96.081037 
L 314.715315 96.048885 
L 315.086627 95.944391 
L 315.20043 95.888125 
L 315.830082 95.783631 
L 315.943884 95.759517 
L 316.44229 95.655023 
L 316.562738 95.566605 
L 316.787851 95.46211 
L 316.900823 95.446034 
L 317.153348 95.357616 
L 317.265489 95.317426 
L 317.482295 95.212932 
L 317.597759 95.172742 
L 317.93086 95.084324 
L 318.042171 94.778879 
L 318.391885 94.674385 
L 318.505688 94.650271 
L 318.72997 94.545777 
L 318.844603 94.513625 
L 319.200132 94.409131 
L 319.315596 94.368941 
L 319.411954 94.264447 
L 319.526588 94.159953 
L 319.739241 94.055459 
L 319.854704 94.015268 
L 320.105568 93.910774 
L 320.225186 93.830394 
L 320.27918 93.814318 
L 320.391321 93.653558 
L 320.510107 93.581216 
L 320.805828 93.508874 
L 320.917138 92.688997 
L 321.384809 92.584503 
L 321.49695 92.536275 
L 321.708772 92.43178 
L 321.825897 92.375514 
L 322.046857 92.287096 
L 322.158998 92.174564 
L 322.409031 92.118298 
L 322.520342 91.804816 
L 322.94897 91.700321 
L 323.061942 91.660131 
L 323.429932 91.555637 
L 323.544565 91.523485 
L 323.894279 91.418991 
L 324.012235 91.354687 
L 324.26476 91.250193 
L 324.381055 91.201965 
L 324.745721 91.097471 
L 324.863677 91.033167 
L 325.352945 90.936711 
L 325.466748 90.872406 
L 325.808986 90.767912 
L 325.923619 90.73576 
L 326.134611 90.631266 
L 326.314867 89.964111 
L 326.688671 89.859617 
L 326.803305 89.827465 
L 327.159664 89.722971 
L 327.275959 89.674743 
L 327.746121 89.570249 
L 327.866569 89.481831 
L 328.057624 89.377336 
L 328.171427 89.353222 
L 328.436412 89.296956 
L 328.548554 89.087968 
L 328.857565 88.983474 
L 328.973029 88.887018 
L 329.212263 88.87898 
L 329.323574 88.203787 
L 329.760509 88.099293 
L 329.881788 88.002837 
L 329.988114 87.898343 
L 330.102747 87.866191 
L 330.296295 87.761696 
L 330.407605 87.729544 
L 330.547989 87.62505 
L 330.666776 87.552708 
L 330.920963 87.46429 
L 331.033935 87.351758 
L 331.069654 87.335682 
L 331.181795 87.118656 
L 331.289783 87.094542 
L 331.401093 83.943641 
L 331.734194 83.839147 
L 331.847166 83.823071 
L 332.255027 83.718577 
L 332.367999 83.702501 
L 333.117269 83.606045 
L 333.228579 83.397057 
L 333.505194 83.292563 
L 333.619827 83.260411 
L 333.764365 83.22022 
L 333.876506 83.05946 
L 334.530248 82.954966 
L 334.646542 82.906738 
L 334.899067 82.802244 
L 335.020346 82.705788 
L 335.215555 82.649522 
L 335.327696 82.53699 
L 335.439837 82.432495 
L 335.559454 82.352115 
L 335.760478 82.255659 
L 335.872619 82.143127 
L 335.934089 82.119013 
L 336.04623 81.845721 
L 336.177477 81.741227 
L 336.290449 81.676922 
L 336.405913 81.636732 
L 336.886043 81.532238 
L 337.188409 79.683496 
L 337.327132 79.651344 
L 337.438442 78.775201 
L 337.786495 78.670707 
L 337.904451 78.606402 
L 338.103813 78.501908 
L 338.221769 78.437604 
L 338.377106 78.33311 
L 338.495061 78.268806 
L 338.647906 78.164312 
L 338.784136 77.923172 
L 338.910399 77.818677 
L 339.035831 77.682031 
L 339.176215 77.577537 
L 339.300817 77.448929 
L 339.368101 77.344435 
L 339.495195 77.191713 
L 339.767656 77.087219 
L 339.882289 77.055066 
L 340.300119 76.950572 
L 340.41226 76.942534 
L 340.771943 76.83804 
L 340.889899 76.773736 
L 341.067663 76.669242 
L 341.179804 76.661204 
L 341.637507 76.564748 
L 341.750478 75.455502 
L 342.141727 75.351008 
L 342.265497 75.230438 
L 342.618534 75.125944 
L 342.733168 75.093792 
L 343.016428 74.989298 
L 343.13023 74.965184 
L 343.578795 74.86069 
L 343.696751 74.796386 
L 344.06391 74.691891 
L 344.177712 74.667777 
L 344.429407 74.563283 
L 344.545701 74.515055 
L 345.093116 74.410561 
L 345.211072 74.346257 
L 345.680404 74.241763 
L 345.794207 74.217649 
L 346.050055 74.113155 
L 346.168011 74.048851 
L 346.665585 73.944356 
L 346.781049 73.904166 
L 347.086738 73.799672 
L 347.201371 73.76752 
L 347.639137 73.663026 
L 347.751278 73.510304 
L 348.029554 73.40581 
L 348.143357 73.381696 
L 348.485595 73.32543 
L 348.596906 69.402881 
L 348.8486 69.370729 
L 348.959911 69.24212 
L 349.221573 69.137626 
L 349.337868 69.025094 
L 349.638573 68.928638 
L 349.750714 68.864334 
L 349.897743 68.75984 
L 350.024006 68.615156 
L 350.310589 68.550851 
L 350.42273 68.486547 
L 350.86548 68.382053 
L 350.982605 68.325787 
L 351.363885 68.269521 
L 351.476027 68.148951 
L 351.966125 68.044457 
L 352.080758 68.012305 
L 352.3283 67.907811 
L 352.443763 67.867621 
L 352.854117 67.763126 
L 352.972904 67.690784 
L 353.390734 67.58629 
L 353.504536 67.562176 
L 353.919874 67.457682 
L 354.042814 67.34515 
L 354.753041 67.240656 
L 354.867674 67.208504 
L 355.42755 67.10401 
L 355.542183 67.071858 
L 356.504936 66.967363 
L 356.618738 66.943249 
L 358.278428 66.838755 
L 358.393892 66.798565 
L 358.950444 66.694071 
L 359.061755 66.669957 
L 359.667317 66.573501 
L 359.780289 66.533311 
L 360.579399 66.428817 
L 360.694032 66.396665 
L 361.325345 66.292171 
L 361.439979 66.260018 
L 361.897681 66.163562 
L 362.011483 66.099258 
L 362.670209 65.994764 
L 362.781519 65.978688 
L 363.174429 65.874194 
L 363.290723 65.825966 
L 363.553217 65.721472 
L 363.665358 65.68932 
L 364.177885 65.592864 
L 364.290026 65.536598 
L 364.908049 65.432103 
L 365.02102 65.416027 
L 365.526071 65.311533 
L 365.639043 65.295457 
L 366.190611 65.190963 
L 366.306075 65.150773 
L 366.423201 65.046279 
L 366.547802 64.917671 
L 366.740519 64.813177 
L 366.858474 64.748873 
L 367.055345 64.644378 
L 367.177454 64.539884 
L 367.426656 64.43539 
L 367.543782 64.379124 
L 367.743975 64.27463 
L 367.8611 64.218364 
L 368.252348 64.11387 
L 368.364489 64.081718 
L 368.836313 63.977224 
L 368.953438 63.920957 
L 370.417919 63.824501 
L 370.53006 63.784311 
L 371.227827 63.679817 
L 371.319202 63.663741 
L 371.430512 60.215435 
L 371.922272 60.11094 
L 372.036905 60.078788 
L 372.397418 59.982332 
L 372.51039 59.942142 
L 373.493079 59.837648 
L 373.606882 59.813534 
L 375.151107 59.70904 
L 375.26491 59.684926 
L 375.89207 59.580432 
L 376.007534 59.540242 
L 376.452776 59.4679 
L 376.564917 59.395558 
L 377.051693 59.291063 
L 377.166326 59.258911 
L 377.63898 59.154417 
L 377.751122 59.122265 
L 378.109973 59.017771 
L 378.224607 58.985619 
L 378.775344 58.881125 
L 378.889147 58.857011 
L 379.91337 58.752517 
L 380.026342 58.736441 
L 380.754844 58.639985 
L 380.866985 58.607833 
L 381.318042 58.551566 
L 381.430183 58.471186 
L 382.341434 58.366692 
L 382.453575 58.358654 
L 383.50521 58.25416 
L 383.621505 58.205932 
L 384.222083 58.101438 
L 384.338378 58.05321 
L 384.563491 57.948716 
L 384.675632 57.940678 
L 385.193143 57.836184 
L 385.306945 57.81207 
L 385.942412 57.707575 
L 386.057045 57.675423 
L 386.549636 57.570929 
L 386.66593 57.522701 
L 386.791362 57.418207 
L 386.912641 57.321751 
L 387.217499 57.217257 
L 387.32964 57.112763 
L 387.655265 57.008268 
L 387.769898 56.976116 
L 388.17776 56.871622 
L 388.28907 56.823394 
L 388.667858 56.7189 
L 388.78083 56.67871 
L 389.387223 56.574216 
L 389.500195 56.55814 
L 390.175534 56.453646 
L 390.289337 56.429532 
L 390.874132 56.325038 
L 390.989596 56.284848 
L 391.296115 56.180353 
L 391.41241 56.132125 
L 391.512922 56.027631 
L 391.636692 55.907061 
L 391.875927 55.802567 
L 391.989729 55.778453 
L 392.456569 55.673959 
L 392.571202 55.641807 
L 393.129416 55.537313 
L 393.245711 55.489084 
L 393.612039 55.38459 
L 393.727502 55.3444 
L 394.05645 55.239906 
L 394.171914 55.199716 
L 394.601373 55.095222 
L 394.716837 55.055032 
L 395.111408 54.958576 
L 395.223549 54.870158 
L 395.484381 54.765664 
L 395.599845 54.725474 
L 395.944575 54.620979 
L 396.059208 54.588827 
L 396.63902 54.484333 
L 396.758637 54.403953 
L 397.109182 54.331611 
L 397.220493 54.267307 
L 397.372506 54.162813 
L 397.490462 54.098509 
L 397.669057 53.994015 
L 397.787013 53.92971 
L 398.267144 53.825216 
L 398.394237 53.672494 
L 398.487273 53.568 
L 398.487273 53.568 
" clip-path="url(#paf9105b2f4)" style="fill: none; stroke: #1f77b4; stroke-width: 1.5; stroke-linecap: square"/>
   </g>
   <g id="patch_3">
    <path d="M 57.6 307.584 
L 57.6 41.472 
" style="fill: none; stroke: #000000; stroke-width: 0.8; stroke-linejoin: miter; stroke-linecap: square"/>
   </g>
   <g id="patch_4">
    <path d="M 414.72 307.584 
L 414.72 41.472 
" style="fill: none; stroke: #000000; stroke-width: 0.8; stroke-linejoin: miter; stroke-linecap: square"/>
   </g>
   <g id="patch_5">
    <path d="M 57.6 307.584 
L 414.72 307.584 
" style="fill: none; stroke: #000000; stroke-width: 0.8; stroke-linejoin: miter; stroke-linecap: square"/>
   </g>
   <g id="patch_6">
    <path d="M 57.6 41.472 
L 414.72 41.472 
" style="fill: none; stroke: #000000; stroke-width: 0.8; stroke-linejoin: miter; stroke-linecap: square"/>
   </g>
  </g>
 </g>
 <defs>
  <clipPath id="paf9105b2f4">
   <rect x="57.6" y="41.472" width="357.12" height="266.112"/>
  </clipPath>
 </defs>
</svg>
